<?xml version="1.0" standalone="no"?>
<!DOCTYPE svg PUBLIC "-//W3C//DTD SVG 1.1//EN" "http://www.w3.org/Graphics/SVG/1.1/DTD/svg11.dtd" >
<svg xmlns="http://www.w3.org/2000/svg" xmlns:xlink="http://www.w3.org/1999/xlink" version="1.1">
<metadata>
Created by FontForge 20201107 at Mon Jan 22 14:30:56 2024
 By 
Copyright 2011 The Roboto Project Authors (https://github.com/googlefonts/roboto-classic)
</metadata>
<defs>
<font id="RobotoSemiCondensed-BoldItalic" horiz-adv-x="1046" >
  <font-face 
    font-family="Roboto SemiCondensed"
    font-weight="700"
    font-style="italic"
    font-stretch="semi-condensed"
    units-per-em="2048"
    panose-1="2 0 0 0 0 0 0 0 0 0"
    ascent="1536"
    descent="-512"
    x-height="1082"
    cap-height="1456"
    bbox="-1459 -555 2307 2163"
    underline-thickness="100"
    underline-position="-200"
    unicode-range="U+0002-FFFD"
  />
<missing-glyph horiz-adv-x="866" 
d="M725 1456v-54h-598v54h598zM152 1456v-1456h-50v1456h50zM754 1456v-1456h-50v1456h50zM725 54v-54h-598v54h598zM725 1426l-545 -1396h-54l546 1396h53zM672 30l-546 1396h54l545 -1396h-53z" />
    <glyph glyph-name="uniFB01" unicode="fi" horiz-adv-x="1147" 
d="M340 0h-278l192 1128q19 136 83 233t169 148.5t242 49.5q78 -2 153 -20t149 -40l-64 -235q-57 22 -116 35.5t-120 13.5q-89 1 -145 -47.5t-71 -136.5zM714 1082l-37 -208h-605l36 208h606zM1112 1082l-188 -1082h-278l188 1082h278z" />
    <glyph glyph-name="uniFB02" unicode="fl" horiz-adv-x="1154" 
d="M347 0h-278l198 1162q16 128 77.5 217.5t160.5 135.5t228 44q77 -1 154 -6t153 -13.5t152 -16.5l-138 -230q-73 14 -148 25.5t-149 11.5q-55 0 -98.5 -19t-72.5 -56t-39 -91zM654 0l264 1524h278l-265 -1524h-277zM722 1082l-36 -208h-607l37 208h606z" />
    <glyph glyph-name="uniFB03" unicode="ffi" horiz-adv-x="1738" 
d="M347 0h-278l201 1177q15 114 67.5 201t139.5 135.5t207 47.5q36 -1 71 -7t70 -14l-24 -222q-18 5 -37 8t-38 3q-48 0 -84.5 -19t-59.5 -53t-32 -80zM717 1082l-37 -208h-601l37 208h601zM931 0h-277l191 1128q19 136 83 232.5t168.5 148t242.5 50.5q78 -1 153 -19.5
t149 -41.5l-64 -234q-57 21 -116 34.5t-121 13.5q-89 0 -144.5 -48t-70.5 -135zM1304 1082l-36 -208h-605l36 208h605zM1703 1082l-188 -1082h-278l188 1082h278z" />
    <glyph glyph-name="uniFB04" unicode="ffl" horiz-adv-x="1738" 
d="M347 0h-278l201 1177q15 114 67 201.5t139.5 136t206.5 46.5q37 -1 72 -7t70 -15l-24 -221q-18 5 -37 8t-39 3q-47 0 -83.5 -19t-59.5 -53t-32 -80zM717 1082l-37 -208h-601l37 208h601zM931 0h-277l196 1162q17 128 78.5 216.5t160.5 134.5t227 46q76 -1 153 -6.5
t154 -13.5t153 -16l-138 -230q-74 13 -148.5 24t-147.5 11q-55 0 -99 -18.5t-73 -55t-39 -90.5zM1237 0l264 1524h279l-265 -1524h-278zM1307 1082l-37 -208h-607l36 208h608z" />
    <glyph glyph-name=".notdef" horiz-adv-x="866" 
d="M725 1456v-54h-598v54h598zM152 1456v-1456h-50v1456h50zM754 1456v-1456h-50v1456h50zM725 54v-54h-598v54h598zM725 1426l-545 -1396h-54l546 1396h53zM672 30l-546 1396h54l545 -1396h-53z" />
    <glyph glyph-name="glyph1" horiz-adv-x="0" 
 />
    <glyph glyph-name="glyph1" horiz-adv-x="0" 
 />
    <glyph glyph-name="uni000D" unicode="&#xd;" horiz-adv-x="486" 
 />
    <glyph glyph-name="uni0002" horiz-adv-x="0" 
 />
    <glyph glyph-name="space" unicode=" " horiz-adv-x="486" 
 />
    <glyph glyph-name="exclam" unicode="!" horiz-adv-x="527" 
d="M567 1456l-207 -1010h-231l143 1010h295zM37 129q-1 67 43 112t110 46q64 1 108 -41t45 -106q0 -66 -43.5 -111.5t-110.5 -46.5q-64 -1 -107.5 41t-44.5 106z" />
    <glyph glyph-name="quotedbl" unicode="&#x22;" horiz-adv-x="635" 
d="M405 1537l-24 -151l-99 -396h-161l62 396l24 151h198zM720 1537l-25 -151l-98 -396h-160l64 405l22 142h197z" />
    <glyph glyph-name="numbersign" unicode="#" horiz-adv-x="1113" 
d="M94 0l480 1456h178l-479 -1456h-179zM426 0l479 1456h179l-479 -1456h-179zM1109 869h-931l30 171h931zM961 410h-930l30 171h930z" />
    <glyph glyph-name="dollar" unicode="$" horiz-adv-x="1072" 
d="M815 1688l-48 -297h-150l47 297h151zM539 55l-43 -270h-150l43 270h150zM673 391q6 52 -8 92.5t-45 71t-76 53.5q-97 52 -175.5 110t-121.5 140t-35 205q8 125 72 219.5t166 146t227 48.5q102 -2 174 -40.5t117 -104.5t64.5 -150t15.5 -176h-277q1 32 -0.5 73t-12 79
t-35.5 63.5t-69 25.5q-52 2 -87.5 -25t-55.5 -69.5t-25 -88.5q-7 -52 8.5 -91t47.5 -68.5t75 -53.5q95 -53 173 -112.5t121 -141.5t35 -204q-9 -130 -74.5 -224t-170.5 -143.5t-233 -47.5q-106 2 -184 39.5t-128 102t-73 151t-19 185.5h277q-2 -40 2 -83t18.5 -80t45 -60.5
t80.5 -23.5q53 -1 92.5 24t63.5 66.5t30 91.5z" />
    <glyph glyph-name="percent" unicode="%" horiz-adv-x="1369" 
d="M183 1099l6 76q8 87 48.5 156t108.5 108.5t158 38.5q87 -2 146 -43t88 -108.5t23 -150.5l-6 -77q-8 -85 -48.5 -154t-108.5 -108t-157 -38q-85 2 -145 42.5t-89 108t-24 149.5zM376 1176l-9 -80q-2 -28 3.5 -59t23 -52t53.5 -22q37 -1 62.5 19.5t40.5 52.5t19 64l10 78
q3 29 -2 60.5t-23 53.5t-55 23t-63 -20t-41 -53.5t-19 -64.5zM658 280l6 77q8 86 49 154.5t109 108.5t158 38q87 -2 146 -43t87.5 -108t23.5 -150l-6 -77q-9 -86 -49 -155t-107.5 -108.5t-157.5 -37.5q-86 2 -145.5 42.5t-89 108.5t-24.5 150zM851 357l-9 -80
q-2 -28 4 -58.5t24 -52.5t52 -23q40 -2 65.5 18t39.5 52.5t19 66.5l9 78q3 28 -2.5 59.5t-23 53.5t-53.5 23q-38 1 -64 -19.5t-41.5 -52.5t-19.5 -65zM1181 1238l-824 -1126l-131 82l823 1127z" />
    <glyph glyph-name="ampersand" unicode="&#x26;" horiz-adv-x="1228" 
d="M329 779l281 182q46 31 78 71.5t38 97.5q4 43 -17.5 81t-69.5 38q-42 1 -71 -23t-47 -60.5t-23 -72.5q-7 -53 12 -104.5t48 -99t55 -90.5l485 -799h-298l-391 646q-39 66 -76 137.5t-59.5 147.5t-16.5 156q8 110 60 200t139 141.5t202 48.5q91 -2 162 -46t109.5 -118
t33.5 -166q-4 -71 -33.5 -131t-75.5 -109.5t-102 -88.5l-330 -228q-26 -24 -46.5 -55t-34.5 -66t-18 -69q-5 -45 6 -88t40.5 -72.5t79.5 -32.5q97 -5 175 42t135 124.5t92 167.5t45 171l233 1q-9 -107 -40.5 -208.5t-88.5 -189.5t-142 -157q-10 -7 -19 -14.5t-19 -15.5
q-88 -69 -188 -110t-215 -38q-117 2 -205.5 53.5t-135.5 142t-39 208.5q6 91 49 162.5t108 128t135 104.5z" />
    <glyph glyph-name="quotesingle" unicode="'" horiz-adv-x="321" 
d="M414 1536l-25 -159l-89 -388h-179l62 391l25 156h206z" />
    <glyph glyph-name="parenleft" unicode="(" horiz-adv-x="668" 
d="M115 565l3 23q20 141 63.5 294.5t115.5 297.5t176 259.5t244 180.5l42 -158q-97 -80 -166 -180.5t-116.5 -214t-77.5 -233.5t-47 -241l-4 -27q-13 -95 -23 -214t-3 -242.5t43.5 -232.5t115.5 -184l-63 -149q-121 74 -190 195t-98.5 266t-30 290.5t15.5 269.5z" />
    <glyph glyph-name="parenright" unicode=")" horiz-adv-x="670" 
d="M563 597l-3 -23q-20 -142 -66 -296t-120 -298.5t-180 -259.5t-248 -178l-43 154q96 82 165.5 182.5t117 214.5t77.5 234.5t48 240.5l4 27q13 94 22.5 213.5t2.5 243t-43 232.5t-114 182l63 151q121 -73 192 -193.5t103.5 -265.5t35 -291t-13.5 -270z" />
    <glyph glyph-name="asterisk" unicode="*" horiz-adv-x="902" 
d="M137 701l255 269l-290 89l85 170l287 -128l43 355h190l-81 -348l310 119l27 -190l-329 -90l161 -271l-161 -103l-127 292l-224 -279z" />
    <glyph glyph-name="plus" unicode="+" horiz-adv-x="1014" 
d="M988 814l-45 -256h-892l44 256h893zM743 1206l-184 -1060h-263l184 1060h263z" />
    <glyph glyph-name="comma" unicode="," horiz-adv-x="487" 
d="M312 245l-32 -194q-19 -124 -85.5 -230.5t-164.5 -183.5l-145 80q31 52 62.5 101.5t55.5 102.5t36 115l36 209h237z" />
    <glyph glyph-name="hyphen" unicode="-" horiz-adv-x="749" 
d="M651 739l-41 -229h-512l41 229h512z" />
    <glyph glyph-name="period" unicode="." horiz-adv-x="577" 
d="M43 135q-2 69 44.5 114t114.5 46q65 1 111 -40.5t47 -108.5q1 -68 -45.5 -113t-114.5 -45q-64 -1 -110 40t-47 107z" />
    <glyph glyph-name="slash" unicode="/" horiz-adv-x="698" 
d="M822 1456l-746 -1581h-214l747 1581h213z" />
    <glyph glyph-name="zero" unicode="0" horiz-adv-x="1072" 
d="M1022 856l-39 -252q-16 -112 -52 -223.5t-98 -204t-156 -146.5t-227 -50q-102 2 -170.5 41t-110.5 103t-61 144t-21 166.5t9 168.5l38 253q16 112 52 223t98.5 202.5t156.5 145t227 49.5q102 -2 170.5 -40.5t110 -102t61 -143.5t21 -166t-8.5 -168zM701 565l49 332
q3 30 8 73t4.5 90.5t-10.5 89.5t-35 69.5t-71 29.5q-66 4 -108 -32t-66 -93t-36.5 -119t-19.5 -109l-48 -332q-3 -29 -8 -72.5t-5 -91.5t9.5 -91t35 -71t71.5 -31q66 -3 108 33.5t66.5 94.5t37 120.5t18.5 109.5z" />
    <glyph glyph-name="one" unicode="1" horiz-adv-x="1072" 
d="M879 1459l-246 -1459h-277l193 1115l-321 -107l42 241l574 210h35z" />
    <glyph glyph-name="two" unicode="2" horiz-adv-x="1072" 
d="M937 229l-36 -229h-900l32 206l488 493q43 47 90.5 101.5t83.5 116.5t45 129q6 44 -1.5 91t-34.5 79.5t-83 33.5q-67 3 -110.5 -36.5t-66.5 -98t-30 -114.5l-275 -2q9 135 77.5 244.5t179.5 173t249 61.5q122 -2 212 -52t135.5 -140.5t34.5 -214.5q-7 -88 -43.5 -165.5
t-89.5 -146.5t-114.5 -131.5t-119.5 -121.5l-260 -276z" />
    <glyph glyph-name="three" unicode="3" horiz-adv-x="1072" 
d="M399 855l130 -2q64 2 110.5 29t74 74.5t34.5 109.5q6 46 -5.5 87.5t-41.5 68.5t-82 28q-51 1 -88.5 -22.5t-61.5 -62.5t-33 -84l-277 -2q8 122 75 212.5t170.5 139t222.5 47.5q123 -2 216.5 -51.5t144.5 -140.5t42 -217q-5 -88 -46 -157t-105.5 -116.5t-143.5 -72
t-161 -24.5l-200 1zM364 632l24 151l172 -1q84 -2 156.5 -25.5t126 -69t81 -113t21.5 -158.5q-6 -102 -50 -184.5t-115 -139t-161 -85.5t-189 -28q-93 3 -168 34t-128 86.5t-80 132t-25 168.5l276 -1q-1 -47 13.5 -90t48 -70.5t87.5 -28.5q61 -2 107.5 26.5t75.5 77
t35 106.5q7 58 -6 104.5t-48.5 75t-98.5 31.5z" />
    <glyph glyph-name="four" unicode="4" horiz-adv-x="1072" 
d="M1003 546l-40 -229h-941l20 192l691 947h235l-311 -432l-330 -477zM1020 1456l-252 -1456h-278l253 1456h277z" />
    <glyph glyph-name="five" unicode="5" horiz-adv-x="1072" 
d="M371 663l-225 58l191 735h740l-37 -237h-509l-91 -319q42 27 90.5 41t97.5 15q102 -1 170.5 -42.5t108.5 -111t54.5 -155t7.5 -172.5q-9 -103 -48 -194t-105 -159.5t-155 -107t-196 -35.5q-92 2 -166 35t-127 91t-81 135t-28 165h274q2 -46 15 -90.5t44 -74t85 -30.5
q56 -2 94.5 24.5t62.5 69.5t37 92.5t17 94.5q4 41 0.5 85t-19.5 81.5t-47.5 61t-83.5 23.5q-52 1 -94 -20t-77 -59z" />
    <glyph glyph-name="six" unicode="6" horiz-adv-x="1072" 
d="M888 1472h45l-24 -235l-11 1q-107 2 -192.5 -34t-149 -101t-103.5 -151.5t-54 -186.5l-33 -245q-4 -37 -4.5 -89t9.5 -102t38.5 -84t83.5 -36q52 -1 90.5 25t64.5 68.5t40 91t19 91.5q4 36 1 81t-17.5 86t-43 68t-76.5 27q-60 2 -105.5 -29t-74.5 -80.5t-41 -103.5
l-76 58q10 77 43 146.5t84 123.5t119 84.5t151 28.5q97 -2 161 -47.5t100 -118t48 -157t5 -165.5q-9 -101 -48.5 -193t-105.5 -164t-155 -112.5t-196 -38.5q-117 3 -196 55t-125 137t-62 186t-5 201l15 112q21 159 81 303t158.5 256.5t233.5 177t308 65.5z" />
    <glyph glyph-name="seven" unicode="7" horiz-adv-x="1072" 
d="M1123 1456l-27 -171l-692 -1285h-303l689 1227h-631l37 229h927z" />
    <glyph glyph-name="eight" unicode="8" horiz-adv-x="1072" 
d="M942 408q-9 -134 -76.5 -231.5t-176 -148.5t-239.5 -48q-120 2 -212 53t-140 142.5t-39 215.5q6 97 48.5 174t110.5 131.5t153.5 82.5t179.5 26q115 -2 206.5 -51.5t142 -138t42.5 -207.5zM669 428q5 46 -5 93t-39.5 79t-84.5 34q-61 1 -103.5 -32.5t-66.5 -85
t-30 -105.5q-5 -46 5.5 -93t40.5 -78t85 -32q61 -2 103 30.5t65.5 84t29.5 105.5zM1034 1078q-8 -121 -74 -208t-168 -134t-218 -45q-106 3 -192.5 48.5t-135 128t-42.5 193.5q8 127 70.5 221.5t164.5 146t228 48.5q117 -2 202.5 -53t129 -140t35.5 -206zM753 1064
q4 39 -3 82t-31.5 73t-72.5 30q-54 1 -89.5 -30t-54.5 -78t-24 -92q-4 -40 3 -83.5t31 -74.5t74 -32q54 0 89.5 31.5t54.5 79.5t23 94z" />
    <glyph glyph-name="nine" unicode="9" horiz-adv-x="1072" 
d="M216 222h12q104 -1 186 29t142 87t97 137.5t51 180.5l38 279q4 35 5 86.5t-8.5 103t-36.5 87t-79 36.5q-51 2 -87.5 -27.5t-61 -76t-37.5 -97t-17 -89.5q-4 -36 -2 -81.5t14.5 -88.5t40 -71.5t76.5 -28.5q44 -1 79.5 18t62 51.5t43.5 71.5t24 77l85 -54
q-8 -70 -39 -138.5t-81 -123.5t-115 -88t-142 -31q-97 1 -163 45t-104 115.5t-51.5 155.5t-5.5 168q9 100 47.5 194t104.5 169t154.5 118.5t196.5 40.5q117 -2 193.5 -58t118 -144.5t54.5 -191.5t2 -200l-13 -100q-17 -131 -58.5 -249.5t-106.5 -218.5t-155.5 -174
t-205.5 -115t-257 -42h-26z" />
    <glyph glyph-name="colon" unicode=":" horiz-adv-x="561" 
d="M43 135q-2 69 44.5 114t114.5 46q65 1 111 -40.5t47 -108.5q1 -68 -45.5 -113t-114.5 -45q-64 -1 -110 40t-47 107zM184 957q-2 69 44.5 114t114.5 46q65 1 111 -40.5t47 -108.5q1 -68 -45.5 -113t-114.5 -45q-64 -1 -110 40t-47 107z" />
    <glyph glyph-name="semicolon" unicode=";" horiz-adv-x="524" 
d="M169 957q-2 69 44.5 114t114.5 46q65 1 111 -40.5t47 -108.5q1 -68 -45.5 -113t-114.5 -45q-64 -1 -110 40t-47 107zM334 245l-32 -194q-19 -124 -85.5 -230.5t-164.5 -183.5l-145 80q31 52 62.5 101.5t55.5 102.5t36 115l36 209h237z" />
    <glyph glyph-name="less" unicode="&#x3c;" horiz-adv-x="950" 
d="M268 642l528 -232l-46 -264l-710 367l33 184zM867 822l-580 -225l-242 -59l36 206l836 365z" />
    <glyph glyph-name="equal" unicode="=" horiz-adv-x="1070" 
d="M1002 981l-41 -232h-806l41 232h806zM927 549l-41 -233h-805l40 233h806z" />
    <glyph glyph-name="greater" unicode="&#x3e;" horiz-adv-x="964" 
d="M690 604l-533 231l46 262l718 -367l-32 -186zM85 419l585 226l247 60l-36 -206l-846 -366z" />
    <glyph glyph-name="question" unicode="?" horiz-adv-x="939" 
d="M540 447l-240 -2q6 79 25.5 145.5t56.5 125t97 111.5q39 35 78.5 73t68 82.5t36.5 100.5q6 37 1 74.5t-26.5 63t-66.5 27.5q-49 0 -81.5 -26.5t-51 -67.5t-26.5 -81l-277 -2q12 126 72 218.5t158.5 141t225.5 46.5q115 -3 199.5 -50t127 -132t33.5 -202
q-8 -91 -50.5 -162.5t-104.5 -130t-126 -115.5q-57 -49 -86.5 -106.5t-42.5 -131.5zM209 133q0 67 44 112t110 46q65 1 108.5 -41t44.5 -106q0 -67 -44 -111.5t-110 -45.5q-64 -1 -108 40.5t-45 105.5z" />
    <glyph glyph-name="at" unicode="@" horiz-adv-x="1651" 
d="M1561 541q-15 -91 -48.5 -191t-90 -185.5t-138.5 -137.5t-193 -49q-65 2 -109.5 31t-69.5 76t-32 103.5t0 113.5l142 579h194l-140 -579q-5 -21 -8 -49t0 -54t18 -43.5t47 -19.5q64 -3 109.5 40t75.5 110t47 134.5t24 114.5q17 99 19 200t-17.5 193.5t-66.5 165.5
t-129 116t-205 46q-128 2 -234.5 -43.5t-192 -126.5t-149.5 -185t-106.5 -218t-62.5 -225q-19 -99 -22 -202t15.5 -198t66 -171.5t130 -121.5t206.5 -46q81 -1 159.5 18t152.5 51l25 -155q-73 -49 -163 -68t-177 -18q-156 2 -268.5 53t-184.5 140.5t-108 205t-40.5 247
t17.5 266.5q25 140 79 278.5t136 262t191 218t242.5 148t289.5 51.5q148 -3 255.5 -53t178 -136t107 -197.5t43 -236.5t-14.5 -253zM656 423q-5 -26 -10.5 -69t-3.5 -87.5t19.5 -76.5t59.5 -34q38 -2 67.5 23t51.5 62.5t37.5 76t25.5 65.5l70 -102q-20 -54 -49 -108t-69 -98
t-92 -70.5t-117 -24.5q-83 3 -130.5 48.5t-67.5 114.5t-20 143.5t11 136.5q13 72 40.5 151.5t69.5 154t98.5 134.5t128.5 95t158 33q84 -1 149 -32t129 -80l-106 -138q-31 35 -69.5 55.5t-87.5 21.5q-74 3 -125.5 -36.5t-85 -101.5t-53 -131t-29.5 -126z" />
    <glyph glyph-name="A" unicode="A" horiz-adv-x="1260" 
d="M766 1187l-546 -1187h-316l736 1456h201zM843 0l-140 1215l14 241h190l233 -1456h-297zM931 542l-42 -238h-695l43 238h694z" />
    <glyph glyph-name="B" unicode="B" horiz-adv-x="1191" 
d="M654 637h-339l35 209l262 -2q63 1 115.5 21.5t87 62.5t43.5 108q9 59 -5.5 98t-51 60t-94.5 22l-191 1l-211 -1217h-289l252 1456l449 -1q93 -2 174.5 -24.5t142.5 -69.5t93.5 -120t25.5 -176q-8 -113 -64 -189t-145.5 -116t-196.5 -46zM536 0h-418l153 237l276 -1
q63 2 113 26t82 68.5t40 108.5q8 51 0 94.5t-38 71.5t-87 31l-278 1l38 209l314 -1l50 -81q96 -5 162.5 -46.5t98.5 -113.5t25 -168q-10 -150 -83 -246.5t-190.5 -143.5t-257.5 -46z" />
    <glyph glyph-name="C" unicode="C" horiz-adv-x="1216" 
d="M840 483l281 4q-17 -157 -96.5 -272t-205 -177t-283.5 -58q-139 3 -231.5 60t-144 151.5t-66.5 211t1 238.5l26 174q19 128 67 248t127 214.5t190.5 148.5t254.5 51q157 -3 258 -70t151 -182t53 -263l-288 1q2 75 -11 136.5t-54.5 98.5t-127.5 40q-87 3 -146.5 -35
t-96.5 -101.5t-57 -138.5t-30 -146l-25 -177q-7 -59 -11.5 -130.5t7 -136.5t51.5 -108.5t122 -46.5q89 -4 146.5 29.5t90.5 94.5t48 141z" />
    <glyph glyph-name="D" unicode="D" horiz-adv-x="1207" 
d="M433 0h-295l44 238l263 -2q127 -1 208.5 56.5t126 152.5t61.5 210l21 149q9 70 8.5 141.5t-20 131.5t-68 98t-135.5 41l-303 1l42 239l272 -1q138 -3 238.5 -56.5t162.5 -145t85 -207.5t8 -244l-21 -148q-20 -138 -76.5 -257.5t-146 -208.5t-209 -139t-266.5 -49z
M557 1456l-252 -1456h-289l252 1456h289z" />
    <glyph glyph-name="E" unicode="E" 
d="M938 238l-42 -238h-684l41 238h685zM557 1456l-252 -1456h-289l252 1456h289zM957 864l-41 -231h-594l40 231h595zM1147 1456l-42 -239h-682l42 239h682z" />
    <glyph glyph-name="F" unicode="F" horiz-adv-x="1018" 
d="M557 1456l-252 -1456h-289l252 1456h289zM953 836l-42 -238h-580l42 238h580zM1121 1456l-42 -239h-640l42 239h640z" />
    <glyph glyph-name="G" unicode="G" horiz-adv-x="1258" 
d="M1188 763l-92 -589q-62 -73 -151 -115.5t-187.5 -61t-189.5 -17.5q-142 2 -238.5 58t-152 149.5t-73.5 211.5t-2 244l25 169q19 132 67.5 252.5t127.5 214.5t191.5 147.5t258.5 50.5q153 -3 253 -62.5t150.5 -166.5t56.5 -254h-279q-2 68 -19 122.5t-57.5 87.5t-116.5 36
q-87 3 -148 -35.5t-100 -102t-61.5 -139.5t-32.5 -148l-25 -173q-8 -65 -9 -137.5t17 -137.5t64 -106t132 -42q41 -1 77.5 6t71 21.5t66.5 35.5l51 264h-235l38 217h522z" />
    <glyph glyph-name="H" unicode="H" horiz-adv-x="1311" 
d="M1030 864l-42 -237h-660l42 237h660zM557 1456l-252 -1456h-289l252 1456h289zM1339 1456l-253 -1456h-287l253 1456h287z" />
    <glyph glyph-name="I" unicode="I" horiz-adv-x="558" 
d="M572 1456l-253 -1456h-288l253 1456h288z" />
    <glyph glyph-name="J" unicode="J" horiz-adv-x="1042" 
d="M615 447l171 1009h289l-172 -1008q-18 -133 -84.5 -240.5t-174 -169t-246.5 -59.5q-136 3 -224.5 61.5t-129.5 159t-34 230.5l290 -1q-3 -47 3 -95.5t32 -81.5t86 -35q62 -2 102 34t62 90t30 106z" />
    <glyph glyph-name="K" unicode="K" horiz-adv-x="1181" 
d="M557 1456l-252 -1456h-289l252 1456h289zM1340 1456l-639 -727l-367 -361l-3 310l250 305l388 473h371zM755 0l-250 682l234 179l343 -861h-327z" />
    <glyph glyph-name="L" unicode="L" horiz-adv-x="1013" 
d="M905 238l-42 -238h-650l41 238h651zM557 1456l-252 -1456h-289l252 1456h289z" />
    <glyph glyph-name="M" unicode="M" horiz-adv-x="1622" 
d="M404 1456h235l132 -1058l499 1058h253l-713 -1456h-198zM268 1456h244l-139 -1063l-69 -393h-288zM1405 1456h245l-252 -1456h-290l74 418z" />
    <glyph glyph-name="N" unicode="N" horiz-adv-x="1309" 
d="M1338 1456l-253 -1456h-281l-329 978l-170 -978h-289l252 1456h282l330 -979l170 979h288z" />
    <glyph glyph-name="O" unicode="O" horiz-adv-x="1285" 
d="M1230 804l-22 -156q-20 -131 -70 -252.5t-130.5 -216t-194 -148.5t-259.5 -51q-139 3 -234 60.5t-149 152.5t-71.5 212.5t-2.5 240.5l22 155q20 132 69.5 254t131 218t195.5 151.5t260 51.5q140 -3 234.5 -61.5t148.5 -155t70.5 -215t1.5 -240.5zM917 646l23 159
q7 59 9.5 131.5t-12.5 139.5t-57 111.5t-125 47.5q-88 4 -149.5 -35t-101 -105t-62 -143t-32.5 -148l-22 -159q-8 -60 -9.5 -131.5t14 -137.5t58 -109.5t123.5 -46.5q87 -4 148 35t101 103t62.5 140t31.5 148z" />
    <glyph glyph-name="P" unicode="P" horiz-adv-x="1205" 
d="M637 515l-341 1l42 239l311 -2q70 1 124.5 29.5t88 79t42.5 121.5q9 55 -2.5 107.5t-46 87t-97.5 38.5l-242 1l-211 -1217h-289l252 1456l501 -1q136 -3 236.5 -63.5t151 -165t38.5 -241.5q-13 -153 -90.5 -257.5t-200 -159t-267.5 -53.5z" />
    <glyph glyph-name="Q" unicode="Q" horiz-adv-x="1285" 
d="M756 219l317 -324l-197 -155l-311 323zM1229 804l-22 -148q-18 -131 -68 -254t-131 -219t-194.5 -151t-260.5 -52q-141 3 -236 61.5t-148.5 155t-70.5 215.5t-2 242l22 148q19 131 69 253t131 218t195 151t260 52q140 -2 235 -60.5t149 -155t70.5 -215.5t1.5 -241z
M918 654l21 151q7 59 9.5 131.5t-13 139.5t-57.5 111.5t-124 47.5q-89 4 -150.5 -35t-101 -105t-62 -143t-32.5 -148l-21 -151q-7 -59 -9.5 -132t12.5 -140.5t57.5 -112.5t124.5 -48q88 -4 149.5 36t101.5 106t62.5 143t32.5 149z" />
    <glyph glyph-name="R" unicode="R" horiz-adv-x="1186" 
d="M268 1456l476 -1q132 -3 231 -52.5t151 -144.5t41 -233q-9 -114 -51.5 -196t-116 -140.5t-172.5 -101.5l-100 -51h-428l41 239l284 -2q70 1 123.5 29.5t87 79.5t42.5 120q7 56 -3.5 103.5t-45 77.5t-95.5 33l-217 1l-211 -1217h-289zM738 0l-179 649l292 1l196 -634
l-1 -16h-308z" />
    <glyph glyph-name="S" unicode="S" horiz-adv-x="1148" 
d="M750 389q8 49 -5.5 84t-41 60.5t-64.5 44.5t-77 36q-74 32 -142.5 72t-122.5 93t-83 122.5t-23 160.5q7 102 55 180.5t124.5 131.5t169 78.5t186.5 23.5q134 -3 231.5 -60t149.5 -157.5t47 -232.5l-287 1q3 58 -11.5 106t-51 77.5t-101.5 30.5q-56 1 -104 -20.5t-81 -62
t-42 -97.5q-6 -43 11.5 -75.5t48.5 -57t67.5 -42.5t69.5 -31q79 -33 148 -74.5t120.5 -96t77 -126.5t19.5 -166q-8 -106 -54 -183.5t-119.5 -129t-164 -76.5t-188.5 -24q-106 3 -194.5 37t-151.5 97t-96 150.5t-29 194.5l289 -1q-3 -53 6 -98t33 -77.5t64 -50t98 -17.5
q56 0 102.5 20t77.5 59t39 96z" />
    <glyph glyph-name="T" unicode="T" horiz-adv-x="1155" 
d="M867 1456l-253 -1456h-288l253 1456h288zM1260 1456l-42 -239h-1067l42 239h1067z" />
    <glyph glyph-name="U" unicode="U" horiz-adv-x="1222" 
d="M975 1456h289l-167 -980q-22 -154 -97.5 -267t-196.5 -172.5t-279 -57.5q-148 3 -251.5 65t-152 172.5t-30.5 258.5l167 981h288l-165 -982q-8 -68 2 -125t48 -93t115 -38q82 -3 137 29.5t85.5 92t41.5 135.5z" />
    <glyph glyph-name="V" unicode="V" horiz-adv-x="1223" 
d="M549 320l471 1136h329l-678 -1456h-217zM463 1456l117 -1161l-2 -295h-207l-220 1456h312z" />
    <glyph glyph-name="W" unicode="W" horiz-adv-x="1613" 
d="M377 238l441 1218h153l13 -211l-463 -1245h-168zM457 1456l15 -1246l-55 -210h-186l-56 1456h282zM1030 241l394 1215h290l-509 -1456h-185zM1061 1456l63 -1251l-43 -205h-166l-76 1272l66 184h156z" />
    <glyph glyph-name="X" unicode="X" horiz-adv-x="1187" 
d="M494 1456l149 -503l307 503h342l-492 -735l261 -721h-321l-153 512l-315 -512h-346l505 747l-256 709h319z" />
    <glyph glyph-name="Y" unicode="Y" horiz-adv-x="1154" 
d="M466 1456l139 -657l369 657h327l-593 -941l-88 -515h-294l95 544l-259 912h304z" />
    <glyph glyph-name="Z" unicode="Z" horiz-adv-x="1129" 
d="M1007 238l-41 -238h-922l41 238h922zM1174 1274l-995 -1274h-210l32 187l1001 1269h204zM1108 1456l-41 -239h-890l42 239h889z" />
    <glyph glyph-name="bracketleft" unicode="[" horiz-adv-x="537" 
d="M681 1694l-35 -220h-120l-249 -1594h121l-34 -218h-398l317 2032h398z" />
    <glyph glyph-name="backslash" unicode="\" horiz-adv-x="798" 
d="M426 -125l-268 1581h273l269 -1581h-274z" />
    <glyph glyph-name="bracketright" unicode="]" horiz-adv-x="537" 
d="M159 1474l35 220h398l-318 -2032h-399l36 218h120l249 1594h-121z" />
    <glyph glyph-name="asciicircum" unicode="^" horiz-adv-x="823" 
d="M526 1199l-235 -470h-229l394 727h165zM590 729l-76 496l-5 231h148l140 -727h-207z" />
    <glyph glyph-name="underscore" unicode="_" horiz-adv-x="839" 
d="M725 0l-39 -222h-819l39 222h819z" />
    <glyph glyph-name="grave" unicode="`" horiz-adv-x="657" 
d="M497 1536l144 -308h-214l-221 307z" />
    <glyph glyph-name="a" unicode="a" horiz-adv-x="1000" 
d="M560 246l78 494q4 37 -1.5 71t-26.5 56t-65 23q-42 1 -71.5 -16t-48 -46.5t-25.5 -67.5l-277 -2q5 86 45.5 151t104.5 108.5t141.5 65t156.5 20.5q110 -2 192 -47t123 -126.5t30 -195.5l-76 -473q-9 -59 -14.5 -122.5t15.5 -120.5l-2 -18l-272 -1q-17 60 -16.5 123
t9.5 124zM666 660l-27 -166l-116 1q-41 -1 -78.5 -12.5t-68 -34.5t-50 -56t-25.5 -77q-4 -31 3.5 -58t28 -43.5t54.5 -17.5q44 -1 85 16.5t71 50t39 75.5l54 -118q-20 -51 -51 -95.5t-72 -77.5t-90.5 -51.5t-108.5 -17.5q-89 1 -157.5 43.5t-106 114t-33.5 159.5
q5 102 49 172t115 112.5t157.5 62t176.5 19.5z" />
    <glyph glyph-name="b" unicode="b" horiz-adv-x="1051" 
d="M267 1536h277l-226 -1301l-64 -235h-254zM978 570l-5 -47q-12 -95 -40.5 -192.5t-79.5 -178t-131 -128.5t-194 -45q-96 3 -156.5 55t-92 132.5t-41.5 169.5t-6 166l9 76q15 84 47 176t84.5 172.5t127.5 130t175 46.5q110 -2 174.5 -52t95.5 -129.5t36.5 -172t-3.5 -179.5
zM696 522l5 47q3 40 6.5 91.5t-4 99.5t-35.5 80t-85 33q-55 3 -95 -18.5t-67.5 -58.5t-44 -83t-24.5 -91l-22 -162q-5 -56 2.5 -113t40 -96t101.5 -42q65 -3 106 26t64 77t34.5 103.5t17.5 106.5z" />
    <glyph glyph-name="c" unicode="c" horiz-adv-x="975" 
d="M447 208q51 -1 86 21t56 60t29 83l260 1q-9 -117 -70.5 -206.5t-158.5 -139.5t-214 -47q-116 2 -193.5 46.5t-122.5 119.5t-60.5 170t-5.5 197l6 54q13 108 51 205.5t102.5 173t155.5 117.5t210 39q124 -2 205 -59.5t120 -152t35 -211.5l-261 1q1 45 -7.5 89t-36 73.5
t-80.5 31.5q-63 2 -103 -26.5t-63 -76t-34 -101.5t-17 -103l-5 -55q-4 -39 -7.5 -90.5t4 -99.5t34.5 -80.5t85 -33.5z" />
    <glyph glyph-name="d" unicode="d" horiz-adv-x="1051" 
d="M608 252l222 1284h279l-266 -1536h-250zM50 512l5 46q12 94 41.5 191t82 178.5t133 130t193.5 45.5q96 -4 155.5 -57.5t91 -135t41.5 -171t7 -165.5l-10 -76q-15 -81 -47.5 -172.5t-86 -171t-128.5 -129t-173 -46.5q-106 3 -170.5 53.5t-96.5 131t-39 172t1 176.5z
M335 559l-5 -47q-4 -39 -6 -89.5t6 -98.5t35.5 -80.5t83.5 -34.5q69 -2 116.5 34.5t75 93.5t37.5 117l23 161q4 40 0.5 84t-17.5 82.5t-43.5 64t-79.5 26.5q-62 4 -103.5 -26t-66.5 -78.5t-38 -104t-18 -104.5z" />
    <glyph glyph-name="e" unicode="e" horiz-adv-x="1012" 
d="M474 -20q-110 2 -193 42t-135.5 110.5t-75 162t-13.5 195.5l7 65q12 109 51 208t105 177t158.5 121.5t212.5 40.5q112 -2 187 -47t117 -120.5t55.5 -168.5t1.5 -192l-18 -124h-770l33 195l490 -1l5 26q7 49 -0.5 95t-36.5 76.5t-86 33.5q-64 2 -106 -28.5t-66.5 -79.5
t-37 -105.5t-18.5 -106.5l-7 -65q-6 -49 -1.5 -98t22.5 -89.5t54 -66t95 -26.5q75 -2 138.5 28.5t116.5 80.5l110 -162q-43 -62 -108 -101.5t-139.5 -58t-147.5 -17.5z" />
    <glyph glyph-name="f" unicode="f" horiz-adv-x="681" 
d="M347 0h-278l201 1177q14 114 66.5 201t139.5 135.5t206 46.5q37 -1 72.5 -6.5t70.5 -14.5l-24 -221q-18 4 -37 7t-38 4q-48 0 -84.5 -19t-59.5 -53t-32 -80zM722 1082l-36 -208h-607l37 208h606z" />
    <glyph glyph-name="g" unicode="g" horiz-adv-x="1067" 
d="M794 1082h254l-182 -1063q-18 -143 -90 -244t-185 -153.5t-257 -48.5q-64 2 -128 19.5t-120.5 50.5t-99.5 83l126 179q42 -51 99 -80.5t124 -30.5q72 -2 124.5 25t84.5 77.5t44 119.5l140 830zM54 508l5 47q11 96 42.5 194t86.5 179.5t137.5 129.5t196.5 44
q102 -3 162.5 -54.5t90.5 -131.5t38 -170.5t4 -171.5l-10 -76q-14 -83 -47 -174.5t-86 -170.5t-128 -128t-176 -46q-105 2 -171 52t-100.5 129.5t-44 170.5t-0.5 177zM337 558l-5 -47q-4 -41 -5 -92t10 -98t40.5 -78t86.5 -33q72 -4 121.5 31.5t78 92.5t38.5 120l23 161
q4 43 0.5 87.5t-18.5 82.5t-46 62t-83 25q-63 3 -106.5 -26.5t-71 -77.5t-42.5 -103.5t-21 -106.5z" />
    <glyph glyph-name="h" unicode="h" horiz-adv-x="1045" 
d="M537 1536l-266 -1536h-278l267 1536h277zM333 579l-71 -3q10 87 38.5 180t80 173t127.5 128.5t181 45.5q88 -2 144 -39t85.5 -97.5t37.5 -134t-1 -149.5l-114 -683h-278l115 686q5 46 0 88.5t-30 70t-80 28.5q-61 2 -102.5 -25t-68.5 -71.5t-42 -96.5t-22 -101z" />
    <glyph glyph-name="i" unicode="i" horiz-adv-x="513" 
d="M479 1082l-187 -1082h-278l188 1082h277zM235 1358q-1 67 43.5 110t110.5 44q63 1 107.5 -39t44.5 -105q2 -66 -42.5 -109t-110.5 -44q-63 -1 -107 38.5t-46 104.5z" />
    <glyph glyph-name="j" unicode="j" horiz-adv-x="502" 
d="M202 1082h279l-195 -1144q-13 -109 -60.5 -195t-129 -135t-198.5 -48q-37 1 -72.5 6t-70.5 13l25 225q20 -4 40.5 -8t40.5 -4q45 0 74.5 19.5t46.5 52.5t25 73zM231 1358q-1 66 43 109.5t110 43.5q64 1 108.5 -38.5t44.5 -104.5q1 -67 -43 -109.5t-110 -43.5
q-63 -1 -107.5 38.5t-45.5 104.5z" />
    <glyph glyph-name="k" unicode="k" horiz-adv-x="1005" 
d="M544 1537l-267 -1537h-277l267 1537h277zM1082 1082l-510 -540l-279 -257l-66 228l223 251l281 318h351zM603 0l-187 510l210 167l282 -677h-305z" />
    <glyph glyph-name="l" unicode="l" horiz-adv-x="513" 
d="M558 1536l-266 -1536h-278l266 1536h278z" />
    <glyph glyph-name="m" unicode="m" horiz-adv-x="1598" 
d="M424 842l-146 -842h-278l188 1082h260zM342 579l-73 -3q10 93 39 187.5t81 172t131 124t188 43.5q80 -2 131 -36t78.5 -89t35 -121.5t0.5 -134.5l-120 -722h-277l115 690q5 43 1 85t-26.5 69.5t-75.5 29.5q-58 2 -98.5 -26t-66.5 -73.5t-41.5 -97.5t-21.5 -98zM915 609
l-96 -15q9 90 37 181t79.5 166t128 119.5t182.5 42.5q87 -2 141.5 -39t82.5 -96.5t35 -131.5t-1 -146l-115 -690h-279l116 691q5 43 1.5 84.5t-26 69t-75.5 28.5q-53 2 -90 -23t-61.5 -65t-38.5 -86.5t-21 -89.5z" />
    <glyph glyph-name="n" unicode="n" horiz-adv-x="1045" 
d="M417 836l-145 -836h-279l188 1082h260zM333 579l-66 -3q9 91 37.5 185t81 172.5t131 125.5t186.5 44q88 -3 141.5 -40t80 -97t33 -132t-1.5 -145l-115 -689h-278l116 692q5 47 -0.5 88t-30.5 66.5t-80 26.5q-59 2 -100 -25.5t-68.5 -72.5t-43 -97t-23.5 -99z" />
    <glyph glyph-name="o" unicode="o" horiz-adv-x="1055" 
d="M54 514l5 46q12 109 52 207.5t107 175t160 119.5t212 40q113 -2 192.5 -47.5t127 -121.5t65 -171t7.5 -197l-5 -47q-13 -108 -53.5 -206.5t-107.5 -174t-159.5 -118t-210.5 -39.5q-113 2 -192.5 47t-127 120.5t-65 170t-7.5 196.5zM337 561l-5 -48q-3 -40 -3.5 -91.5
t10.5 -99.5t41 -80t86 -34q62 -3 104.5 26.5t69 77.5t40.5 103t20 104l4 47q4 40 4 92t-11.5 100t-41 81t-86.5 35q-61 3 -103 -27t-68.5 -79t-41 -104t-19.5 -103z" />
    <glyph glyph-name="p" unicode="p" horiz-adv-x="1051" 
d="M426 859l-221 -1275h-277l260 1498h255zM978 568l-5 -45q-11 -93 -40.5 -189.5t-82 -178t-132 -130.5t-190.5 -45q-95 2 -155.5 53t-93 129t-44 165.5t-7.5 164.5l10 83q15 85 47 177.5t85 173t128.5 130.5t176.5 47q108 -3 173.5 -53t96.5 -129.5t36.5 -172.5t-3.5 -180
zM695 523l5 47q4 39 6 89.5t-6.5 99t-36.5 81t-83 34.5q-56 2 -96 -19.5t-67 -59t-43.5 -84t-24.5 -92.5l-23 -169q-4 -55 4.5 -110t41 -92.5t99.5 -39.5q61 -2 102.5 27.5t66.5 79t37.5 104.5t17.5 104z" />
    <glyph glyph-name="q" unicode="q" horiz-adv-x="1054" 
d="M491 -416l225 1292l68 206h247l-261 -1498h-279zM51 511l5 47q12 94 41 191.5t81.5 179t133.5 129.5t194 44q97 -3 157 -55.5t91.5 -133.5t41.5 -170.5t6 -166.5l-9 -76q-15 -82 -48 -174t-86.5 -172t-128.5 -129t-174 -46q-107 3 -171.5 53.5t-96 130.5t-39 172t1.5 176
zM335 559l-5 -47q-4 -39 -6 -89.5t6.5 -99.5t35.5 -81t83 -35q72 -2 119.5 34.5t74.5 95t38 119.5l22 162q4 41 1.5 84.5t-17 82t-44 63t-81.5 26.5q-63 2 -104.5 -27.5t-66 -78.5t-38 -104.5t-18.5 -104.5z" />
    <glyph glyph-name="r" unicode="r" horiz-adv-x="692" 
d="M421 828l-144 -828h-277l188 1082h261zM741 1091l-36 -274q-23 4 -47 7t-47 3q-55 1 -97 -15.5t-72 -48t-50 -74t-30 -92.5l-52 19q9 70 29.5 154.5t58.5 161t99 125t152 48.5q24 0 46 -4.5t46 -9.5z" />
    <glyph glyph-name="s" unicode="s" horiz-adv-x="961" 
d="M574 301q7 43 -22 70t-70.5 43.5t-72.5 27.5q-56 21 -110 48t-96.5 64.5t-66.5 89.5t-20 121q4 83 41.5 146t98 106.5t134 65t150.5 19.5q105 -1 190.5 -41t136 -116.5t50.5 -186.5l-277 1q2 38 -8.5 70t-35.5 50.5t-69 17.5q-35 1 -66.5 -14t-53.5 -41.5t-28 -62.5
q-6 -31 9 -53t40.5 -36.5t53.5 -25t50 -17.5q82 -29 154.5 -68.5t116 -102.5t38.5 -163q-3 -86 -44 -149.5t-105.5 -104.5t-142 -60.5t-154.5 -18.5q-106 2 -194 46t-140 123.5t-52 190.5l262 -1q-1 -47 13.5 -81.5t46 -53.5t80.5 -19q38 -1 72.5 11.5t59 38.5t31.5 66z" />
    <glyph glyph-name="t" unicode="t" horiz-adv-x="641" 
d="M676 1082l-37 -208h-575l37 208h575zM284 1349h277l-174 -1023q-4 -31 -1.5 -55.5t17 -39t49.5 -15.5q19 0 38 2t38 5l-21 -218q-38 -12 -76 -18t-78 -5q-95 1 -151.5 43.5t-79.5 114t-14 159.5z" />
    <glyph glyph-name="u" unicode="u" horiz-adv-x="1045" 
d="M611 274l140 808h279l-188 -1082h-260zM673 485l75 2q-10 -88 -36 -179t-74 -166t-122.5 -120.5t-179.5 -42.5q-87 2 -143 36.5t-87 92t-40 128.5t-2 146l117 700h277l-117 -703q-3 -28 -1.5 -57.5t10.5 -54t29 -40.5t56 -17q81 -4 130 37t74 105.5t34 132.5z" />
    <glyph glyph-name="v" unicode="v" horiz-adv-x="948" 
d="M378 225l332 857h297l-491 -1082h-178zM381 1082l67 -884l-27 -198h-171l-153 1082h284z" />
    <glyph glyph-name="w" unicode="w" horiz-adv-x="1358" 
d="M324 296l334 786h181l-109 -333l-326 -749h-152zM379 1082l2 -813l-41 -269h-167l-56 1082h262zM871 312l268 770h274l-430 -1082h-176zM858 1082l64 -808l-28 -274h-143l-68 774l7 308h168z" />
    <glyph glyph-name="x" unicode="x" horiz-adv-x="955" 
d="M404 1082l94 -323l201 323h307l-360 -542l190 -540h-284l-105 342l-212 -342h-309l375 566l-182 516h285z" />
    <glyph glyph-name="y" unicode="y" horiz-adv-x="943" 
d="M308 137l409 945h305l-596 -1245q-26 -58 -58.5 -107.5t-75 -88t-96 -60t-120.5 -21.5q-33 0 -65 6.5t-63 14.5l22 215q9 0 18.5 -1.5t17.5 -0.5q48 -1 83 12t61.5 39.5t46.5 67.5zM387 1082l61 -794l-15 -298l-185 -20l-150 1112h289z" />
    <glyph glyph-name="z" unicode="z" horiz-adv-x="955" 
d="M818 229l-40 -229h-733l40 229h733zM924 901l-759 -901h-195l32 186l756 896h197zM858 1082l-40 -229h-687l40 229h687z" />
    <glyph glyph-name="braceleft" unicode="{" horiz-adv-x="623" 
d="M674 1599l39 -161q-92 -41 -129 -126.5t-50 -179.5l-28 -204q-14 -126 -77 -205t-160.5 -117.5t-217.5 -41.5l13 154q92 5 136 65.5t57 144.5l28 204q16 120 63 211.5t128.5 156t197.5 99.5zM456 -201l-57 -160q-105 38 -169 106.5t-89 160t-13 199.5l28 204q6 52 1 96.5
t-31.5 74t-84.5 35.5l11 155q109 -4 192 -46.5t126.5 -122t32.5 -193.5l-27 -204q-6 -54 -8.5 -113.5t16 -110.5t72.5 -81z" />
    <glyph glyph-name="bar" unicode="|" horiz-adv-x="502" 
d="M472 1456l-270 -1726h-170l270 1726h170z" />
    <glyph glyph-name="braceright" unicode="}" horiz-adv-x="623" 
d="M173 1439l62 157q104 -38 166.5 -106.5t87 -159.5t12.5 -198l-28 -205q-6 -52 -0.5 -96t31.5 -74t85 -35l-12 -152q-107 4 -190.5 46t-127 120t-33.5 192l27 205q7 54 9 113.5t-16.5 111t-72.5 81.5zM-42 -364l-42 163q62 28 98 76t54 108t28 122l27 203
q15 127 77.5 205.5t160 115.5t217.5 40l-12 -151q-92 -5 -136 -65.5t-57 -144.5l-28 -203q-16 -120 -63 -211.5t-127.5 -156t-196.5 -101.5z" />
    <glyph glyph-name="asciitilde" unicode="~" horiz-adv-x="1198" 
d="M920 793l199 1q-5 -72 -27.5 -146t-62.5 -136.5t-102 -100t-146 -35.5q-76 2 -133.5 40t-104.5 94q-24 29 -53.5 57t-71.5 28q-46 1 -74 -29t-43 -72t-20 -79l-203 1q5 72 27 145t63 134.5t102 97.5t146 35q74 -2 133.5 -40t105.5 -94q24 -29 53 -57t70 -28q47 -1 76 30
t44.5 74t21.5 80z" />
    <glyph glyph-name="uni00A0" unicode="&#xa0;" horiz-adv-x="486" 
 />
    <glyph glyph-name="exclamdown" unicode="&#xa1;" horiz-adv-x="550" 
d="M-40 -368l207 1009h231l-142 -1009h-296zM490 956q1 -66 -43 -111t-110 -46q-64 -1 -108 40.5t-45 106.5q-1 66 43 111t111 46q64 1 107.5 -40.5t44.5 -106.5z" />
    <glyph glyph-name="cent" unicode="&#xa2;" horiz-adv-x="1078" 
d="M766 1318l-51 -291h-189l51 291h189zM546 45l-51 -290h-189l51 290h189zM474 208q50 -2 85.5 21t57 61t29.5 82l261 1q-10 -116 -72.5 -205.5t-160 -140t-214.5 -48.5q-113 3 -190.5 50t-121.5 125t-59 174t-5 196l3 29q14 107 52.5 206.5t104.5 178t157.5 123
t209.5 41.5q123 -3 204 -60t119.5 -152t34.5 -211l-260 1q2 43 -7 87.5t-36 75t-80 31.5q-63 3 -103.5 -28.5t-64.5 -82t-36 -106.5t-17 -104l-3 -28q-4 -38 -7.5 -90.5t3.5 -104t33.5 -86.5t82.5 -36z" />
    <glyph glyph-name="sterling" unicode="&#xa3;" horiz-adv-x="1111" 
d="M950 0h-954l42 238h954zM791 579h-697l40 231h698zM585 1040l-73 -603q-11 -103 -64 -172t-144 -114l-183 88q33 15 51.5 45.5t27.5 67t14 68.5l85 619q15 126 76 226t161 157t232 54q125 -4 207.5 -58t122.5 -147t36 -212l-276 1q3 41 -4.5 81.5t-32.5 68.5t-75 30
q-52 0 -85.5 -32t-51 -79t-24.5 -89z" />
    <glyph glyph-name="currency" unicode="&#xa4;" horiz-adv-x="1375" 
d="M295 599q-11 -78 4 -154t55 -138t104 -99.5t149 -39.5q94 -3 176 33t146.5 100.5t106 146.5t53.5 169q11 78 -4 153.5t-55 137t-104 99t-149 40.5q-94 3 -176 -33.5t-146.5 -100t-106 -145t-53.5 -169.5zM114 600q13 126 69.5 241t146.5 205t205 140.5t247 48.5
q124 -3 220.5 -55.5t160 -140.5t91 -197.5t15.5 -225.5q-14 -126 -70 -241t-145.5 -205.5t-204.5 -142t-247 -48.5q-124 3 -220.5 56t-160.5 141t-92 198t-15 226zM1396 1110l-220 -194l-120 154l220 195zM336 169l-220 -195l-120 154l220 193zM1073 -27l-169 217l148 131
l171 -216zM340 916l-170 217l148 131l170 -217z" />
    <glyph glyph-name="yen" unicode="&#xa5;" horiz-adv-x="1004" 
d="M917 741l-30 -171h-805l30 171h805zM867 451l-30 -170h-805l30 170h805zM453 723l379 733h310l-513 -897h-161zM461 1456l134 -769l-62 -128h-158l-204 897h290zM671 760l-132 -760h-288l131 760h289z" />
    <glyph glyph-name="brokenbar" unicode="&#xa6;" horiz-adv-x="500" 
d="M225 -270h-252l138 795h252zM525 1456l-132 -758h-253l132 758h253z" />
    <glyph glyph-name="section" unicode="&#xa7;" horiz-adv-x="1173" 
d="M541 136l11 142q55 3 101 25t76.5 62t39.5 96q7 45 -9.5 77.5t-47.5 55.5t-68.5 39t-72.5 30q-78 30 -147.5 65t-122.5 83t-80.5 115t-20.5 162q6 101 53 174.5t120 121.5t162 71t180 21q132 -2 228 -53t145.5 -145.5t44.5 -228.5h-275q2 54 -13.5 98.5t-51.5 71
t-95 27.5q-51 0 -98.5 -16t-81 -50.5t-42.5 -88.5q-8 -47 9 -78t48.5 -51.5t70 -34.5t74.5 -26q77 -26 146.5 -60t122.5 -81.5t81 -114t22 -158.5q-7 -101 -54 -168.5t-120.5 -107t-161 -56.5t-173.5 -19zM575 879l-13 -145q-54 -4 -95 -25.5t-67.5 -60.5t-34.5 -93
q-8 -47 6.5 -79.5t43.5 -55t66.5 -39t75.5 -30.5q79 -29 149 -63.5t122.5 -82t80.5 -115t21 -163.5q-6 -102 -52.5 -175t-118.5 -119.5t-161 -67.5t-180 -20q-100 2 -182 28.5t-141 78.5t-90.5 130t-27.5 182h277q-2 -46 8.5 -81t33 -58.5t57.5 -35.5t81 -13q49 0 96.5 15
t81.5 48t43 86q7 44 -11.5 74.5t-52 52t-72 36.5t-70.5 26q-75 27 -144 61t-121.5 81.5t-81 113.5t-22.5 157q6 100 51 167t116.5 107t156.5 58t171 20z" />
    <glyph glyph-name="dieresis" unicode="&#xa8;" horiz-adv-x="931" 
d="M212 1363q0 55 39.5 92t93.5 38q53 1 94.5 -33.5t41.5 -89.5q1 -55 -39 -92t-94 -38q-53 -1 -94 33.5t-42 89.5zM687 1362q-1 56 39 93t94 38q53 1 94 -34t41 -90q2 -55 -38.5 -91.5t-93.5 -37.5t-94 33.5t-42 88.5z" />
    <glyph glyph-name="copyright" unicode="&#xa9;" horiz-adv-x="1560" 
d="M931 596l148 1q-11 -151 -103 -235t-244 -80q-108 3 -176.5 58t-98 142.5t-22.5 186.5l12 119q12 105 58.5 194t128 142.5t195.5 51.5q145 -3 224 -87.5t75 -229.5l-150 2q5 81 -27.5 130.5t-121.5 51.5q-71 1 -119.5 -36.5t-75.5 -96t-35 -121.5l-14 -121
q-6 -55 2.5 -112t42 -97t100.5 -43q92 -4 139 45.5t62 134.5zM224 722q-16 -114 7.5 -223.5t83 -197.5t153 -141.5t217.5 -55.5q131 -3 246.5 48t206.5 141t149.5 204.5t74.5 238.5q17 114 -7 222.5t-83.5 197t-152.5 141.5t-217 55q-131 3 -246.5 -47.5t-206.5 -140
t-149.5 -204t-75.5 -238.5zM104 722q17 149 83.5 285.5t173 243t242.5 167.5t292 58q149 -2 265 -65t193 -168t110.5 -236.5t18.5 -271.5q-16 -148 -82.5 -284.5t-172.5 -243.5t-242.5 -168.5t-291.5 -58.5q-150 2 -265.5 65t-193 169t-111 237.5t-19.5 270.5z" />
    <glyph glyph-name="ordfeminine" unicode="&#xaa;" horiz-adv-x="832" 
d="M570 861l53 342q3 28 0.5 57t-18 48.5t-50.5 21.5q-52 2 -84.5 -25.5t-45.5 -75.5l-164 14q6 78 47 130.5t105 79t139 24.5q81 -1 135.5 -38t79.5 -99t19 -140l-48 -314q-8 -46 -9.5 -91.5t4.5 -91.5l-158 1q-14 78 -5 157zM660 1150l-20 -116h-114q-37 -2 -74.5 -14
t-64.5 -38t-33 -67t16 -62t61 -22q35 0 71 16t65 43t43 59l5 -117q-21 -44 -54 -76t-75 -49t-92 -17q-98 -1 -153.5 62t-54.5 159q2 92 51.5 144.5t124.5 74t154 21.5z" />
    <glyph glyph-name="guillemotleft" unicode="&#xab;" horiz-adv-x="952" 
d="M560 924l-283 -402l-214 -3l-1 17l307 388h191zM265 530l144 -404h-162l-192 387v19zM913 924l-283 -402l-214 -3l-1 17l307 388h191zM618 530l144 -404h-162l-192 387v19z" />
    <glyph glyph-name="logicalnot" unicode="&#xac;" horiz-adv-x="1028" 
d="M907 804l-29 -169h-750l30 169h749zM894 728l-61 -354h-190l62 354h189z" />
    <glyph glyph-name="uni00AD" unicode="&#xad;" horiz-adv-x="749" 
d="M651 739l-41 -229h-512l41 229h512z" />
    <glyph glyph-name="registered" unicode="&#xae;" horiz-adv-x="1560" 
d="M819 653h-223l20 133l165 -1q41 2 83.5 14t74 38.5t40.5 72.5q9 49 -8 75.5t-51.5 36.5t-77.5 11l-140 1l-112 -718h-146l133 850l257 -1q79 -3 146 -30t107 -82t37 -141q-3 -77 -39.5 -114t-89.5 -59t-106 -52q-4 -2 -7.5 -6.5t-7.5 -7.5q-9 -7 -17.5 -11.5t-17.5 -6
t-20 -2.5zM796 652l22 109q117 -3 180.5 -64.5t55.5 -181.5l-6 -56q-3 -33 -1.5 -63t4.5 -63l-1 -18h-146q-6 37 -4 73t6 73l6 55q7 71 -20 100.5t-96 35.5zM224 722q-16 -114 7.5 -223.5t83 -197.5t153 -141.5t217.5 -56.5q131 -2 246.5 49t206.5 141t149 204.5t76 238.5
q15 114 -8 223t-83 197t-153 141t-217 55q-131 3 -246.5 -47.5t-206.5 -140t-149.5 -204t-75.5 -238.5zM104 722q16 149 83 285.5t173 243t242.5 167.5t292.5 58q149 -2 264.5 -65t193 -168t111 -236.5t18.5 -271.5q-16 -148 -82.5 -285t-172.5 -244t-242.5 -168t-291.5 -59
q-150 3 -265.5 66t-193 168.5t-111 237.5t-19.5 271z" />
    <glyph glyph-name="macron" unicode="&#xaf;" horiz-adv-x="951" 
d="M921 1454l-26 -165h-626l27 165h625z" />
    <glyph glyph-name="degree" unicode="&#xb0;" horiz-adv-x="774" 
d="M228 1192q2 76 41 141t103 105t141 39q71 -1 125.5 -39.5t84.5 -99t28 -128.5q-2 -75 -39.5 -139.5t-100.5 -103.5t-140 -38q-71 1 -126.5 38t-86.5 96.5t-30 128.5zM370 1194q-6 -46 21.5 -82.5t75.5 -35.5q55 0 95 40t48 92q6 46 -19 84t-75 39q-55 0 -97 -41.5
t-49 -95.5z" />
    <glyph glyph-name="plusminus" unicode="&#xb1;" horiz-adv-x="1003" 
d="M962 939l-38 -236h-819l38 236h819zM730 1286l-149 -950h-242l148 950h243zM827 233l-36 -232h-776l37 232h775z" />
    <glyph glyph-name="uni00B2" unicode="&#xb2;" horiz-adv-x="713" 
d="M673 829l-30 -162h-560l26 147l287 249q23 21 49 47.5t46 56.5t26 63q6 30 -6 54.5t-47 24.5q-47 0 -71 -37t-32 -77l-197 -2q6 80 44.5 143t102.5 99t146 35q75 -1 134.5 -28.5t94.5 -81t31 -132.5q-3 -73 -40 -127t-90 -97.5t-105 -84.5l-106 -89z" />
    <glyph glyph-name="uni00B3" unicode="&#xb3;" horiz-adv-x="713" 
d="M346 1137h68q30 2 55.5 13t42.5 32t22 51q5 33 -13.5 52.5t-51.5 20.5q-33 0 -56 -17t-36 -46l-200 -1q6 76 45.5 127t102 76t134.5 24q68 -1 131 -24t103.5 -71.5t39.5 -125.5q-2 -72 -44.5 -116t-105 -64t-124.5 -21l-129 1zM322 1002l16 86l96 -1q63 -1 120.5 -18
t93.5 -58t35 -115q-1 -84 -49.5 -137.5t-121.5 -79t-146 -23.5q-76 1 -135.5 30.5t-94 85t-35.5 133.5l192 -1q1 -39 22.5 -61.5t63.5 -22.5t75.5 26t40.5 69q6 29 -2.5 47.5t-27.5 27.5t-46 11z" />
    <glyph glyph-name="acute" unicode="&#xb4;" horiz-adv-x="657" 
d="M188 1228l239 308h323l-316 -308h-246z" />
    <glyph glyph-name="mu" unicode="&#xb5;" horiz-adv-x="1158" 
d="M814 1082h278l-188 -1082h-258l26 265zM745 504l100 3q-8 -81 -29.5 -173t-63.5 -174t-111 -133t-172 -48q-62 2 -114.5 31t-87 78.5t-42.5 112.5l14 261h144q-3 -38 -4 -80.5t7.5 -81t33.5 -64t74 -27.5q65 -2 109.5 23.5t72.5 68.5t44.5 96t24.5 107zM215 1082h278
l-261 -1498h-277z" />
    <glyph glyph-name="paragraph" unicode="&#xb6;" horiz-adv-x="918" 
d="M691 0h-209l94 521h-59q-132 3 -219 65.5t-126 165.5t-28 228q12 140 78 247t175.5 168.5t250.5 61.5l295 -1z" />
    <glyph glyph-name="periodcentered" unicode="&#xb7;" horiz-adv-x="582" 
d="M150 693q-1 67 43 112.5t111 46.5q65 2 109 -40.5t45 -107.5q1 -67 -43.5 -112.5t-110.5 -46.5t-110 41t-44 107z" />
    <glyph glyph-name="cedilla" unicode="&#xb8;" horiz-adv-x="514" 
d="M12 7l206 1l-19 -63q59 -15 85 -59.5t25 -102.5q-2 -73 -34 -120t-84.5 -74t-114 -39t-120.5 -13l10 165q28 3 51 12.5t39 28.5t21 49q5 33 -12.5 47t-44.5 18.5t-50 6.5z" />
    <glyph glyph-name="uni00B9" unicode="&#xb9;" horiz-adv-x="713" 
d="M630 1454l-130 -787h-194l96 548l-173 -42l30 166l347 115h24z" />
    <glyph glyph-name="ordmasculine" unicode="&#xba;" horiz-adv-x="857" 
d="M193 1044l7 76q10 96 54.5 178t119.5 132t178 47q99 -3 161.5 -54t90.5 -131t21 -171l-7 -77q-10 -95 -53.5 -177t-118 -131t-178.5 -47q-98 3 -161.5 53.5t-91.5 131t-22 170.5zM367 1121l-8 -80q-4 -42 2 -90t31.5 -82t80.5 -36q57 -1 94.5 31.5t57.5 81.5t27 98l8 78
q4 43 -1.5 91t-31 82t-79.5 36q-57 2 -95 -30t-59 -81.5t-27 -98.5z" />
    <glyph glyph-name="guillemotright" unicode="&#xbb;" horiz-adv-x="952" 
d="M-7 126l283 403l215 2v-17l-306 -388h-192zM145 924h162l192 -387v-19l-211 3zM352 126l283 403l215 2v-17l-306 -388h-192zM504 924h162l192 -387v-19l-211 3z" />
    <glyph glyph-name="onequarter" unicode="&#xbc;" horiz-adv-x="1341" 
d="M595 1451l-129 -787h-194l95 548l-172 -42l30 166l347 115h23zM1174 1246l-824 -1126l-132 82l825 1126zM1204 325l-29 -164h-572l13 146l390 482h170l-217 -279l-149 -184zM1210 789l-138 -789h-195l137 789h196z" />
    <glyph glyph-name="onehalf" unicode="&#xbd;" horiz-adv-x="1422" 
d="M1137 1246l-824 -1126l-132 82l825 1126zM581 1456l-129 -787h-194l95 548l-172 -42l30 166l347 115h23zM1259 162l-30 -162h-560l26 147l287 249q23 21 49 47.5t46 56.5t26 63q5 30 -7 54.5t-46 24.5q-47 0 -71 -37t-32 -77l-197 -2q5 80 44 143t103 99t146 35
q74 -1 134 -28.5t94.5 -81t31.5 -132.5q-3 -73 -40 -127t-90.5 -97.5t-104.5 -84.5l-106 -89z" />
    <glyph glyph-name="threequarters" unicode="&#xbe;" horiz-adv-x="1513" 
d="M1319 1246l-824 -1126l-132 82l825 1126zM1350 325l-29 -164h-572l13 146l390 482h170l-217 -279l-149 -184zM1356 789l-138 -789h-195l137 789h196zM387 1137h69q29 2 54 13t42 32t22 51q6 33 -13 52.5t-51 20.5q-34 0 -56.5 -17t-35.5 -46l-201 -1q6 76 46 127
t102.5 76t134.5 24q68 -1 131 -24t103 -71.5t39 -125.5q-1 -72 -43.5 -116t-105 -64t-124.5 -21l-130 1zM362 1002l16 86l97 -1q63 -1 120.5 -18t93 -58t34.5 -115q-1 -84 -49 -137.5t-121 -79t-147 -23.5q-75 1 -135 30.5t-94 85t-35 133.5l191 -1q2 -39 23.5 -61.5
t63.5 -22.5t75.5 26t40.5 69q5 29 -3 47.5t-27 27.5t-46 11z" />
    <glyph glyph-name="questiondown" unicode="&#xbf;" horiz-adv-x="938" 
d="M374 645l240 1q-7 -79 -26 -144t-55.5 -122.5t-94.5 -111.5q-41 -37 -81 -77.5t-68.5 -88t-35.5 -104.5q-5 -36 0 -71t26.5 -59t63.5 -25q51 -1 84.5 25.5t53 67.5t27.5 84l277 1q-11 -126 -71.5 -218t-159 -142t-226.5 -47q-115 3 -199.5 49.5t-127 131.5t-33.5 202
q7 92 50.5 164.5t106 133t127.5 117.5q37 33 61 68.5t38.5 76t22.5 88.5zM712 958q0 -67 -43.5 -112t-109.5 -46q-65 -2 -109 40t-45 107q0 66 44 111t110 46q64 0 108 -41.5t45 -104.5z" />
    <glyph glyph-name="Agrave" unicode="&#xc0;" horiz-adv-x="1260" 
d="M766 1187l-546 -1187h-316l736 1456h201zM843 0l-140 1215l14 241h190l233 -1456h-297zM931 542l-42 -238h-695l43 238h694zM785 1846l144 -308h-214l-221 307z" />
    <glyph glyph-name="Aacute" unicode="&#xc1;" horiz-adv-x="1260" 
d="M766 1187l-546 -1187h-316l736 1456h201zM843 0l-140 1215l14 241h190l233 -1456h-297zM931 542l-42 -238h-695l43 238h694zM654 1538l239 308h323l-316 -308h-246z" />
    <glyph glyph-name="Acircumflex" unicode="&#xc2;" horiz-adv-x="1260" 
d="M766 1187l-546 -1187h-316l736 1456h201zM843 0l-140 1215l14 241h190l233 -1456h-297zM931 542l-42 -238h-695l43 238h694zM914 1847l242 -277v-18l-212 4l-110 143l-161 -142l-222 -4v20l307 273z" />
    <glyph glyph-name="Atilde" unicode="&#xc3;" horiz-adv-x="1260" 
d="M766 1187l-546 -1187h-316l736 1456h201zM843 0l-140 1215l14 241h190l233 -1456h-297zM931 542l-42 -238h-695l43 238h694zM1018 1842l159 -10q-4 -63 -29.5 -125t-73.5 -103.5t-121 -40.5q-34 1 -64 15t-57.5 32.5t-56.5 32t-61 11.5q-42 -1 -61 -31.5t-29 -65.5
l-162 10q5 61 31 123.5t74 104.5t121 41q33 -1 62 -15.5t57.5 -32.5t57.5 -31.5t63 -11.5q41 1 60.5 31.5t29.5 65.5z" />
    <glyph glyph-name="Adieresis" unicode="&#xc4;" horiz-adv-x="1260" 
d="M766 1187l-546 -1187h-316l736 1456h201zM843 0l-140 1215l14 241h190l233 -1456h-297zM931 542l-42 -238h-695l43 238h694zM445 1673q0 55 39.5 92t93.5 38q53 1 94.5 -33.5t41.5 -89.5q1 -55 -39 -92t-94 -38q-53 -1 -94 33.5t-42 89.5zM920 1672q-1 56 39 93t94 38
q53 1 94 -34t41 -90q2 -55 -38.5 -91.5t-93.5 -37.5t-94 33.5t-42 88.5z" />
    <glyph glyph-name="Aring" unicode="&#xc5;" horiz-adv-x="1260" 
d="M766 1187l-546 -1187h-316l736 1456h201zM843 0l-140 1215l14 241h190l233 -1456h-297zM931 542l-42 -238h-695l43 238h694zM615 1723q0 61 31 109.5t82 76t111 27.5q83 0 145 -56.5t62 -142.5q0 -61 -31.5 -108.5t-82.5 -74t-110 -26.5q-84 0 -145.5 54.5t-61.5 140.5z
M726 1724q-5 -41 17.5 -71t64.5 -30q48 0 84 33.5t42 79.5q6 41 -16.5 72.5t-65.5 31.5q-48 0 -84 -35t-42 -81z" />
    <glyph glyph-name="AE" unicode="&#xc6;" horiz-adv-x="1744" 
d="M1020 1285l-784 -1285h-337l945 1456h178zM995 579l-43 -243h-679l42 243h680zM1618 232l-41 -232h-655l40 232h656zM1240 1456l-198 -1456h-276l198 1456h276zM1600 864l-41 -231h-564l40 231h565zM1775 1456l-41 -232h-655l41 232h655z" />
    <glyph glyph-name="Ccedilla" unicode="&#xc7;" horiz-adv-x="1217" 
d="M840 483l281 4q-17 -157 -96.5 -272t-205 -177t-283.5 -58q-139 3 -231.5 60t-144 151.5t-66.5 211t1 238.5l26 174q19 128 67 248t127 214.5t190.5 148.5t254.5 51q157 -3 258 -70t151 -182t53 -263l-288 1q2 75 -11 136.5t-54.5 98.5t-127.5 40q-87 3 -146.5 -35
t-96.5 -101.5t-57 -138.5t-30 -146l-25 -177q-7 -59 -11.5 -130.5t7 -136.5t51.5 -108.5t122 -46.5q89 -4 146.5 29.5t90.5 94.5t48 141zM411 4l206 1l-19 -63q59 -15 85 -59.5t25 -102.5q-2 -73 -34 -120t-84.5 -74t-114 -39t-120.5 -13l10 165q28 3 51 12.5t39 28.5t21 49
q5 33 -12.5 47t-44.5 18.5t-50 6.5z" />
    <glyph glyph-name="Egrave" unicode="&#xc8;" 
d="M938 238l-42 -238h-684l41 238h685zM557 1456l-252 -1456h-289l252 1456h289zM957 864l-41 -231h-594l40 231h595zM1147 1456l-42 -239h-682l42 239h682zM731 1849l144 -308h-214l-221 307z" />
    <glyph glyph-name="Eacute" unicode="&#xc9;" 
d="M938 238l-42 -238h-684l41 238h685zM557 1456l-252 -1456h-289l252 1456h289zM957 864l-41 -231h-594l40 231h595zM1147 1456l-42 -239h-682l42 239h682zM600 1541l239 308h323l-316 -308h-246z" />
    <glyph glyph-name="Ecircumflex" unicode="&#xca;" 
d="M938 238l-42 -238h-684l41 238h685zM557 1456l-252 -1456h-289l252 1456h289zM957 864l-41 -231h-594l40 231h595zM1147 1456l-42 -239h-682l42 239h682zM861 1850l242 -277v-18l-212 4l-110 143l-161 -142l-222 -4v20l307 273z" />
    <glyph glyph-name="Edieresis" unicode="&#xcb;" 
d="M938 238l-42 -238h-684l41 238h685zM557 1456l-252 -1456h-289l252 1456h289zM957 864l-41 -231h-594l40 231h595zM1147 1456l-42 -239h-682l42 239h682zM391 1676q0 55 39.5 92t93.5 38q53 1 94.5 -33.5t41.5 -89.5q1 -55 -39 -92t-94 -38q-53 -1 -94 33.5t-42 89.5z
M866 1675q-1 56 39 93t94 38q53 1 94 -34t41 -90q2 -55 -38.5 -91.5t-93.5 -37.5t-94 33.5t-42 88.5z" />
    <glyph glyph-name="Igrave" unicode="&#xcc;" horiz-adv-x="558" 
d="M572 1456l-253 -1456h-288l253 1456h288zM431 1849l144 -308h-214l-221 307z" />
    <glyph glyph-name="Iacute" unicode="&#xcd;" horiz-adv-x="558" 
d="M572 1456l-253 -1456h-288l253 1456h288zM301 1541l239 308h323l-316 -308h-246z" />
    <glyph glyph-name="Icircumflex" unicode="&#xce;" horiz-adv-x="558" 
d="M572 1456l-253 -1456h-288l253 1456h288zM561 1850l242 -277v-18l-212 4l-110 143l-161 -142l-222 -4v20l307 273z" />
    <glyph glyph-name="Idieresis" unicode="&#xcf;" horiz-adv-x="558" 
d="M572 1456l-253 -1456h-288l253 1456h288zM92 1676q0 55 39.5 92t93.5 38q53 1 94.5 -33.5t41.5 -89.5q1 -55 -39 -92t-94 -38q-53 -1 -94 33.5t-42 89.5zM567 1675q-1 56 39 93t94 38q53 1 94 -34t41 -90q2 -55 -38.5 -91.5t-93.5 -37.5t-94 33.5t-42 88.5z" />
    <glyph glyph-name="Eth" unicode="&#xd0;" horiz-adv-x="1237" 
d="M463 0h-295l44 238l263 -2q127 -1 208.5 56.5t126 152.5t61.5 210l21 149q9 70 8.5 141.5t-20 131.5t-68 98t-135.5 41l-303 1l42 239l272 -1q138 -3 238.5 -56.5t162.5 -145t85 -207.5t8 -244l-21 -148q-20 -138 -76.5 -257.5t-146 -208.5t-209 -139t-266.5 -49z
M587 1456l-252 -1456h-289l252 1456h289zM690 824l-32 -180h-635l32 180h635z" />
    <glyph glyph-name="Ntilde" unicode="&#xd1;" horiz-adv-x="1309" 
d="M1338 1456l-253 -1456h-281l-329 978l-170 -978h-289l252 1456h282l330 -979l170 979h288zM1043 1842l159 -10q-4 -63 -29.5 -125t-73.5 -103.5t-121 -40.5q-34 1 -64 15t-57.5 32.5t-56.5 32t-61 11.5q-42 -1 -61 -31.5t-29 -65.5l-162 10q5 61 31 123.5t74 104.5
t121 41q33 -1 62 -15.5t57.5 -32.5t57.5 -31.5t63 -11.5q41 1 60.5 31.5t29.5 65.5z" />
    <glyph glyph-name="Ograve" unicode="&#xd2;" horiz-adv-x="1285" 
d="M1230 804l-22 -156q-20 -131 -70 -252.5t-130.5 -216t-194 -148.5t-259.5 -51q-139 3 -234 60.5t-149 152.5t-71.5 212.5t-2.5 240.5l22 155q20 132 69.5 254t131 218t195.5 151.5t260 51.5q140 -3 234.5 -61.5t148.5 -155t70.5 -215t1.5 -240.5zM917 646l23 159
q7 59 9.5 131.5t-12.5 139.5t-57 111.5t-125 47.5q-88 4 -149.5 -35t-101 -105t-62 -143t-32.5 -148l-22 -159q-8 -60 -9.5 -131.5t14 -137.5t58 -109.5t123.5 -46.5q87 -4 148 35t101 103t62.5 140t31.5 148zM794 1846l144 -308h-214l-221 307z" />
    <glyph glyph-name="Oacute" unicode="&#xd3;" horiz-adv-x="1285" 
d="M1230 804l-22 -156q-20 -131 -70 -252.5t-130.5 -216t-194 -148.5t-259.5 -51q-139 3 -234 60.5t-149 152.5t-71.5 212.5t-2.5 240.5l22 155q20 132 69.5 254t131 218t195.5 151.5t260 51.5q140 -3 234.5 -61.5t148.5 -155t70.5 -215t1.5 -240.5zM917 646l23 159
q7 59 9.5 131.5t-12.5 139.5t-57 111.5t-125 47.5q-88 4 -149.5 -35t-101 -105t-62 -143t-32.5 -148l-22 -159q-8 -60 -9.5 -131.5t14 -137.5t58 -109.5t123.5 -46.5q87 -4 148 35t101 103t62.5 140t31.5 148zM663 1539l239 308h323l-316 -308h-246z" />
    <glyph glyph-name="Ocircumflex" unicode="&#xd4;" horiz-adv-x="1285" 
d="M1230 804l-22 -156q-20 -131 -70 -252.5t-130.5 -216t-194 -148.5t-259.5 -51q-139 3 -234 60.5t-149 152.5t-71.5 212.5t-2.5 240.5l22 155q20 132 69.5 254t131 218t195.5 151.5t260 51.5q140 -3 234.5 -61.5t148.5 -155t70.5 -215t1.5 -240.5zM917 646l23 159
q7 59 9.5 131.5t-12.5 139.5t-57 111.5t-125 47.5q-88 4 -149.5 -35t-101 -105t-62 -143t-32.5 -148l-22 -159q-8 -60 -9.5 -131.5t14 -137.5t58 -109.5t123.5 -46.5q87 -4 148 35t101 103t62.5 140t31.5 148zM924 1847l242 -277v-18l-212 4l-110 143l-161 -142l-222 -4v20
l307 273z" />
    <glyph glyph-name="Otilde" unicode="&#xd5;" horiz-adv-x="1285" 
d="M1230 804l-22 -156q-20 -131 -70 -252.5t-130.5 -216t-194 -148.5t-259.5 -51q-139 3 -234 60.5t-149 152.5t-71.5 212.5t-2.5 240.5l22 155q20 132 69.5 254t131 218t195.5 151.5t260 51.5q140 -3 234.5 -61.5t148.5 -155t70.5 -215t1.5 -240.5zM917 646l23 159
q7 59 9.5 131.5t-12.5 139.5t-57 111.5t-125 47.5q-88 4 -149.5 -35t-101 -105t-62 -143t-32.5 -148l-22 -159q-8 -60 -9.5 -131.5t14 -137.5t58 -109.5t123.5 -46.5q87 -4 148 35t101 103t62.5 140t31.5 148zM1027 1842l159 -10q-4 -63 -29.5 -125t-73.5 -103.5t-121 -40.5
q-34 1 -64 15t-57.5 32.5t-56.5 32t-61 11.5q-42 -1 -61 -31.5t-29 -65.5l-162 10q5 61 31 123.5t74 104.5t121 41q33 -1 62 -15.5t57.5 -32.5t57.5 -31.5t63 -11.5q41 1 60.5 31.5t29.5 65.5z" />
    <glyph glyph-name="Odieresis" unicode="&#xd6;" horiz-adv-x="1285" 
d="M1230 804l-22 -156q-20 -131 -70 -252.5t-130.5 -216t-194 -148.5t-259.5 -51q-139 3 -234 60.5t-149 152.5t-71.5 212.5t-2.5 240.5l22 155q20 132 69.5 254t131 218t195.5 151.5t260 51.5q140 -3 234.5 -61.5t148.5 -155t70.5 -215t1.5 -240.5zM917 646l23 159
q7 59 9.5 131.5t-12.5 139.5t-57 111.5t-125 47.5q-88 4 -149.5 -35t-101 -105t-62 -143t-32.5 -148l-22 -159q-8 -60 -9.5 -131.5t14 -137.5t58 -109.5t123.5 -46.5q87 -4 148 35t101 103t62.5 140t31.5 148zM454 1673q0 55 39.5 92t93.5 38q53 1 94.5 -33.5t41.5 -89.5
q1 -55 -39 -92t-94 -38q-53 -1 -94 33.5t-42 89.5zM929 1672q-1 56 39 93t94 38q53 1 94 -34t41 -90q2 -55 -38.5 -91.5t-93.5 -37.5t-94 33.5t-42 88.5z" />
    <glyph glyph-name="multiply" unicode="&#xd7;" horiz-adv-x="992" 
d="M169 203l-143 177l821 783l143 -178zM700 202l-566 807l178 155l567 -806z" />
    <glyph glyph-name="Oslash" unicode="&#xd8;" horiz-adv-x="1282" 
d="M1329 1518l-1126 -1613h-192l1126 1613h192zM1235 764l-8 -68q-19 -132 -69 -260t-132.5 -232.5t-198.5 -165.5t-265 -58q-116 3 -199.5 45.5t-139 114.5t-84.5 163.5t-36 191t4 197.5l10 69q18 131 68.5 259.5t133 233t198.5 165.5t265 57q116 -2 199.5 -45t138 -115.5
t84.5 -164t36.5 -191.5t-5.5 -196zM934 694l9 71q6 45 9.5 105.5t-1 122.5t-24 115.5t-59 88t-106.5 37.5q-91 4 -154 -41t-103.5 -118.5t-63.5 -156.5t-32 -154l-9 -71q-6 -46 -9.5 -106.5t1 -122.5t24 -116t59.5 -89t106 -37q91 -4 154 41.5t104 119.5t63.5 157t31.5 154z
" />
    <glyph glyph-name="Ugrave" unicode="&#xd9;" horiz-adv-x="1222" 
d="M975 1456h289l-167 -980q-22 -154 -97.5 -267t-196.5 -172.5t-279 -57.5q-148 3 -251.5 65t-152 172.5t-30.5 258.5l167 981h288l-165 -982q-8 -68 2 -125t48 -93t115 -38q82 -3 137 29.5t85.5 92t41.5 135.5zM759 1846l144 -308h-214l-221 307z" />
    <glyph glyph-name="Uacute" unicode="&#xda;" horiz-adv-x="1222" 
d="M975 1456h289l-167 -980q-22 -154 -97.5 -267t-196.5 -172.5t-279 -57.5q-148 3 -251.5 65t-152 172.5t-30.5 258.5l167 981h288l-165 -982q-8 -68 2 -125t48 -93t115 -38q82 -3 137 29.5t85.5 92t41.5 135.5zM628 1538l239 308h323l-316 -308h-246z" />
    <glyph glyph-name="Ucircumflex" unicode="&#xdb;" horiz-adv-x="1222" 
d="M975 1456h289l-167 -980q-22 -154 -97.5 -267t-196.5 -172.5t-279 -57.5q-148 3 -251.5 65t-152 172.5t-30.5 258.5l167 981h288l-165 -982q-8 -68 2 -125t48 -93t115 -38q82 -3 137 29.5t85.5 92t41.5 135.5zM889 1847l242 -277v-18l-212 4l-110 143l-161 -142l-222 -4
v20l307 273z" />
    <glyph glyph-name="Udieresis" unicode="&#xdc;" horiz-adv-x="1222" 
d="M975 1456h289l-167 -980q-22 -154 -97.5 -267t-196.5 -172.5t-279 -57.5q-148 3 -251.5 65t-152 172.5t-30.5 258.5l167 981h288l-165 -982q-8 -68 2 -125t48 -93t115 -38q82 -3 137 29.5t85.5 92t41.5 135.5zM419 1673q0 55 39.5 92t93.5 38q53 1 94.5 -33.5t41.5 -89.5
q1 -55 -39 -92t-94 -38q-53 -1 -94 33.5t-42 89.5zM894 1672q-1 56 39 93t94 38q53 1 94 -34t41 -90q2 -55 -38.5 -91.5t-93.5 -37.5t-94 33.5t-42 88.5z" />
    <glyph glyph-name="Yacute" unicode="&#xdd;" horiz-adv-x="1155" 
d="M466 1456l139 -657l369 657h327l-593 -941l-88 -515h-294l95 544l-259 912h304zM600 1538l239 308h323l-316 -308h-246z" />
    <glyph glyph-name="Thorn" unicode="&#xde;" horiz-adv-x="1135" 
d="M271 1456h279l-253 -1456h-279zM328 1187h346q131 -3 230 -57t151.5 -151t41.5 -233q-12 -149 -88.5 -251t-197 -155t-261.5 -52l-242 1l40 228l212 -1q68 2 123.5 30t90.5 78.5t46 119.5q8 57 -6 104.5t-51 77t-98 32.5l-192 2z" />
    <glyph glyph-name="germandbls" unicode="&#xdf;" horiz-adv-x="1182" 
d="M487 1099l-185 -1099h-278l188 1103q13 102 52 186.5t102.5 146t149 94t192.5 30.5q105 -3 184.5 -48t121.5 -125t34 -189q-4 -54 -24.5 -100.5t-46 -90t-48 -88t-31.5 -97.5q-8 -46 8 -90.5t44.5 -88t58 -87.5t49 -92t16.5 -101q-7 -127 -68.5 -213t-161 -129.5
t-220.5 -42.5q-43 1 -86.5 7t-85.5 18.5t-79 34.5l74 225q40 -27 88 -41.5t97 -13.5q44 1 79.5 19.5t58.5 52t30 76.5q8 49 -9.5 92.5t-46.5 85t-59.5 84t-50 89t-15.5 102.5q4 54 24.5 100t46.5 90t47.5 89.5t27.5 97.5q5 37 -4 70.5t-32.5 55t-64.5 23.5q-63 3 -99 -35.5
t-53.5 -95t-24.5 -105.5z" />
    <glyph glyph-name="agrave" unicode="&#xe0;" horiz-adv-x="1000" 
d="M560 246l78 494q4 37 -1.5 71t-26.5 56t-65 23q-42 1 -71.5 -16t-48 -46.5t-25.5 -67.5l-277 -2q5 86 45.5 151t104.5 108.5t141.5 65t156.5 20.5q110 -2 192 -47t123 -126.5t30 -195.5l-76 -473q-9 -59 -14.5 -122.5t15.5 -120.5l-2 -18l-272 -1q-17 60 -16.5 123
t9.5 124zM666 660l-27 -166l-116 1q-41 -1 -78.5 -12.5t-68 -34.5t-50 -56t-25.5 -77q-4 -31 3.5 -58t28 -43.5t54.5 -17.5q44 -1 85 16.5t71 50t39 75.5l54 -118q-20 -51 -51 -95.5t-72 -77.5t-90.5 -51.5t-108.5 -17.5q-89 1 -157.5 43.5t-106 114t-33.5 159.5
q5 102 49 172t115 112.5t157.5 62t176.5 19.5zM597 1536l144 -308h-214l-221 307z" />
    <glyph glyph-name="aacute" unicode="&#xe1;" horiz-adv-x="1000" 
d="M560 246l78 494q4 37 -1.5 71t-26.5 56t-65 23q-42 1 -71.5 -16t-48 -46.5t-25.5 -67.5l-277 -2q5 86 45.5 151t104.5 108.5t141.5 65t156.5 20.5q110 -2 192 -47t123 -126.5t30 -195.5l-76 -473q-9 -59 -14.5 -122.5t15.5 -120.5l-2 -18l-272 -1q-17 60 -16.5 123
t9.5 124zM666 660l-27 -166l-116 1q-41 -1 -78.5 -12.5t-68 -34.5t-50 -56t-25.5 -77q-4 -31 3.5 -58t28 -43.5t54.5 -17.5q44 -1 85 16.5t71 50t39 75.5l54 -118q-20 -51 -51 -95.5t-72 -77.5t-90.5 -51.5t-108.5 -17.5q-89 1 -157.5 43.5t-106 114t-33.5 159.5
q5 102 49 172t115 112.5t157.5 62t176.5 19.5zM467 1228l239 308h323l-316 -308h-246z" />
    <glyph glyph-name="acircumflex" unicode="&#xe2;" horiz-adv-x="1000" 
d="M560 246l78 494q4 37 -1.5 71t-26.5 56t-65 23q-42 1 -71.5 -16t-48 -46.5t-25.5 -67.5l-277 -2q5 86 45.5 151t104.5 108.5t141.5 65t156.5 20.5q110 -2 192 -47t123 -126.5t30 -195.5l-76 -473q-9 -59 -14.5 -122.5t15.5 -120.5l-2 -18l-272 -1q-17 60 -16.5 123
t9.5 124zM666 660l-27 -166l-116 1q-41 -1 -78.5 -12.5t-68 -34.5t-50 -56t-25.5 -77q-4 -31 3.5 -58t28 -43.5t54.5 -17.5q44 -1 85 16.5t71 50t39 75.5l54 -118q-20 -51 -51 -95.5t-72 -77.5t-90.5 -51.5t-108.5 -17.5q-89 1 -157.5 43.5t-106 114t-33.5 159.5
q5 102 49 172t115 112.5t157.5 62t176.5 19.5zM727 1537l242 -277v-18l-212 4l-110 143l-161 -142l-222 -4v20l307 273z" />
    <glyph glyph-name="atilde" unicode="&#xe3;" horiz-adv-x="1000" 
d="M560 246l78 494q4 37 -1.5 71t-26.5 56t-65 23q-42 1 -71.5 -16t-48 -46.5t-25.5 -67.5l-277 -2q5 86 45.5 151t104.5 108.5t141.5 65t156.5 20.5q110 -2 192 -47t123 -126.5t30 -195.5l-76 -473q-9 -59 -14.5 -122.5t15.5 -120.5l-2 -18l-272 -1q-17 60 -16.5 123
t9.5 124zM666 660l-27 -166l-116 1q-41 -1 -78.5 -12.5t-68 -34.5t-50 -56t-25.5 -77q-4 -31 3.5 -58t28 -43.5t54.5 -17.5q44 -1 85 16.5t71 50t39 75.5l54 -118q-20 -51 -51 -95.5t-72 -77.5t-90.5 -51.5t-108.5 -17.5q-89 1 -157.5 43.5t-106 114t-33.5 159.5
q5 102 49 172t115 112.5t157.5 62t176.5 19.5zM831 1532l159 -10q-4 -63 -29.5 -125t-73.5 -103.5t-121 -40.5q-34 1 -64 15t-57.5 32.5t-56.5 32t-61 11.5q-42 -1 -61 -31.5t-29 -65.5l-162 10q5 61 31 123.5t74 104.5t121 41q33 -1 62 -15.5t57.5 -32.5t57.5 -31.5
t63 -11.5q41 1 60.5 31.5t29.5 65.5z" />
    <glyph glyph-name="adieresis" unicode="&#xe4;" horiz-adv-x="1000" 
d="M560 246l78 494q4 37 -1.5 71t-26.5 56t-65 23q-42 1 -71.5 -16t-48 -46.5t-25.5 -67.5l-277 -2q5 86 45.5 151t104.5 108.5t141.5 65t156.5 20.5q110 -2 192 -47t123 -126.5t30 -195.5l-76 -473q-9 -59 -14.5 -122.5t15.5 -120.5l-2 -18l-272 -1q-17 60 -16.5 123
t9.5 124zM666 660l-27 -166l-116 1q-41 -1 -78.5 -12.5t-68 -34.5t-50 -56t-25.5 -77q-4 -31 3.5 -58t28 -43.5t54.5 -17.5q44 -1 85 16.5t71 50t39 75.5l54 -118q-20 -51 -51 -95.5t-72 -77.5t-90.5 -51.5t-108.5 -17.5q-89 1 -157.5 43.5t-106 114t-33.5 159.5
q5 102 49 172t115 112.5t157.5 62t176.5 19.5zM258 1363q0 55 39.5 92t93.5 38q53 1 94.5 -33.5t41.5 -89.5q1 -55 -39 -92t-94 -38q-53 -1 -94 33.5t-42 89.5zM733 1362q-1 56 39 93t94 38q53 1 94 -34t41 -90q2 -55 -38.5 -91.5t-93.5 -37.5t-94 33.5t-42 88.5z" />
    <glyph glyph-name="aring" unicode="&#xe5;" horiz-adv-x="1000" 
d="M560 246l78 494q4 37 -1.5 71t-26.5 56t-65 23q-42 1 -71.5 -16t-48 -46.5t-25.5 -67.5l-277 -2q5 86 45.5 151t104.5 108.5t141.5 65t156.5 20.5q110 -2 192 -47t123 -126.5t30 -195.5l-76 -473q-9 -59 -14.5 -122.5t15.5 -120.5l-2 -18l-272 -1q-17 60 -16.5 123
t9.5 124zM666 660l-27 -166l-116 1q-41 -1 -78.5 -12.5t-68 -34.5t-50 -56t-25.5 -77q-4 -31 3.5 -58t28 -43.5t54.5 -17.5q44 -1 85 16.5t71 50t39 75.5l54 -118q-20 -51 -51 -95.5t-72 -77.5t-90.5 -51.5t-108.5 -17.5q-89 1 -157.5 43.5t-106 114t-33.5 159.5
q5 102 49 172t115 112.5t157.5 62t176.5 19.5zM428 1413q0 61 31 109.5t82 76t111 27.5q83 0 145 -56.5t62 -142.5q0 -61 -31.5 -108.5t-82.5 -74t-110 -26.5q-84 0 -145.5 54.5t-61.5 140.5zM539 1414q-5 -41 17.5 -71t64.5 -30q48 0 84 33.5t42 79.5q6 41 -16.5 72.5
t-65.5 31.5q-48 0 -84 -35t-42 -81z" />
    <glyph glyph-name="ae" unicode="&#xe6;" horiz-adv-x="1563" 
d="M579 181l85 529q4 36 -1.5 73.5t-27 63t-66.5 27.5q-40 1 -73.5 -14.5t-56.5 -44.5t-31 -68l-275 17q6 88 47.5 152.5t107 106.5t144 62t158.5 18q118 -3 199 -54t119 -139.5t25 -204.5l-80 -489zM701 649l-30 -185l-164 1q-47 -2 -92.5 -20t-77.5 -53t-40 -86
q-5 -38 7.5 -64.5t39 -40.5t63.5 -14q34 -1 72 11.5t72.5 34.5t59.5 51t34 63l110 -155q-37 -75 -104.5 -122.5t-148.5 -69.5t-160 -21q-100 2 -175 42t-114.5 114t-35.5 176q6 98 51 163.5t116 104t155.5 55t168.5 16.5zM1032 -19q-110 1 -189 43t-127.5 113.5t-67.5 163
t-10 192.5l8 70q13 105 52 203.5t103.5 175t155.5 120.5t208 40q102 -3 172.5 -45t112 -111.5t55.5 -155.5t3 -177l-24 -160h-743l34 192l461 -1l6 30q6 41 3 86.5t-26 78.5t-76 35q-61 3 -103 -26.5t-68 -78.5t-40 -104t-20 -102l-8 -69q-5 -50 -1.5 -99.5t22 -90t55 -66
t95.5 -27.5q74 -2 140 21t130 55l56 -188q-47 -43 -109.5 -69.5t-129.5 -38t-130 -10.5z" />
    <glyph glyph-name="ccedilla" unicode="&#xe7;" horiz-adv-x="974" 
d="M447 208q51 -1 86 21t56 60t29 83l260 1q-9 -117 -70.5 -206.5t-158.5 -139.5t-214 -47q-116 2 -193.5 46.5t-122.5 119.5t-60.5 170t-5.5 197l6 54q13 108 51 205.5t102.5 173t155.5 117.5t210 39q124 -2 205 -59.5t120 -152t35 -211.5l-261 1q1 45 -7.5 89t-36 73.5
t-80.5 31.5q-63 2 -103 -26.5t-63 -76t-34 -101.5t-17 -103l-5 -55q-4 -39 -7.5 -90.5t4 -99.5t34.5 -80.5t85 -33.5zM305 4l206 1l-19 -63q59 -15 85 -59.5t25 -102.5q-2 -73 -34 -120t-84.5 -74t-114 -39t-120.5 -13l10 165q28 3 51 12.5t39 28.5t21 49q5 33 -12.5 47
t-44.5 18.5t-50 6.5z" />
    <glyph glyph-name="egrave" unicode="&#xe8;" horiz-adv-x="1012" 
d="M474 -20q-110 2 -193 42t-135.5 110.5t-75 162t-13.5 195.5l7 65q12 109 51 208t105 177t158.5 121.5t212.5 40.5q112 -2 187 -47t117 -120.5t55.5 -168.5t1.5 -192l-18 -124h-770l33 195l490 -1l5 26q7 49 -0.5 95t-36.5 76.5t-86 33.5q-64 2 -106 -28.5t-66.5 -79.5
t-37 -105.5t-18.5 -106.5l-7 -65q-6 -49 -1.5 -98t22.5 -89.5t54 -66t95 -26.5q75 -2 138.5 28.5t116.5 80.5l110 -162q-43 -62 -108 -101.5t-139.5 -58t-147.5 -17.5zM581 1537l144 -308h-214l-221 307z" />
    <glyph glyph-name="eacute" unicode="&#xe9;" horiz-adv-x="1012" 
d="M474 -20q-110 2 -193 42t-135.5 110.5t-75 162t-13.5 195.5l7 65q12 109 51 208t105 177t158.5 121.5t212.5 40.5q112 -2 187 -47t117 -120.5t55.5 -168.5t1.5 -192l-18 -124h-770l33 195l490 -1l5 26q7 49 -0.5 95t-36.5 76.5t-86 33.5q-64 2 -106 -28.5t-66.5 -79.5
t-37 -105.5t-18.5 -106.5l-7 -65q-6 -49 -1.5 -98t22.5 -89.5t54 -66t95 -26.5q75 -2 138.5 28.5t116.5 80.5l110 -162q-43 -62 -108 -101.5t-139.5 -58t-147.5 -17.5zM450 1229l239 308h323l-316 -308h-246z" />
    <glyph glyph-name="ecircumflex" unicode="&#xea;" horiz-adv-x="1012" 
d="M474 -20q-110 2 -193 42t-135.5 110.5t-75 162t-13.5 195.5l7 65q12 109 51 208t105 177t158.5 121.5t212.5 40.5q112 -2 187 -47t117 -120.5t55.5 -168.5t1.5 -192l-18 -124h-770l33 195l490 -1l5 26q7 49 -0.5 95t-36.5 76.5t-86 33.5q-64 2 -106 -28.5t-66.5 -79.5
t-37 -105.5t-18.5 -106.5l-7 -65q-6 -49 -1.5 -98t22.5 -89.5t54 -66t95 -26.5q75 -2 138.5 28.5t116.5 80.5l110 -162q-43 -62 -108 -101.5t-139.5 -58t-147.5 -17.5zM711 1538l242 -277v-18l-212 4l-110 143l-161 -142l-222 -4v20l307 273z" />
    <glyph glyph-name="edieresis" unicode="&#xeb;" horiz-adv-x="1012" 
d="M474 -20q-110 2 -193 42t-135.5 110.5t-75 162t-13.5 195.5l7 65q12 109 51 208t105 177t158.5 121.5t212.5 40.5q112 -2 187 -47t117 -120.5t55.5 -168.5t1.5 -192l-18 -124h-770l33 195l490 -1l5 26q7 49 -0.5 95t-36.5 76.5t-86 33.5q-64 2 -106 -28.5t-66.5 -79.5
t-37 -105.5t-18.5 -106.5l-7 -65q-6 -49 -1.5 -98t22.5 -89.5t54 -66t95 -26.5q75 -2 138.5 28.5t116.5 80.5l110 -162q-43 -62 -108 -101.5t-139.5 -58t-147.5 -17.5zM240 1364q0 55 39.5 92t93.5 38q53 1 94.5 -33.5t41.5 -89.5q1 -55 -39 -92t-94 -38q-53 -1 -94 33.5
t-42 89.5zM715 1363q-1 56 39 93t94 38q53 1 94 -34t41 -90q2 -55 -38.5 -91.5t-93.5 -37.5t-94 33.5t-42 88.5z" />
    <glyph glyph-name="igrave" unicode="&#xec;" horiz-adv-x="531" 
d="M487 1082l-188 -1082h-278l188 1082h278zM362 1521l144 -308h-214l-221 307z" />
    <glyph glyph-name="iacute" unicode="&#xed;" horiz-adv-x="531" 
d="M487 1082l-188 -1082h-278l188 1082h278zM231 1213l239 308h323l-316 -308h-246z" />
    <glyph glyph-name="icircumflex" unicode="&#xee;" horiz-adv-x="531" 
d="M487 1082l-188 -1082h-278l188 1082h278zM491 1522l242 -277v-18l-212 4l-110 143l-161 -142l-222 -4v20l307 273z" />
    <glyph glyph-name="idieresis" unicode="&#xef;" horiz-adv-x="531" 
d="M487 1082l-188 -1082h-278l188 1082h278zM22 1348q0 55 39.5 92t93.5 38q53 1 94.5 -33.5t41.5 -89.5q1 -55 -39 -92t-94 -38q-53 -1 -94 33.5t-42 89.5zM497 1347q-1 56 39 93t94 38q53 1 94 -34t41 -90q2 -55 -38.5 -91.5t-93.5 -37.5t-94 33.5t-42 88.5z" />
    <glyph glyph-name="eth" unicode="&#xf0;" horiz-adv-x="1070" 
d="M346 1360l103 221q161 -43 276.5 -133.5t185.5 -216t94.5 -274t4.5 -306.5l-9 -74q-15 -108 -58 -215.5t-113 -195t-166.5 -139t-219.5 -48.5q-99 3 -174.5 42.5t-126 106.5t-72.5 152.5t-14 178.5q9 97 42.5 189t92.5 165t142 114.5t191 38.5q104 -3 176 -57.5
t110.5 -139.5t41.5 -182l-100 3q2 38 -11.5 68t-39 50.5t-58.5 31t-69 11.5q-60 2 -103 -24t-71.5 -70t-44.5 -95.5t-21 -102.5q-4 -36 -1 -79t17.5 -81.5t43.5 -64t75 -27.5q63 -2 107.5 31.5t73 87.5t45 113.5t22.5 108.5l15 105q16 118 2.5 229t-59.5 205t-128 164.5
t-202 108.5zM1027 1385l-561 -352l-59 126l562 351z" />
    <glyph glyph-name="ntilde" unicode="&#xf1;" 
d="M417 836l-145 -836h-279l188 1082h260zM333 579l-66 -3q9 91 37.5 185t81 172.5t131 125.5t186.5 44q88 -3 141.5 -40t80 -97t33 -132t-1.5 -145l-115 -689h-278l116 692q5 47 -0.5 88t-30.5 66.5t-80 26.5q-59 2 -100 -25.5t-68.5 -72.5t-43 -97t-23.5 -99zM855 1531
l159 -10q-4 -63 -29.5 -125t-73.5 -103.5t-121 -40.5q-34 1 -64 15t-57.5 32.5t-56.5 32t-61 11.5q-42 -1 -61 -31.5t-29 -65.5l-162 10q5 61 31 123.5t74 104.5t121 41q33 -1 62 -15.5t57.5 -32.5t57.5 -31.5t63 -11.5q41 1 60.5 31.5t29.5 65.5z" />
    <glyph glyph-name="ograve" unicode="&#xf2;" horiz-adv-x="1055" 
d="M54 514l5 46q12 109 52 207.5t107 175t160 119.5t212 40q113 -2 192.5 -47.5t127 -121.5t65 -171t7.5 -197l-5 -47q-13 -108 -53.5 -206.5t-107.5 -174t-159.5 -118t-210.5 -39.5q-113 2 -192.5 47t-127 120.5t-65 170t-7.5 196.5zM337 561l-5 -48q-3 -40 -3.5 -91.5
t10.5 -99.5t41 -80t86 -34q62 -3 104.5 26.5t69 77.5t40.5 103t20 104l4 47q4 40 4 92t-11.5 100t-41 81t-86.5 35q-61 3 -103 -27t-68.5 -79t-41 -104t-19.5 -103zM611 1536l144 -308h-214l-221 307z" />
    <glyph glyph-name="oacute" unicode="&#xf3;" horiz-adv-x="1055" 
d="M54 514l5 46q12 109 52 207.5t107 175t160 119.5t212 40q113 -2 192.5 -47.5t127 -121.5t65 -171t7.5 -197l-5 -47q-13 -108 -53.5 -206.5t-107.5 -174t-159.5 -118t-210.5 -39.5q-113 2 -192.5 47t-127 120.5t-65 170t-7.5 196.5zM337 561l-5 -48q-3 -40 -3.5 -91.5
t10.5 -99.5t41 -80t86 -34q62 -3 104.5 26.5t69 77.5t40.5 103t20 104l4 47q4 40 4 92t-11.5 100t-41 81t-86.5 35q-61 3 -103 -27t-68.5 -79t-41 -104t-19.5 -103zM480 1228l239 308h323l-316 -308h-246z" />
    <glyph glyph-name="ocircumflex" unicode="&#xf4;" horiz-adv-x="1055" 
d="M54 514l5 46q12 109 52 207.5t107 175t160 119.5t212 40q113 -2 192.5 -47.5t127 -121.5t65 -171t7.5 -197l-5 -47q-13 -108 -53.5 -206.5t-107.5 -174t-159.5 -118t-210.5 -39.5q-113 2 -192.5 47t-127 120.5t-65 170t-7.5 196.5zM337 561l-5 -48q-3 -40 -3.5 -91.5
t10.5 -99.5t41 -80t86 -34q62 -3 104.5 26.5t69 77.5t40.5 103t20 104l4 47q4 40 4 92t-11.5 100t-41 81t-86.5 35q-61 3 -103 -27t-68.5 -79t-41 -104t-19.5 -103zM741 1537l242 -277v-18l-212 4l-110 143l-161 -142l-222 -4v20l307 273z" />
    <glyph glyph-name="otilde" unicode="&#xf5;" horiz-adv-x="1055" 
d="M54 514l5 46q12 109 52 207.5t107 175t160 119.5t212 40q113 -2 192.5 -47.5t127 -121.5t65 -171t7.5 -197l-5 -47q-13 -108 -53.5 -206.5t-107.5 -174t-159.5 -118t-210.5 -39.5q-113 2 -192.5 47t-127 120.5t-65 170t-7.5 196.5zM337 561l-5 -48q-3 -40 -3.5 -91.5
t10.5 -99.5t41 -80t86 -34q62 -3 104.5 26.5t69 77.5t40.5 103t20 104l4 47q4 40 4 92t-11.5 100t-41 81t-86.5 35q-61 3 -103 -27t-68.5 -79t-41 -104t-19.5 -103zM844 1532l159 -10q-4 -63 -29.5 -125t-73.5 -103.5t-121 -40.5q-34 1 -64 15t-57.5 32.5t-56.5 32t-61 11.5
q-42 -1 -61 -31.5t-29 -65.5l-162 10q5 61 31 123.5t74 104.5t121 41q33 -1 62 -15.5t57.5 -32.5t57.5 -31.5t63 -11.5q41 1 60.5 31.5t29.5 65.5z" />
    <glyph glyph-name="odieresis" unicode="&#xf6;" horiz-adv-x="1055" 
d="M54 514l5 46q12 109 52 207.5t107 175t160 119.5t212 40q113 -2 192.5 -47.5t127 -121.5t65 -171t7.5 -197l-5 -47q-13 -108 -53.5 -206.5t-107.5 -174t-159.5 -118t-210.5 -39.5q-113 2 -192.5 47t-127 120.5t-65 170t-7.5 196.5zM337 561l-5 -48q-3 -40 -3.5 -91.5
t10.5 -99.5t41 -80t86 -34q62 -3 104.5 26.5t69 77.5t40.5 103t20 104l4 47q4 40 4 92t-11.5 100t-41 81t-86.5 35q-61 3 -103 -27t-68.5 -79t-41 -104t-19.5 -103zM271 1363q0 55 39.5 92t93.5 38q53 1 94.5 -33.5t41.5 -89.5q1 -55 -39 -92t-94 -38q-53 -1 -94 33.5
t-42 89.5zM746 1362q-1 56 39 93t94 38q53 1 94 -34t41 -90q2 -55 -38.5 -91.5t-93.5 -37.5t-94 33.5t-42 88.5z" />
    <glyph glyph-name="divide" unicode="&#xf7;" horiz-adv-x="1062" 
d="M1022 801l-40 -228h-922l41 228h921zM456 1085q1 67 45 110.5t110 44.5q65 1 109.5 -39.5t44.5 -105.5q1 -67 -43.5 -110.5t-110.5 -44.5q-64 -1 -108.5 39.5t-46.5 105.5zM316 274q0 66 44 109.5t111 44.5q64 1 108.5 -39t45.5 -106t-43.5 -109.5t-111.5 -44.5
q-64 -1 -108.5 39t-45.5 106z" />
    <glyph glyph-name="oslash" unicode="&#xf8;" horiz-adv-x="1053" 
d="M1015 1216l-827 -1358h-165l828 1358h164zM55 523l3 21q13 108 53.5 209.5t107.5 181t161 125.5t213 43q114 -3 192.5 -50.5t125 -126.5t63 -175.5t5.5 -196.5l-2 -22q-14 -108 -54.5 -208.5t-108 -179t-161 -123.5t-212.5 -42q-112 3 -191 50t-125.5 124.5t-63 173
t-6.5 196.5zM335 546l-2 -23q-3 -40 -5 -93t8.5 -103t40 -84t86.5 -36q63 -2 105.5 29t69 82t41 108t20.5 106l2 21q5 40 6.5 93.5t-9 104.5t-40 86t-86.5 37q-63 2 -106 -29.5t-69.5 -83.5t-40.5 -109.5t-21 -105.5z" />
    <glyph glyph-name="ugrave" unicode="&#xf9;" horiz-adv-x="1045" 
d="M611 274l140 808h279l-188 -1082h-260zM673 485l75 2q-10 -88 -36 -179t-74 -166t-122.5 -120.5t-179.5 -42.5q-87 2 -143 36.5t-87 92t-40 128.5t-2 146l117 700h277l-117 -703q-3 -28 -1.5 -57.5t10.5 -54t29 -40.5t56 -17q81 -4 130 37t74 105.5t34 132.5zM619 1536
l144 -308h-214l-221 307z" />
    <glyph glyph-name="uacute" unicode="&#xfa;" horiz-adv-x="1045" 
d="M611 274l140 808h279l-188 -1082h-260zM673 485l75 2q-10 -88 -36 -179t-74 -166t-122.5 -120.5t-179.5 -42.5q-87 2 -143 36.5t-87 92t-40 128.5t-2 146l117 700h277l-117 -703q-3 -28 -1.5 -57.5t10.5 -54t29 -40.5t56 -17q81 -4 130 37t74 105.5t34 132.5zM488 1228
l239 308h323l-316 -308h-246z" />
    <glyph glyph-name="ucircumflex" unicode="&#xfb;" horiz-adv-x="1045" 
d="M611 274l140 808h279l-188 -1082h-260zM673 485l75 2q-10 -88 -36 -179t-74 -166t-122.5 -120.5t-179.5 -42.5q-87 2 -143 36.5t-87 92t-40 128.5t-2 146l117 700h277l-117 -703q-3 -28 -1.5 -57.5t10.5 -54t29 -40.5t56 -17q81 -4 130 37t74 105.5t34 132.5zM749 1537
l242 -277v-18l-212 4l-110 143l-161 -142l-222 -4v20l307 273z" />
    <glyph glyph-name="udieresis" unicode="&#xfc;" horiz-adv-x="1045" 
d="M611 274l140 808h279l-188 -1082h-260zM673 485l75 2q-10 -88 -36 -179t-74 -166t-122.5 -120.5t-179.5 -42.5q-87 2 -143 36.5t-87 92t-40 128.5t-2 146l117 700h277l-117 -703q-3 -28 -1.5 -57.5t10.5 -54t29 -40.5t56 -17q81 -4 130 37t74 105.5t34 132.5zM279 1363
q0 55 39.5 92t93.5 38q53 1 94.5 -33.5t41.5 -89.5q1 -55 -39 -92t-94 -38q-53 -1 -94 33.5t-42 89.5zM754 1362q-1 56 39 93t94 38q53 1 94 -34t41 -90q2 -55 -38.5 -91.5t-93.5 -37.5t-94 33.5t-42 88.5z" />
    <glyph glyph-name="yacute" unicode="&#xfd;" horiz-adv-x="943" 
d="M308 137l409 945h305l-596 -1245q-26 -58 -58.5 -107.5t-75 -88t-96 -60t-120.5 -21.5q-33 0 -65 6.5t-63 14.5l22 215q9 0 18.5 -1.5t17.5 -0.5q48 -1 83 12t61.5 39.5t46.5 67.5zM387 1082l61 -794l-15 -298l-185 -20l-150 1112h289zM442 1228l239 308h323l-316 -308
h-246z" />
    <glyph glyph-name="thorn" unicode="&#xfe;" horiz-adv-x="1058" 
d="M547 1536l-339 -1952h-279l339 1952h279zM978 558l-2 -21q-12 -92 -42 -190.5t-83.5 -183t-133 -136t-190.5 -48.5q-98 3 -160 55.5t-94.5 133.5t-43.5 171.5t-7 167.5l6 50q13 86 46 182t86.5 180t131 135.5t181.5 48.5q107 -2 172.5 -54.5t97 -135t38 -176t-2.5 -179.5
zM699 539l2 21q3 38 5 90t-6.5 102.5t-36 84.5t-82.5 36q-58 3 -98.5 -21t-68 -65t-43 -90t-22.5 -96l-18 -134q-4 -40 -1 -84.5t17 -83.5t44.5 -64t81.5 -27q61 -1 102.5 32t66.5 85t38 109.5t19 104.5z" />
    <glyph glyph-name="ydieresis" unicode="&#xff;" horiz-adv-x="943" 
d="M308 137l409 945h305l-596 -1245q-26 -58 -58.5 -107.5t-75 -88t-96 -60t-120.5 -21.5q-33 0 -65 6.5t-63 14.5l22 215q9 0 18.5 -1.5t17.5 -0.5q48 -1 83 12t61.5 39.5t46.5 67.5zM387 1082l61 -794l-15 -298l-185 -20l-150 1112h289zM234 1363q0 55 39.5 92t93.5 38
q53 1 94.5 -33.5t41.5 -89.5q1 -55 -39 -92t-94 -38q-53 -1 -94 33.5t-42 89.5zM709 1362q-1 56 39 93t94 38q53 1 94 -34t41 -90q2 -55 -38.5 -91.5t-93.5 -37.5t-94 33.5t-42 88.5z" />
    <glyph glyph-name="Amacron" unicode="&#x100;" horiz-adv-x="1260" 
d="M766 1187l-546 -1187h-316l736 1456h201zM843 0l-140 1215l14 241h190l233 -1456h-297zM931 542l-42 -238h-695l43 238h694zM1146 1762l-26 -165h-626l27 165h625z" />
    <glyph glyph-name="amacron" unicode="&#x101;" horiz-adv-x="1000" 
d="M560 246l78 494q4 37 -1.5 71t-26.5 56t-65 23q-42 1 -71.5 -16t-48 -46.5t-25.5 -67.5l-277 -2q5 86 45.5 151t104.5 108.5t141.5 65t156.5 20.5q110 -2 192 -47t123 -126.5t30 -195.5l-76 -473q-9 -59 -14.5 -122.5t15.5 -120.5l-2 -18l-272 -1q-17 60 -16.5 123
t9.5 124zM666 660l-27 -166l-116 1q-41 -1 -78.5 -12.5t-68 -34.5t-50 -56t-25.5 -77q-4 -31 3.5 -58t28 -43.5t54.5 -17.5q44 -1 85 16.5t71 50t39 75.5l54 -118q-20 -51 -51 -95.5t-72 -77.5t-90.5 -51.5t-108.5 -17.5q-89 1 -157.5 43.5t-106 114t-33.5 159.5
q5 102 49 172t115 112.5t157.5 62t176.5 19.5zM959 1453l-26 -165h-626l27 165h625z" />
    <glyph glyph-name="Abreve" unicode="&#x102;" horiz-adv-x="1260" 
d="M766 1187l-546 -1187h-316l736 1456h201zM843 0l-140 1215l14 241h190l233 -1456h-297zM931 542l-42 -238h-695l43 238h694zM975 1835l199 2q-6 -97 -55.5 -164.5t-128 -101t-172.5 -31.5q-135 3 -224 80.5t-90 216.5l199 -1q-2 -60 25.5 -97t91.5 -37q65 -1 104.5 35.5
t50.5 97.5z" />
    <glyph glyph-name="abreve" unicode="&#x103;" horiz-adv-x="1000" 
d="M560 246l78 494q4 37 -1.5 71t-26.5 56t-65 23q-42 1 -71.5 -16t-48 -46.5t-25.5 -67.5l-277 -2q5 86 45.5 151t104.5 108.5t141.5 65t156.5 20.5q110 -2 192 -47t123 -126.5t30 -195.5l-76 -473q-9 -59 -14.5 -122.5t15.5 -120.5l-2 -18l-272 -1q-17 60 -16.5 123
t9.5 124zM666 660l-27 -166l-116 1q-41 -1 -78.5 -12.5t-68 -34.5t-50 -56t-25.5 -77q-4 -31 3.5 -58t28 -43.5t54.5 -17.5q44 -1 85 16.5t71 50t39 75.5l54 -118q-20 -51 -51 -95.5t-72 -77.5t-90.5 -51.5t-108.5 -17.5q-89 1 -157.5 43.5t-106 114t-33.5 159.5
q5 102 49 172t115 112.5t157.5 62t176.5 19.5zM787 1525l199 2q-6 -97 -55.5 -164.5t-128 -101t-172.5 -31.5q-135 3 -224 80.5t-90 216.5l199 -1q-2 -60 25.5 -97t91.5 -37q65 -1 104.5 35.5t50.5 97.5z" />
    <glyph glyph-name="Aogonek" unicode="&#x104;" horiz-adv-x="1260" 
d="M766 1187l-546 -1187h-316l736 1456h201zM843 0l-140 1215l14 241h190l233 -1456h-297zM931 542l-42 -238h-695l43 238h694zM915 60l147 -60q-32 -24 -67 -50t-61.5 -58.5t-32.5 -76.5q-2 -22 5.5 -39t32.5 -18q19 -1 37 5.5t35 13.5l17 -157q-32 -22 -68.5 -31.5
t-75.5 -9.5q-89 0 -141.5 56t-51.5 143q1 70 32.5 123t82 92t109.5 67z" />
    <glyph glyph-name="aogonek" unicode="&#x105;" horiz-adv-x="1000" 
d="M560 246l78 494q4 37 -1.5 71t-26.5 56t-65 23q-42 1 -71.5 -16t-48 -46.5t-25.5 -67.5l-277 -2q5 86 45.5 151t104.5 108.5t141.5 65t156.5 20.5q110 -2 192 -47t123 -126.5t30 -195.5l-76 -473q-9 -59 -14.5 -122.5t15.5 -120.5l-2 -18l-272 -1q-17 60 -16.5 123
t9.5 124zM666 660l-27 -166l-116 1q-41 -1 -78.5 -12.5t-68 -34.5t-50 -56t-25.5 -77q-4 -31 3.5 -58t28 -43.5t54.5 -17.5q44 -1 85 16.5t71 50t39 75.5l54 -118q-20 -51 -51 -95.5t-72 -77.5t-90.5 -51.5t-108.5 -17.5q-89 1 -157.5 43.5t-106 114t-33.5 159.5
q5 102 49 172t115 112.5t157.5 62t176.5 19.5zM639 60l147 -60q-32 -24 -67.5 -50t-61.5 -58.5t-32 -76.5q-2 -22 5.5 -39t32.5 -18q19 -1 37 5.5t34 13.5l17 -157q-32 -22 -68.5 -31.5t-74.5 -9.5q-89 0 -141.5 56t-51.5 143q1 70 32.5 123t82 92t109.5 67z" />
    <glyph glyph-name="Cacute" unicode="&#x106;" horiz-adv-x="1217" 
d="M840 483l281 4q-17 -157 -96.5 -272t-205 -177t-283.5 -58q-139 3 -231.5 60t-144 151.5t-66.5 211t1 238.5l26 174q19 128 67 248t127 214.5t190.5 148.5t254.5 51q157 -3 258 -70t151 -182t53 -263l-288 1q2 75 -11 136.5t-54.5 98.5t-127.5 40q-87 3 -146.5 -35
t-96.5 -101.5t-57 -138.5t-30 -146l-25 -177q-7 -59 -11.5 -130.5t7 -136.5t51.5 -108.5t122 -46.5q89 -4 146.5 29.5t90.5 94.5t48 141zM648 1548l239 308h323l-316 -308h-246z" />
    <glyph glyph-name="cacute" unicode="&#x107;" horiz-adv-x="974" 
d="M447 208q51 -1 86 21t56 60t29 83l260 1q-9 -117 -70.5 -206.5t-158.5 -139.5t-214 -47q-116 2 -193.5 46.5t-122.5 119.5t-60.5 170t-5.5 197l6 54q13 108 51 205.5t102.5 173t155.5 117.5t210 39q124 -2 205 -59.5t120 -152t35 -211.5l-261 1q1 45 -7.5 89t-36 73.5
t-80.5 31.5q-63 2 -103 -26.5t-63 -76t-34 -101.5t-17 -103l-5 -55q-4 -39 -7.5 -90.5t4 -99.5t34.5 -80.5t85 -33.5zM442 1228l239 308h323l-316 -308h-246z" />
    <glyph glyph-name="Ccircumflex" unicode="&#x108;" horiz-adv-x="1217" 
d="M840 483l281 4q-17 -157 -96.5 -272t-205 -177t-283.5 -58q-139 3 -231.5 60t-144 151.5t-66.5 211t1 238.5l26 174q19 128 67 248t127 214.5t190.5 148.5t254.5 51q157 -3 258 -70t151 -182t53 -263l-288 1q2 75 -11 136.5t-54.5 98.5t-127.5 40q-87 3 -146.5 -35
t-96.5 -101.5t-57 -138.5t-30 -146l-25 -177q-7 -59 -11.5 -130.5t7 -136.5t51.5 -108.5t122 -46.5q89 -4 146.5 29.5t90.5 94.5t48 141zM908 1857l242 -277v-18l-212 4l-110 143l-161 -142l-222 -4v20l307 273z" />
    <glyph glyph-name="ccircumflex" unicode="&#x109;" horiz-adv-x="974" 
d="M447 208q51 -1 86 21t56 60t29 83l260 1q-9 -117 -70.5 -206.5t-158.5 -139.5t-214 -47q-116 2 -193.5 46.5t-122.5 119.5t-60.5 170t-5.5 197l6 54q13 108 51 205.5t102.5 173t155.5 117.5t210 39q124 -2 205 -59.5t120 -152t35 -211.5l-261 1q1 45 -7.5 89t-36 73.5
t-80.5 31.5q-63 2 -103 -26.5t-63 -76t-34 -101.5t-17 -103l-5 -55q-4 -39 -7.5 -90.5t4 -99.5t34.5 -80.5t85 -33.5zM703 1537l242 -277v-18l-212 4l-110 143l-161 -142l-222 -4v20l307 273z" />
    <glyph glyph-name="Cdotaccent" unicode="&#x10a;" horiz-adv-x="1217" 
d="M840 483l281 4q-17 -157 -96.5 -272t-205 -177t-283.5 -58q-139 3 -231.5 60t-144 151.5t-66.5 211t1 238.5l26 174q19 128 67 248t127 214.5t190.5 148.5t254.5 51q157 -3 258 -70t151 -182t53 -263l-288 1q2 75 -11 136.5t-54.5 98.5t-127.5 40q-87 3 -146.5 -35
t-96.5 -101.5t-57 -138.5t-30 -146l-25 -177q-7 -59 -11.5 -130.5t7 -136.5t51.5 -108.5t122 -46.5q89 -4 146.5 29.5t90.5 94.5t48 141zM672 1706q-1 62 40.5 101.5t102.5 40.5q59 1 101 -35.5t44 -96.5q0 -63 -41.5 -101t-101.5 -39q-58 -1 -101 34.5t-44 95.5z" />
    <glyph glyph-name="cdotaccent" unicode="&#x10b;" horiz-adv-x="974" 
d="M447 208q51 -1 86 21t56 60t29 83l260 1q-9 -117 -70.5 -206.5t-158.5 -139.5t-214 -47q-116 2 -193.5 46.5t-122.5 119.5t-60.5 170t-5.5 197l6 54q13 108 51 205.5t102.5 173t155.5 117.5t210 39q124 -2 205 -59.5t120 -152t35 -211.5l-261 1q1 45 -7.5 89t-36 73.5
t-80.5 31.5q-63 2 -103 -26.5t-63 -76t-34 -101.5t-17 -103l-5 -55q-4 -39 -7.5 -90.5t4 -99.5t34.5 -80.5t85 -33.5zM467 1386q-1 62 40.5 101.5t102.5 40.5q59 1 101 -35.5t44 -96.5q0 -63 -41.5 -101t-101.5 -39q-58 -1 -101 34.5t-44 95.5z" />
    <glyph glyph-name="Ccaron" unicode="&#x10c;" horiz-adv-x="1217" 
d="M840 483l281 4q-17 -157 -96.5 -272t-205 -177t-283.5 -58q-139 3 -231.5 60t-144 151.5t-66.5 211t1 238.5l26 174q19 128 67 248t127 214.5t190.5 148.5t254.5 51q157 -3 258 -70t151 -182t53 -263l-288 1q2 75 -11 136.5t-54.5 98.5t-127.5 40q-87 3 -146.5 -35
t-96.5 -101.5t-57 -138.5t-30 -146l-25 -177q-7 -59 -11.5 -130.5t7 -136.5t51.5 -108.5t122 -46.5q89 -4 146.5 29.5t90.5 94.5t48 141zM705 1857l102 -143l154 142l242 5l1 -18l-313 -277h-174l-241 278v17z" />
    <glyph glyph-name="ccaron" unicode="&#x10d;" horiz-adv-x="974" 
d="M447 208q51 -1 86 21t56 60t29 83l260 1q-9 -117 -70.5 -206.5t-158.5 -139.5t-214 -47q-116 2 -193.5 46.5t-122.5 119.5t-60.5 170t-5.5 197l6 54q13 108 51 205.5t102.5 173t155.5 117.5t210 39q124 -2 205 -59.5t120 -152t35 -211.5l-261 1q1 45 -7.5 89t-36 73.5
t-80.5 31.5q-63 2 -103 -26.5t-63 -76t-34 -101.5t-17 -103l-5 -55q-4 -39 -7.5 -90.5t4 -99.5t34.5 -80.5t85 -33.5zM500 1537l102 -143l154 142l242 5l1 -18l-313 -277h-174l-241 278v17z" />
    <glyph glyph-name="Dcaron" unicode="&#x10e;" horiz-adv-x="1206" 
d="M433 0h-295l44 238l263 -2q127 -1 208.5 56.5t126 152.5t61.5 210l21 149q9 70 8.5 141.5t-20 131.5t-68 98t-135.5 41l-303 1l42 239l272 -1q138 -3 238.5 -56.5t162.5 -145t85 -207.5t8 -244l-21 -148q-20 -138 -76.5 -257.5t-146 -208.5t-209 -139t-266.5 -49z
M557 1456l-252 -1456h-289l252 1456h289zM552 1850l102 -143l154 142l242 5l1 -18l-313 -277h-174l-241 278v17z" />
    <glyph glyph-name="dcaron" unicode="&#x10f;" horiz-adv-x="1201" 
d="M608 252l222 1284h279l-266 -1536h-250zM50 512l5 46q12 94 41.5 191t82 178.5t133 130t193.5 45.5q96 -4 155.5 -57.5t91 -135t41.5 -171t7 -165.5l-10 -76q-15 -81 -47.5 -172.5t-86 -171t-128.5 -129t-173 -46.5q-106 3 -170.5 53.5t-96.5 131t-39 172t1 176.5z
M335 559l-5 -47q-4 -39 -6 -89.5t6 -98.5t35.5 -80.5t83.5 -34.5q69 -2 116.5 34.5t75 93.5t37.5 117l23 161q4 40 0.5 84t-17.5 82.5t-43.5 64t-79.5 26.5q-62 4 -103.5 -26t-66.5 -78.5t-38 -104t-18 -104.5zM1436 1538l-6 -71q-11 -100 -59.5 -191t-119.5 -161l-134 80
q39 61 68 123t42 134l16 86h193z" />
    <glyph glyph-name="Dcroat" unicode="&#x110;" horiz-adv-x="1237" 
d="M463 0h-295l44 238l263 -2q127 -1 208.5 56.5t126 152.5t61.5 210l21 149q9 70 8.5 141.5t-20 131.5t-68 98t-135.5 41l-303 1l42 239l272 -1q138 -3 238.5 -56.5t162.5 -145t85 -207.5t8 -244l-21 -148q-20 -138 -76.5 -257.5t-146 -208.5t-209 -139t-266.5 -49z
M587 1456l-252 -1456h-289l252 1456h289zM690 824l-32 -180h-635l32 180h635z" />
    <glyph glyph-name="dcroat" unicode="&#x111;" horiz-adv-x="1184" 
d="M608 253l222 1283h279l-266 -1536h-249zM52 520l2 22q12 93 42.5 192.5t84 184.5t134.5 136.5t194 47.5q98 -3 159 -58.5t92.5 -140.5t41 -177t6.5 -169l-5 -42q-14 -83 -47.5 -177.5t-88 -177.5t-131.5 -134t-178 -48q-104 3 -169 55.5t-97.5 135t-40.5 175t1 175.5z
M333 544l-2 -22q-3 -37 -5 -89t6 -102.5t35 -84.5t82 -37q72 -3 120 38t75 102.5t37 121.5l17 127q3 39 1 85.5t-15.5 88.5t-42.5 70.5t-80 29.5q-62 3 -103.5 -29.5t-66.5 -85t-38.5 -109.5t-19.5 -104zM1225 1400l-32 -180h-635l32 180h635z" />
    <glyph glyph-name="Emacron" unicode="&#x112;" 
d="M938 238l-42 -238h-684l41 238h685zM557 1456l-252 -1456h-289l252 1456h289zM957 864l-41 -231h-594l40 231h595zM1147 1456l-42 -239h-682l42 239h682zM1092 1765l-26 -165h-626l27 165h625z" />
    <glyph glyph-name="emacron" unicode="&#x113;" horiz-adv-x="1012" 
d="M474 -20q-110 2 -193 42t-135.5 110.5t-75 162t-13.5 195.5l7 65q12 109 51 208t105 177t158.5 121.5t212.5 40.5q112 -2 187 -47t117 -120.5t55.5 -168.5t1.5 -192l-18 -124h-770l33 195l490 -1l5 26q7 49 -0.5 95t-36.5 76.5t-86 33.5q-64 2 -106 -28.5t-66.5 -79.5
t-37 -105.5t-18.5 -106.5l-7 -65q-6 -49 -1.5 -98t22.5 -89.5t54 -66t95 -26.5q75 -2 138.5 28.5t116.5 80.5l110 -162q-43 -62 -108 -101.5t-139.5 -58t-147.5 -17.5zM941 1453l-26 -165h-626l27 165h625z" />
    <glyph glyph-name="Ebreve" unicode="&#x114;" 
d="M938 238l-42 -238h-684l41 238h685zM557 1456l-252 -1456h-289l252 1456h289zM957 864l-41 -231h-594l40 231h595zM1147 1456l-42 -239h-682l42 239h682zM920 1839l199 2q-6 -97 -55.5 -164.5t-128 -101t-172.5 -31.5q-135 3 -224 80.5t-90 216.5l199 -1q-2 -60 25.5 -97
t91.5 -37q65 -1 104.5 35.5t50.5 97.5z" />
    <glyph glyph-name="ebreve" unicode="&#x115;" horiz-adv-x="1012" 
d="M474 -20q-110 2 -193 42t-135.5 110.5t-75 162t-13.5 195.5l7 65q12 109 51 208t105 177t158.5 121.5t212.5 40.5q112 -2 187 -47t117 -120.5t55.5 -168.5t1.5 -192l-18 -124h-770l33 195l490 -1l5 26q7 49 -0.5 95t-36.5 76.5t-86 33.5q-64 2 -106 -28.5t-66.5 -79.5
t-37 -105.5t-18.5 -106.5l-7 -65q-6 -49 -1.5 -98t22.5 -89.5t54 -66t95 -26.5q75 -2 138.5 28.5t116.5 80.5l110 -162q-43 -62 -108 -101.5t-139.5 -58t-147.5 -17.5zM770 1526l199 2q-6 -97 -55.5 -164.5t-128 -101t-172.5 -31.5q-135 3 -224 80.5t-90 216.5l199 -1
q-2 -60 25.5 -97t91.5 -37q65 -1 104.5 35.5t50.5 97.5z" />
    <glyph glyph-name="Edotaccent" unicode="&#x116;" 
d="M938 238l-42 -238h-684l41 238h685zM557 1456l-252 -1456h-289l252 1456h289zM957 864l-41 -231h-594l40 231h595zM1147 1456l-42 -239h-682l42 239h682zM625 1699q-1 62 40.5 101.5t102.5 40.5q59 1 101 -35.5t44 -96.5q0 -63 -41.5 -101t-101.5 -39q-58 -1 -101 34.5
t-44 95.5z" />
    <glyph glyph-name="edotaccent" unicode="&#x117;" horiz-adv-x="1012" 
d="M474 -20q-110 2 -193 42t-135.5 110.5t-75 162t-13.5 195.5l7 65q12 109 51 208t105 177t158.5 121.5t212.5 40.5q112 -2 187 -47t117 -120.5t55.5 -168.5t1.5 -192l-18 -124h-770l33 195l490 -1l5 26q7 49 -0.5 95t-36.5 76.5t-86 33.5q-64 2 -106 -28.5t-66.5 -79.5
t-37 -105.5t-18.5 -106.5l-7 -65q-6 -49 -1.5 -98t22.5 -89.5t54 -66t95 -26.5q75 -2 138.5 28.5t116.5 80.5l110 -162q-43 -62 -108 -101.5t-139.5 -58t-147.5 -17.5zM474 1387q-1 62 40.5 101.5t102.5 40.5q59 1 101 -35.5t44 -96.5q0 -63 -41.5 -101t-101.5 -39
q-58 -1 -101 34.5t-44 95.5z" />
    <glyph glyph-name="Eogonek" unicode="&#x118;" 
d="M938 238l-42 -238h-684l41 238h685zM557 1456l-252 -1456h-289l252 1456h289zM957 864l-41 -231h-594l40 231h595zM1147 1456l-42 -239h-682l42 239h682zM604 60l147 -60q-32 -24 -67 -50t-61.5 -58.5t-31.5 -76.5q-3 -22 4.5 -39t32.5 -18q19 -1 37 5.5t34 13.5l17 -157
q-31 -22 -68 -31.5t-75 -9.5q-88 0 -141 56t-52 143q1 70 32.5 123t82 92t109.5 67z" />
    <glyph glyph-name="eogonek" unicode="&#x119;" horiz-adv-x="1012" 
d="M474 -20q-110 2 -193 42t-135.5 110.5t-75 162t-13.5 195.5l7 65q12 109 51 208t105 177t158.5 121.5t212.5 40.5q112 -2 187 -47t117 -120.5t55.5 -168.5t1.5 -192l-18 -124h-770l33 195l490 -1l5 26q7 49 -0.5 95t-36.5 76.5t-86 33.5q-64 2 -106 -28.5t-66.5 -79.5
t-37 -105.5t-18.5 -106.5l-7 -65q-6 -49 -1.5 -98t22.5 -89.5t54 -66t95 -26.5q75 -2 138.5 28.5t116.5 80.5l110 -162q-43 -62 -108 -101.5t-139.5 -58t-147.5 -17.5zM542 92l146 -60q-31 -24 -66.5 -50t-62 -58.5t-31.5 -76.5q-3 -23 5 -39.5t33 -17.5q18 -1 36 5.5
t36 14.5l16 -158q-31 -22 -68 -32t-75 -10q-89 1 -141.5 57t-52.5 143q2 70 33.5 123t82 91.5t109.5 67.5z" />
    <glyph glyph-name="Ecaron" unicode="&#x11a;" 
d="M938 238l-42 -238h-684l41 238h685zM557 1456l-252 -1456h-289l252 1456h289zM957 864l-41 -231h-594l40 231h595zM1147 1456l-42 -239h-682l42 239h682zM657 1850l102 -143l154 142l242 5l1 -18l-313 -277h-174l-241 278v17z" />
    <glyph glyph-name="ecaron" unicode="&#x11b;" horiz-adv-x="1012" 
d="M474 -20q-110 2 -193 42t-135.5 110.5t-75 162t-13.5 195.5l7 65q12 109 51 208t105 177t158.5 121.5t212.5 40.5q112 -2 187 -47t117 -120.5t55.5 -168.5t1.5 -192l-18 -124h-770l33 195l490 -1l5 26q7 49 -0.5 95t-36.5 76.5t-86 33.5q-64 2 -106 -28.5t-66.5 -79.5
t-37 -105.5t-18.5 -106.5l-7 -65q-6 -49 -1.5 -98t22.5 -89.5t54 -66t95 -26.5q75 -2 138.5 28.5t116.5 80.5l110 -162q-43 -62 -108 -101.5t-139.5 -58t-147.5 -17.5zM506 1538l102 -143l154 142l242 5l1 -18l-313 -277h-174l-241 278v17z" />
    <glyph glyph-name="Gcircumflex" unicode="&#x11c;" horiz-adv-x="1258" 
d="M1188 763l-92 -589q-62 -73 -151 -115.5t-187.5 -61t-189.5 -17.5q-142 2 -238.5 58t-152 149.5t-73.5 211.5t-2 244l25 169q19 132 67.5 252.5t127.5 214.5t191.5 147.5t258.5 50.5q153 -3 253 -62.5t150.5 -166.5t56.5 -254h-279q-2 68 -19 122.5t-57.5 87.5t-116.5 36
q-87 3 -148 -35.5t-100 -102t-61.5 -139.5t-32.5 -148l-25 -173q-8 -65 -9 -137.5t17 -137.5t64 -106t132 -42q41 -1 77.5 6t71 21.5t66.5 35.5l51 264h-235l38 217h522zM914 1857l242 -277v-18l-212 4l-110 143l-161 -142l-222 -4v20l307 273z" />
    <glyph glyph-name="gcircumflex" unicode="&#x11d;" horiz-adv-x="1067" 
d="M794 1082h254l-182 -1063q-18 -143 -90 -244t-185 -153.5t-257 -48.5q-64 2 -128 19.5t-120.5 50.5t-99.5 83l126 179q42 -51 99 -80.5t124 -30.5q72 -2 124.5 25t84.5 77.5t44 119.5l140 830zM54 508l5 47q11 96 42.5 194t86.5 179.5t137.5 129.5t196.5 44
q102 -3 162.5 -54.5t90.5 -131.5t38 -170.5t4 -171.5l-10 -76q-14 -83 -47 -174.5t-86 -170.5t-128 -128t-176 -46q-105 2 -171 52t-100.5 129.5t-44 170.5t-0.5 177zM337 558l-5 -47q-4 -41 -5 -92t10 -98t40.5 -78t86.5 -33q72 -4 121.5 31.5t78 92.5t38.5 120l23 161
q4 43 0.5 87.5t-18.5 82.5t-46 62t-83 25q-63 3 -106.5 -26.5t-71 -77.5t-42.5 -103.5t-21 -106.5zM733 1537l242 -277v-18l-212 4l-110 143l-161 -142l-222 -4v20l307 273z" />
    <glyph glyph-name="Gbreve" unicode="&#x11e;" horiz-adv-x="1258" 
d="M1188 763l-92 -589q-62 -73 -151 -115.5t-187.5 -61t-189.5 -17.5q-142 2 -238.5 58t-152 149.5t-73.5 211.5t-2 244l25 169q19 132 67.5 252.5t127.5 214.5t191.5 147.5t258.5 50.5q153 -3 253 -62.5t150.5 -166.5t56.5 -254h-279q-2 68 -19 122.5t-57.5 87.5t-116.5 36
q-87 3 -148 -35.5t-100 -102t-61.5 -139.5t-32.5 -148l-25 -173q-8 -65 -9 -137.5t17 -137.5t64 -106t132 -42q41 -1 77.5 6t71 21.5t66.5 35.5l51 264h-235l38 217h522zM974 1845l199 2q-6 -97 -55.5 -164.5t-128 -101t-172.5 -31.5q-135 3 -224 80.5t-90 216.5l199 -1
q-2 -60 25.5 -97t91.5 -37q65 -1 104.5 35.5t50.5 97.5z" />
    <glyph glyph-name="gbreve" unicode="&#x11f;" horiz-adv-x="1067" 
d="M794 1082h254l-182 -1063q-18 -143 -90 -244t-185 -153.5t-257 -48.5q-64 2 -128 19.5t-120.5 50.5t-99.5 83l126 179q42 -51 99 -80.5t124 -30.5q72 -2 124.5 25t84.5 77.5t44 119.5l140 830zM54 508l5 47q11 96 42.5 194t86.5 179.5t137.5 129.5t196.5 44
q102 -3 162.5 -54.5t90.5 -131.5t38 -170.5t4 -171.5l-10 -76q-14 -83 -47 -174.5t-86 -170.5t-128 -128t-176 -46q-105 2 -171 52t-100.5 129.5t-44 170.5t-0.5 177zM337 558l-5 -47q-4 -41 -5 -92t10 -98t40.5 -78t86.5 -33q72 -4 121.5 31.5t78 92.5t38.5 120l23 161
q4 43 0.5 87.5t-18.5 82.5t-46 62t-83 25q-63 3 -106.5 -26.5t-71 -77.5t-42.5 -103.5t-21 -106.5zM792 1525l199 2q-6 -97 -55.5 -164.5t-128 -101t-172.5 -31.5q-135 3 -224 80.5t-90 216.5l199 -1q-2 -60 25.5 -97t91.5 -37q65 -1 104.5 35.5t50.5 97.5z" />
    <glyph glyph-name="Gdotaccent" unicode="&#x120;" horiz-adv-x="1258" 
d="M1188 763l-92 -589q-62 -73 -151 -115.5t-187.5 -61t-189.5 -17.5q-142 2 -238.5 58t-152 149.5t-73.5 211.5t-2 244l25 169q19 132 67.5 252.5t127.5 214.5t191.5 147.5t258.5 50.5q153 -3 253 -62.5t150.5 -166.5t56.5 -254h-279q-2 68 -19 122.5t-57.5 87.5t-116.5 36
q-87 3 -148 -35.5t-100 -102t-61.5 -139.5t-32.5 -148l-25 -173q-8 -65 -9 -137.5t17 -137.5t64 -106t132 -42q41 -1 77.5 6t71 21.5t66.5 35.5l51 264h-235l38 217h522zM679 1706q-1 62 40.5 101.5t102.5 40.5q59 1 101 -35.5t44 -96.5q0 -63 -41.5 -101t-101.5 -39
q-58 -1 -101 34.5t-44 95.5z" />
    <glyph glyph-name="gdotaccent" unicode="&#x121;" horiz-adv-x="1067" 
d="M794 1082h254l-182 -1063q-18 -143 -90 -244t-185 -153.5t-257 -48.5q-64 2 -128 19.5t-120.5 50.5t-99.5 83l126 179q42 -51 99 -80.5t124 -30.5q72 -2 124.5 25t84.5 77.5t44 119.5l140 830zM54 508l5 47q11 96 42.5 194t86.5 179.5t137.5 129.5t196.5 44
q102 -3 162.5 -54.5t90.5 -131.5t38 -170.5t4 -171.5l-10 -76q-14 -83 -47 -174.5t-86 -170.5t-128 -128t-176 -46q-105 2 -171 52t-100.5 129.5t-44 170.5t-0.5 177zM337 558l-5 -47q-4 -41 -5 -92t10 -98t40.5 -78t86.5 -33q72 -4 121.5 31.5t78 92.5t38.5 120l23 161
q4 43 0.5 87.5t-18.5 82.5t-46 62t-83 25q-63 3 -106.5 -26.5t-71 -77.5t-42.5 -103.5t-21 -106.5zM496 1386q-1 62 40.5 101.5t102.5 40.5q59 1 101 -35.5t44 -96.5q0 -63 -41.5 -101t-101.5 -39q-58 -1 -101 34.5t-44 95.5z" />
    <glyph glyph-name="uni0122" unicode="&#x122;" horiz-adv-x="1258" 
d="M1188 763l-92 -589q-62 -73 -151 -115.5t-187.5 -61t-189.5 -17.5q-142 2 -238.5 58t-152 149.5t-73.5 211.5t-2 244l25 169q19 132 67.5 252.5t127.5 214.5t191.5 147.5t258.5 50.5q153 -3 253 -62.5t150.5 -166.5t56.5 -254h-279q-2 68 -19 122.5t-57.5 87.5t-116.5 36
q-87 3 -148 -35.5t-100 -102t-61.5 -139.5t-32.5 -148l-25 -173q-8 -65 -9 -137.5t17 -137.5t64 -106t132 -42q41 -1 77.5 6t71 21.5t66.5 35.5l51 264h-235l38 217h522zM632 -97l-6 -71q-11 -100 -59.5 -191t-119.5 -161l-134 80q39 61 68 123t42 134l16 86h193z" />
    <glyph glyph-name="uni0123" unicode="&#x123;" horiz-adv-x="1067" 
d="M794 1082h254l-182 -1063q-18 -143 -90 -244t-185 -153.5t-257 -48.5q-64 2 -128 19.5t-120.5 50.5t-99.5 83l126 179q42 -51 99 -80.5t124 -30.5q72 -2 124.5 25t84.5 77.5t44 119.5l140 830zM54 508l5 47q11 96 42.5 194t86.5 179.5t137.5 129.5t196.5 44
q102 -3 162.5 -54.5t90.5 -131.5t38 -170.5t4 -171.5l-10 -76q-14 -83 -47 -174.5t-86 -170.5t-128 -128t-176 -46q-105 2 -171 52t-100.5 129.5t-44 170.5t-0.5 177zM337 558l-5 -47q-4 -41 -5 -92t10 -98t40.5 -78t86.5 -33q72 -4 121.5 31.5t78 92.5t38.5 120l23 161
q4 43 0.5 87.5t-18.5 82.5t-46 62t-83 25q-63 3 -106.5 -26.5t-71 -77.5t-42.5 -103.5t-21 -106.5zM507 1259l20 135q8 64 29.5 123.5t57 111t88.5 89.5l144 -79q-35 -62 -62.5 -124t-40.5 -131l-23 -125h-213z" />
    <glyph glyph-name="Hcircumflex" unicode="&#x124;" horiz-adv-x="1311" 
d="M1030 864l-42 -237h-660l42 237h660zM557 1456l-252 -1456h-289l252 1456h289zM1339 1456l-253 -1456h-287l253 1456h287zM938 1850l242 -277v-18l-212 4l-110 143l-161 -142l-222 -4v20l307 273z" />
    <glyph glyph-name="hcircumflex" unicode="&#x125;" horiz-adv-x="1045" 
d="M537 1536l-266 -1536h-278l267 1536h277zM333 579l-71 -3q10 87 38.5 180t80 173t127.5 128.5t181 45.5q88 -2 144 -39t85.5 -97.5t37.5 -134t-1 -149.5l-114 -683h-278l115 686q5 46 0 88.5t-30 70t-80 28.5q-61 2 -102.5 -25t-68.5 -71.5t-42 -96.5t-22 -101zM776 1916
l242 -277v-18l-212 4l-110 143l-161 -142l-222 -4v20l307 273z" />
    <glyph glyph-name="Hbar" unicode="&#x126;" horiz-adv-x="1341" 
d="M1423 1221l-30 -172h-1276l30 172h1276zM1047 864l-41 -237h-660l42 237h659zM575 1456l-253 -1456h-288l253 1456h288zM1358 1456l-253 -1456h-289l253 1456h289z" />
    <glyph glyph-name="hbar" unicode="&#x127;" horiz-adv-x="1075" 
d="M567 1536l-266 -1536h-278l267 1536h277zM363 579l-71 -3q10 87 38.5 180t80 173t127.5 128.5t181 45.5q88 -2 144 -39t85.5 -97.5t37.5 -134t-1 -149.5l-114 -683h-278l115 686q5 46 0 88.5t-30 70t-80 28.5q-61 2 -102.5 -25t-68.5 -71.5t-42 -96.5t-22 -101zM760 1397
l-32 -180h-635l32 180h635z" />
    <glyph glyph-name="Itilde" unicode="&#x128;" horiz-adv-x="558" 
d="M572 1456l-253 -1456h-288l253 1456h288zM664 1845l159 -10q-4 -63 -29.5 -125t-73.5 -103.5t-121 -40.5q-34 1 -64 15t-57.5 32.5t-56.5 32t-61 11.5q-42 -1 -61 -31.5t-29 -65.5l-162 10q5 61 31 123.5t74 104.5t121 41q33 -1 62 -15.5t57.5 -32.5t57.5 -31.5t63 -11.5
q41 1 60.5 31.5t29.5 65.5z" />
    <glyph glyph-name="itilde" unicode="&#x129;" horiz-adv-x="531" 
d="M487 1082l-188 -1082h-278l188 1082h278zM595 1516l159 -10q-4 -63 -29.5 -125t-73.5 -103.5t-121 -40.5q-34 1 -64 15t-57.5 32.5t-56.5 32t-61 11.5q-42 -1 -61 -31.5t-29 -65.5l-162 10q5 61 31 123.5t74 104.5t121 41q33 -1 62 -15.5t57.5 -32.5t57.5 -31.5t63 -11.5
q41 1 60.5 31.5t29.5 65.5z" />
    <glyph glyph-name="Imacron" unicode="&#x12a;" horiz-adv-x="558" 
d="M572 1456l-253 -1456h-288l253 1456h288zM792 1765l-26 -165h-626l27 165h625z" />
    <glyph glyph-name="imacron" unicode="&#x12b;" horiz-adv-x="531" 
d="M487 1082l-188 -1082h-278l188 1082h278zM722 1437l-26 -165h-626l27 165h625z" />
    <glyph glyph-name="Ibreve" unicode="&#x12c;" horiz-adv-x="558" 
d="M572 1456l-253 -1456h-288l253 1456h288zM621 1838l199 2q-6 -97 -55.5 -164.5t-128 -101t-172.5 -31.5q-135 3 -224 80.5t-90 216.5l199 -1q-2 -60 25.5 -97t91.5 -37q65 -1 104.5 35.5t50.5 97.5z" />
    <glyph glyph-name="ibreve" unicode="&#x12d;" horiz-adv-x="531" 
d="M487 1082l-188 -1082h-278l188 1082h278zM551 1510l199 2q-6 -97 -55.5 -164.5t-128 -101t-172.5 -31.5q-135 3 -224 80.5t-90 216.5l199 -1q-2 -60 25.5 -97t91.5 -37q65 -1 104.5 35.5t50.5 97.5z" />
    <glyph glyph-name="Iogonek" unicode="&#x12e;" horiz-adv-x="558" 
d="M572 1456l-253 -1456h-288l253 1456h288zM120 63l146 -60q-31 -24 -66.5 -50t-62 -58.5t-30.5 -76.5q-3 -22 4.5 -39t32.5 -18q19 -1 37 5.5t35 13.5l16 -157q-31 -22 -68 -31.5t-75 -9.5q-89 0 -141.5 56t-51.5 143q1 70 32.5 123t82.5 92t109 67z" />
    <glyph glyph-name="iogonek" unicode="&#x12f;" horiz-adv-x="512" 
d="M479 1082l-187 -1082h-278l188 1082h277zM235 1358q-1 67 43.5 110t110.5 44q63 1 107.5 -39t44.5 -105q2 -66 -42.5 -109t-110.5 -44q-63 -1 -107 38.5t-46 104.5zM103 60l146 -60q-31 -24 -66.5 -50t-62 -58.5t-30.5 -76.5q-3 -22 4.5 -39t32.5 -18q19 -1 37 5.5
t35 13.5l16 -157q-31 -22 -68 -31.5t-75 -9.5q-89 0 -141.5 56t-51.5 143q1 70 32.5 123t82.5 92t109 67z" />
    <glyph glyph-name="Idotaccent" unicode="&#x130;" horiz-adv-x="558" 
d="M572 1456l-253 -1456h-288l253 1456h288zM326 1699q-1 62 40.5 101.5t102.5 40.5q59 1 101 -35.5t44 -96.5q0 -63 -41.5 -101t-101.5 -39q-58 -1 -101 34.5t-44 95.5z" />
    <glyph glyph-name="dotlessi" unicode="&#x131;" horiz-adv-x="531" 
d="M487 1082l-188 -1082h-278l188 1082h278z" />
    <glyph glyph-name="IJ" unicode="&#x132;" horiz-adv-x="1601" 
d="M572 1456l-253 -1456h-288l253 1456h288zM1173 447l171 1009h289l-172 -1008q-18 -133 -84.5 -240.5t-174 -169t-246.5 -59.5q-136 3 -224.5 61.5t-129.5 159t-34 230.5l290 -1q-3 -47 3 -95.5t32 -81.5t86 -35q62 -2 102 34t62 90t30 106z" />
    <glyph glyph-name="ij" unicode="&#x133;" horiz-adv-x="1014" 
d="M479 1082l-187 -1082h-278l188 1082h277zM235 1358q-1 67 43.5 110t110.5 44q63 1 107.5 -39t44.5 -105q2 -66 -42.5 -109t-110.5 -44q-63 -1 -107 38.5t-46 104.5zM714 1082h279l-195 -1144q-13 -109 -60.5 -195t-129 -135t-198.5 -48q-37 1 -72.5 6t-70.5 13l25 225
q20 -4 40.5 -8t40.5 -4q45 0 74.5 19.5t46.5 52.5t25 73zM743 1358q-1 66 43 109.5t110 43.5q64 1 108.5 -38.5t44.5 -104.5q1 -67 -43 -109.5t-110 -43.5q-63 -1 -107.5 38.5t-45.5 104.5z" />
    <glyph glyph-name="Jcircumflex" unicode="&#x134;" horiz-adv-x="1042" 
d="M615 447l171 1009h289l-172 -1008q-18 -133 -84.5 -240.5t-174 -169t-246.5 -59.5q-136 3 -224.5 61.5t-129.5 159t-34 230.5l290 -1q-3 -47 3 -95.5t32 -81.5t86 -35q62 -2 102 34t62 90t30 106zM1052 1847l242 -277v-18l-212 4l-110 143l-161 -142l-222 -4v20l307 273z
" />
    <glyph glyph-name="jcircumflex" unicode="&#x135;" horiz-adv-x="545" 
d="M224 1082h278l-191 -1118q-14 -113 -62.5 -205t-132.5 -146t-207 -53q-36 0 -71 5.5t-70 13.5l37 225q22 -7 44 -11.5t45 -4.5q46 1 74 28t43.5 67.5t21.5 79.5zM482 1510l242 -277v-18l-212 4l-110 143l-161 -142l-222 -4v20l307 273z" />
    <glyph glyph-name="uni0136" unicode="&#x136;" horiz-adv-x="1181" 
d="M557 1456l-252 -1456h-289l252 1456h289zM1340 1456l-639 -727l-367 -361l-3 310l250 305l388 473h371zM755 0l-250 682l234 179l343 -861h-327zM579 -30l-6 -71q-11 -100 -59.5 -191t-119.5 -161l-134 80q39 61 68 123t42 134l16 86h193z" />
    <glyph glyph-name="uni0137" unicode="&#x137;" horiz-adv-x="1005" 
d="M544 1537l-267 -1537h-277l267 1537h277zM1082 1082l-510 -540l-279 -257l-66 228l223 251l281 318h351zM603 0l-187 510l210 167l282 -677h-305zM499 -51l-6 -71q-11 -100 -59.5 -191t-119.5 -161l-134 80q39 61 68 123t42 134l16 86h193z" />
    <glyph glyph-name="kgreenlandic" unicode="&#x138;" horiz-adv-x="1109" 
d="M483 1082l-188 -1082h-277l187 1082h278zM1148 1082l-559 -680h-272l13 271h145l306 409h367zM615 0l-169 464l253 133l257 -597h-341z" />
    <glyph glyph-name="Lacute" unicode="&#x139;" horiz-adv-x="1012" 
d="M905 238l-42 -238h-650l41 238h651zM557 1456l-252 -1456h-289l252 1456h289zM291 1537l239 308h323l-316 -308h-246z" />
    <glyph glyph-name="lacute" unicode="&#x13a;" horiz-adv-x="512" 
d="M558 1536l-266 -1536h-278l266 1536h278zM293 1621l239 308h323l-316 -308h-246z" />
    <glyph glyph-name="uni013B" unicode="&#x13b;" horiz-adv-x="1012" 
d="M905 238l-42 -238h-650l41 238h651zM557 1456l-252 -1456h-289l252 1456h289zM521 -84l-6 -71q-11 -100 -59.5 -191t-119.5 -161l-134 80q39 61 68 123t42 134l16 86h193z" />
    <glyph glyph-name="uni013C" unicode="&#x13c;" horiz-adv-x="512" 
d="M558 1536l-266 -1536h-278l266 1536h278zM233 -84l-6 -71q-11 -100 -59.5 -191t-119.5 -161l-134 80q39 61 68 123t42 134l16 86h193z" />
    <glyph glyph-name="Lcaron" unicode="&#x13d;" horiz-adv-x="1012" 
d="M905 238l-42 -238h-650l41 238h651zM557 1456l-252 -1456h-289l252 1456h289zM980 1457l-6 -71q-11 -100 -59.5 -191t-119.5 -161l-134 80q39 61 68 123t42 134l16 86h193z" />
    <glyph glyph-name="lcaron" unicode="&#x13e;" horiz-adv-x="662" 
d="M558 1536l-266 -1536h-278l266 1536h278zM884 1538l-6 -71q-11 -100 -59.5 -191t-119.5 -161l-134 80q39 61 68 123t42 134l16 86h193z" />
    <glyph glyph-name="Ldot" unicode="&#x13f;" horiz-adv-x="1012" 
d="M905 238l-42 -238h-650l41 238h651zM557 1456l-252 -1456h-289l252 1456h289zM577 822q-1 62 40.5 101.5t102.5 40.5q59 1 101 -35.5t44 -96.5q0 -63 -41.5 -101t-101.5 -39q-58 -1 -101 34.5t-44 95.5z" />
    <glyph glyph-name="ldot" unicode="&#x140;" horiz-adv-x="732" 
d="M558 1536l-266 -1536h-278l266 1536h278zM507 769q-1 62 40.5 101.5t102.5 40.5q59 1 101 -35.5t44 -96.5q0 -63 -41.5 -101t-101.5 -39q-58 -1 -101 34.5t-44 95.5z" />
    <glyph glyph-name="Lslash" unicode="&#x141;" horiz-adv-x="1045" 
d="M687 961l-31 -173l-620 -187l31 173zM938 238l-42 -238h-651l42 238h651zM590 1456l-252 -1456h-289l252 1456h289z" />
    <glyph glyph-name="lslash" unicode="&#x142;" horiz-adv-x="588" 
d="M613 961l-31 -173l-546 -188l32 174zM590 1536l-267 -1536h-278l266 1536h279z" />
    <glyph glyph-name="Nacute" unicode="&#x143;" horiz-adv-x="1309" 
d="M1338 1456l-253 -1456h-281l-329 978l-170 -978h-289l252 1456h282l330 -979l170 979h288zM679 1538l239 308h323l-316 -308h-246z" />
    <glyph glyph-name="nacute" unicode="&#x144;" 
d="M417 836l-145 -836h-279l188 1082h260zM333 579l-66 -3q9 91 37.5 185t81 172.5t131 125.5t186.5 44q88 -3 141.5 -40t80 -97t33 -132t-1.5 -145l-115 -689h-278l116 692q5 47 -0.5 88t-30.5 66.5t-80 26.5q-59 2 -100 -25.5t-68.5 -72.5t-43 -97t-23.5 -99zM492 1228
l239 308h323l-316 -308h-246z" />
    <glyph glyph-name="uni0145" unicode="&#x145;" horiz-adv-x="1309" 
d="M1338 1456l-253 -1456h-281l-329 978l-170 -978h-289l252 1456h282l330 -979l170 979h288zM631 -91l-6 -71q-11 -100 -59.5 -191t-119.5 -161l-134 80q39 61 68 123t42 134l16 86h193z" />
    <glyph glyph-name="uni0146" unicode="&#x146;" 
d="M417 836l-145 -836h-279l188 1082h260zM333 579l-66 -3q9 91 37.5 185t81 172.5t131 125.5t186.5 44q88 -3 141.5 -40t80 -97t33 -132t-1.5 -145l-115 -689h-278l116 692q5 47 -0.5 88t-30.5 66.5t-80 26.5q-59 2 -100 -25.5t-68.5 -72.5t-43 -97t-23.5 -99zM498 -84
l-6 -71q-11 -100 -59.5 -191t-119.5 -161l-134 80q39 61 68 123t42 134l16 86h193z" />
    <glyph glyph-name="Ncaron" unicode="&#x147;" horiz-adv-x="1309" 
d="M1338 1456l-253 -1456h-281l-329 978l-170 -978h-289l252 1456h282l330 -979l170 979h288zM736 1847l102 -143l154 142l242 5l1 -18l-313 -277h-174l-241 278v17z" />
    <glyph glyph-name="ncaron" unicode="&#x148;" 
d="M417 836l-145 -836h-279l188 1082h260zM333 579l-66 -3q9 91 37.5 185t81 172.5t131 125.5t186.5 44q88 -3 141.5 -40t80 -97t33 -132t-1.5 -145l-115 -689h-278l116 692q5 47 -0.5 88t-30.5 66.5t-80 26.5q-59 2 -100 -25.5t-68.5 -72.5t-43 -97t-23.5 -99zM548 1537
l102 -143l154 142l242 5l1 -18l-313 -277h-174l-241 278v17z" />
    <glyph glyph-name="napostrophe" unicode="&#x149;" 
d="M417 836l-145 -836h-279l188 1082h260zM333 579l-66 -3q9 91 37.5 185t81 172.5t131 125.5t186.5 44q88 -3 141.5 -40t80 -97t33 -132t-1.5 -145l-115 -689h-278l116 692q5 47 -0.5 88t-30.5 66.5t-80 26.5q-59 2 -100 -25.5t-68.5 -72.5t-43 -97t-23.5 -99zM327 1537
l-6 -71q-11 -100 -59.5 -191t-119.5 -161l-134 80q39 61 68 123t42 134l16 86h193z" />
    <glyph glyph-name="Eng" unicode="&#x14a;" horiz-adv-x="1305" 
d="M266 1456h290l-253 -1456h-289zM335 1345l213 114l468 -1348l-212 -111zM1048 1456h289l-254 -1484q-14 -116 -64 -209.5t-136.5 -148.5t-210.5 -54q-37 0 -73 5.5t-72 14.5l39 232q22 -6 44 -10t45 -4q46 1 74 28t42.5 66.5t21.5 78.5z" />
    <glyph glyph-name="eng" unicode="&#x14b;" horiz-adv-x="1053" 
d="M419 836l-145 -836h-277l188 1082h257zM315 577l-30 -2q11 84 39.5 177t78.5 174t124 130t178 47q90 -2 144.5 -43.5t80.5 -107.5t31.5 -142t-2.5 -149l-113 -698q-15 -113 -63 -205t-132 -145.5t-206 -53.5q-36 1 -70 5.5t-69 12.5l34 229q22 -6 44.5 -10.5t44.5 -4.5
q47 0 74.5 27t42.5 66.5t21 78.5l112 699q4 31 5 67t-6.5 68.5t-29 53t-63.5 22.5q-63 3 -109 -23.5t-78 -70.5t-52 -97t-31 -105z" />
    <glyph glyph-name="Omacron" unicode="&#x14c;" horiz-adv-x="1285" 
d="M1230 804l-22 -156q-20 -131 -70 -252.5t-130.5 -216t-194 -148.5t-259.5 -51q-139 3 -234 60.5t-149 152.5t-71.5 212.5t-2.5 240.5l22 155q20 132 69.5 254t131 218t195.5 151.5t260 51.5q140 -3 234.5 -61.5t148.5 -155t70.5 -215t1.5 -240.5zM917 646l23 159
q7 59 9.5 131.5t-12.5 139.5t-57 111.5t-125 47.5q-88 4 -149.5 -35t-101 -105t-62 -143t-32.5 -148l-22 -159q-8 -60 -9.5 -131.5t14 -137.5t58 -109.5t123.5 -46.5q87 -4 148 35t101 103t62.5 140t31.5 148zM1155 1763l-26 -165h-626l27 165h625z" />
    <glyph glyph-name="omacron" unicode="&#x14d;" horiz-adv-x="1055" 
d="M54 514l5 46q12 109 52 207.5t107 175t160 119.5t212 40q113 -2 192.5 -47.5t127 -121.5t65 -171t7.5 -197l-5 -47q-13 -108 -53.5 -206.5t-107.5 -174t-159.5 -118t-210.5 -39.5q-113 2 -192.5 47t-127 120.5t-65 170t-7.5 196.5zM337 561l-5 -48q-3 -40 -3.5 -91.5
t10.5 -99.5t41 -80t86 -34q62 -3 104.5 26.5t69 77.5t40.5 103t20 104l4 47q4 40 4 92t-11.5 100t-41 81t-86.5 35q-61 3 -103 -27t-68.5 -79t-41 -104t-19.5 -103zM971 1452l-26 -165h-626l27 165h625z" />
    <glyph glyph-name="Obreve" unicode="&#x14e;" horiz-adv-x="1285" 
d="M1230 804l-22 -156q-20 -131 -70 -252.5t-130.5 -216t-194 -148.5t-259.5 -51q-139 3 -234 60.5t-149 152.5t-71.5 212.5t-2.5 240.5l22 155q20 132 69.5 254t131 218t195.5 151.5t260 51.5q140 -3 234.5 -61.5t148.5 -155t70.5 -215t1.5 -240.5zM917 646l23 159
q7 59 9.5 131.5t-12.5 139.5t-57 111.5t-125 47.5q-88 4 -149.5 -35t-101 -105t-62 -143t-32.5 -148l-22 -159q-8 -60 -9.5 -131.5t14 -137.5t58 -109.5t123.5 -46.5q87 -4 148 35t101 103t62.5 140t31.5 148zM983 1835l199 2q-6 -97 -55.5 -164.5t-128 -101t-172.5 -31.5
q-135 3 -224 80.5t-90 216.5l199 -1q-2 -60 25.5 -97t91.5 -37q65 -1 104.5 35.5t50.5 97.5z" />
    <glyph glyph-name="obreve" unicode="&#x14f;" horiz-adv-x="1055" 
d="M54 514l5 46q12 109 52 207.5t107 175t160 119.5t212 40q113 -2 192.5 -47.5t127 -121.5t65 -171t7.5 -197l-5 -47q-13 -108 -53.5 -206.5t-107.5 -174t-159.5 -118t-210.5 -39.5q-113 2 -192.5 47t-127 120.5t-65 170t-7.5 196.5zM337 561l-5 -48q-3 -40 -3.5 -91.5
t10.5 -99.5t41 -80t86 -34q62 -3 104.5 26.5t69 77.5t40.5 103t20 104l4 47q4 40 4 92t-11.5 100t-41 81t-86.5 35q-61 3 -103 -27t-68.5 -79t-41 -104t-19.5 -103zM800 1525l199 2q-6 -97 -55.5 -164.5t-128 -101t-172.5 -31.5q-135 3 -224 80.5t-90 216.5l199 -1
q-2 -60 25.5 -97t91.5 -37q65 -1 104.5 35.5t50.5 97.5z" />
    <glyph glyph-name="Ohungarumlaut" unicode="&#x150;" horiz-adv-x="1285" 
d="M1230 804l-22 -156q-20 -131 -70 -252.5t-130.5 -216t-194 -148.5t-259.5 -51q-139 3 -234 60.5t-149 152.5t-71.5 212.5t-2.5 240.5l22 155q20 132 69.5 254t131 218t195.5 151.5t260 51.5q140 -3 234.5 -61.5t148.5 -155t70.5 -215t1.5 -240.5zM917 646l23 159
q7 59 9.5 131.5t-12.5 139.5t-57 111.5t-125 47.5q-88 4 -149.5 -35t-101 -105t-62 -143t-32.5 -148l-22 -159q-8 -60 -9.5 -131.5t14 -137.5t58 -109.5t123.5 -46.5q87 -4 148 35t101 103t62.5 140t31.5 148zM839 1544l250 301h262l-288 -301h-224zM516 1544l216 301h259
l-257 -301h-218z" />
    <glyph glyph-name="ohungarumlaut" unicode="&#x151;" horiz-adv-x="1055" 
d="M54 514l5 46q12 109 52 207.5t107 175t160 119.5t212 40q113 -2 192.5 -47.5t127 -121.5t65 -171t7.5 -197l-5 -47q-13 -108 -53.5 -206.5t-107.5 -174t-159.5 -118t-210.5 -39.5q-113 2 -192.5 47t-127 120.5t-65 170t-7.5 196.5zM337 561l-5 -48q-3 -40 -3.5 -91.5
t10.5 -99.5t41 -80t86 -34q62 -3 104.5 26.5t69 77.5t40.5 103t20 104l4 47q4 40 4 92t-11.5 100t-41 81t-86.5 35q-61 3 -103 -27t-68.5 -79t-41 -104t-19.5 -103zM655 1234l250 301h262l-288 -301h-224zM332 1234l216 301h259l-257 -301h-218z" />
    <glyph glyph-name="OE" unicode="&#x152;" horiz-adv-x="1797" 
d="M774 1477q67 0 133 -6.5t132 -14.5l-27 -236q-60 14 -123 22.5t-125 8.5q-81 1 -140.5 -29.5t-101.5 -83t-68 -119t-36 -137.5l-47 -307q-8 -58 -5.5 -120.5t21.5 -116.5t62 -89t116 -37q65 -3 131 5t130 19l-24 -237q-62 -8 -125 -13t-126 -4q-123 2 -215.5 51.5
t-151.5 132.5t-82.5 188.5t-8.5 221.5l47 304q18 123 70.5 231.5t134 191.5t190 129t239.5 45zM1631 238l-41 -238h-685l42 238h684zM1250 1456l-252 -1456h-289l253 1456h288zM1650 864l-41 -231h-594l41 231h594zM1840 1456l-41 -239h-683l42 239h682z" />
    <glyph glyph-name="oe" unicode="&#x153;" horiz-adv-x="1664" 
d="M1107 -19q-109 2 -187 47t-125 119.5t-66 167.5t-9 191l4 41q12 103 50 203t102.5 181t155 128t205.5 44q103 -3 174.5 -44.5t114 -110t57 -155t3.5 -179.5l-25 -161h-738l34 194l457 -1l6 29q6 43 1.5 88.5t-29 77.5t-78.5 34q-59 2 -98 -31.5t-63 -86.5t-36.5 -109.5
t-17.5 -100.5l-5 -40q-4 -44 -1.5 -95t17.5 -95.5t49 -73.5t91 -32q76 -3 143.5 19.5t132.5 57.5l59 -186q-74 -67 -177 -95t-201 -26zM71 523l3 21q12 108 52.5 209t107 181t160 125.5t213.5 42.5q113 -2 192 -50t124.5 -126t61.5 -175t6 -197l-2 -22q-14 -108 -54 -208
t-107.5 -179t-160.5 -124t-212 -42q-113 3 -191.5 50t-124.5 124.5t-62.5 173.5t-5.5 196zM352 545l-2 -22q-4 -40 -6 -93t8 -103t39 -84t87 -36q62 -2 104.5 29t68.5 82t40 108t20 106l2 21q4 40 5.5 93.5t-8 105t-39 86t-86.5 36.5q-62 2 -104.5 -30t-69 -83.5
t-40.5 -109.5t-19 -106z" />
    <glyph glyph-name="Racute" unicode="&#x154;" horiz-adv-x="1186" 
d="M268 1456l476 -1q132 -3 231 -52.5t151 -144.5t41 -233q-9 -114 -51.5 -196t-116 -140.5t-172.5 -101.5l-100 -51h-428l41 239l284 -2q70 1 123.5 29.5t87 79.5t42.5 120q7 56 -3.5 103.5t-45 77.5t-95.5 33l-217 1l-211 -1217h-289zM738 0l-179 649l292 1l196 -634
l-1 -16h-308zM565 1538l239 308h323l-316 -308h-246z" />
    <glyph glyph-name="racute" unicode="&#x155;" horiz-adv-x="692" 
d="M421 828l-144 -828h-277l188 1082h261zM741 1091l-36 -274q-23 4 -47 7t-47 3q-55 1 -97 -15.5t-72 -48t-50 -74t-30 -92.5l-52 19q9 70 29.5 154.5t58.5 161t99 125t152 48.5q24 0 46 -4.5t46 -9.5zM345 1228l239 308h323l-316 -308h-246z" />
    <glyph glyph-name="uni0156" unicode="&#x156;" horiz-adv-x="1186" 
d="M268 1456l476 -1q132 -3 231 -52.5t151 -144.5t41 -233q-9 -114 -51.5 -196t-116 -140.5t-172.5 -101.5l-100 -51h-428l41 239l284 -2q70 1 123.5 29.5t87 79.5t42.5 120q7 56 -3.5 103.5t-45 77.5t-95.5 33l-217 1l-211 -1217h-289zM738 0l-179 649l292 1l196 -634
l-1 -16h-308zM533 -84l-6 -71q-11 -100 -59.5 -191t-119.5 -161l-134 80q39 61 68 123t42 134l16 86h193z" />
    <glyph glyph-name="uni0157" unicode="&#x157;" horiz-adv-x="692" 
d="M421 828l-144 -828h-277l188 1082h261zM741 1091l-36 -274q-23 4 -47 7t-47 3q-55 1 -97 -15.5t-72 -48t-50 -74t-30 -92.5l-52 19q9 70 29.5 154.5t58.5 161t99 125t152 48.5q24 0 46 -4.5t46 -9.5zM223 -83l-6 -71q-11 -100 -59.5 -191t-119.5 -161l-134 80
q39 61 68 123t42 134l16 86h193z" />
    <glyph glyph-name="Rcaron" unicode="&#x158;" horiz-adv-x="1186" 
d="M268 1456l476 -1q132 -3 231 -52.5t151 -144.5t41 -233q-9 -114 -51.5 -196t-116 -140.5t-172.5 -101.5l-100 -51h-428l41 239l284 -2q70 1 123.5 29.5t87 79.5t42.5 120q7 56 -3.5 103.5t-45 77.5t-95.5 33l-217 1l-211 -1217h-289zM738 0l-179 649l292 1l196 -634
l-1 -16h-308zM621 1847l102 -143l154 142l242 5l1 -18l-313 -277h-174l-241 278v17z" />
    <glyph glyph-name="rcaron" unicode="&#x159;" horiz-adv-x="692" 
d="M421 828l-144 -828h-277l188 1082h261zM741 1091l-36 -274q-23 4 -47 7t-47 3q-55 1 -97 -15.5t-72 -48t-50 -74t-30 -92.5l-52 19q9 70 29.5 154.5t58.5 161t99 125t152 48.5q24 0 46 -4.5t46 -9.5zM401 1537l102 -143l154 142l242 5l1 -18l-313 -277h-174l-241 278v17z
" />
    <glyph glyph-name="Sacute" unicode="&#x15a;" horiz-adv-x="1148" 
d="M750 389q8 49 -5.5 84t-41 60.5t-64.5 44.5t-77 36q-74 32 -142.5 72t-122.5 93t-83 122.5t-23 160.5q7 102 55 180.5t124.5 131.5t169 78.5t186.5 23.5q134 -3 231.5 -60t149.5 -157.5t47 -232.5l-287 1q3 58 -11.5 106t-51 77.5t-101.5 30.5q-56 1 -104 -20.5t-81 -62
t-42 -97.5q-6 -43 11.5 -75.5t48.5 -57t67.5 -42.5t69.5 -31q79 -33 148 -74.5t120.5 -96t77 -126.5t19.5 -166q-8 -106 -54 -183.5t-119.5 -129t-164 -76.5t-188.5 -24q-106 3 -194.5 37t-151.5 97t-96 150.5t-29 194.5l289 -1q-3 -53 6 -98t33 -77.5t64 -50t98 -17.5
q56 0 102.5 20t77.5 59t39 96zM612 1538l239 308h323l-316 -308h-246z" />
    <glyph glyph-name="sacute" unicode="&#x15b;" horiz-adv-x="961" 
d="M574 301q7 43 -22 70t-70.5 43.5t-72.5 27.5q-56 21 -110 48t-96.5 64.5t-66.5 89.5t-20 121q4 83 41.5 146t98 106.5t134 65t150.5 19.5q105 -1 190.5 -41t136 -116.5t50.5 -186.5l-277 1q2 38 -8.5 70t-35.5 50.5t-69 17.5q-35 1 -66.5 -14t-53.5 -41.5t-28 -62.5
q-6 -31 9 -53t40.5 -36.5t53.5 -25t50 -17.5q82 -29 154.5 -68.5t116 -102.5t38.5 -163q-3 -86 -44 -149.5t-105.5 -104.5t-142 -60.5t-154.5 -18.5q-106 2 -194 46t-140 123.5t-52 190.5l262 -1q-1 -47 13.5 -81.5t46 -53.5t80.5 -19q38 -1 72.5 11.5t59 38.5t31.5 66z
M437 1228l239 308h323l-316 -308h-246z" />
    <glyph glyph-name="Scircumflex" unicode="&#x15c;" horiz-adv-x="1148" 
d="M750 389q8 49 -5.5 84t-41 60.5t-64.5 44.5t-77 36q-74 32 -142.5 72t-122.5 93t-83 122.5t-23 160.5q7 102 55 180.5t124.5 131.5t169 78.5t186.5 23.5q134 -3 231.5 -60t149.5 -157.5t47 -232.5l-287 1q3 58 -11.5 106t-51 77.5t-101.5 30.5q-56 1 -104 -20.5t-81 -62
t-42 -97.5q-6 -43 11.5 -75.5t48.5 -57t67.5 -42.5t69.5 -31q79 -33 148 -74.5t120.5 -96t77 -126.5t19.5 -166q-8 -106 -54 -183.5t-119.5 -129t-164 -76.5t-188.5 -24q-106 3 -194.5 37t-151.5 97t-96 150.5t-29 194.5l289 -1q-3 -53 6 -98t33 -77.5t64 -50t98 -17.5
q56 0 102.5 20t77.5 59t39 96zM872 1847l242 -277v-18l-212 4l-110 143l-161 -142l-222 -4v20l307 273z" />
    <glyph glyph-name="scircumflex" unicode="&#x15d;" horiz-adv-x="961" 
d="M574 301q7 43 -22 70t-70.5 43.5t-72.5 27.5q-56 21 -110 48t-96.5 64.5t-66.5 89.5t-20 121q4 83 41.5 146t98 106.5t134 65t150.5 19.5q105 -1 190.5 -41t136 -116.5t50.5 -186.5l-277 1q2 38 -8.5 70t-35.5 50.5t-69 17.5q-35 1 -66.5 -14t-53.5 -41.5t-28 -62.5
q-6 -31 9 -53t40.5 -36.5t53.5 -25t50 -17.5q82 -29 154.5 -68.5t116 -102.5t38.5 -163q-3 -86 -44 -149.5t-105.5 -104.5t-142 -60.5t-154.5 -18.5q-106 2 -194 46t-140 123.5t-52 190.5l262 -1q-1 -47 13.5 -81.5t46 -53.5t80.5 -19q38 -1 72.5 11.5t59 38.5t31.5 66z
M698 1537l242 -277v-18l-212 4l-110 143l-161 -142l-222 -4v20l307 273z" />
    <glyph glyph-name="Scedilla" unicode="&#x15e;" horiz-adv-x="1148" 
d="M750 389q8 49 -5.5 84t-41 60.5t-64.5 44.5t-77 36q-74 32 -142.5 72t-122.5 93t-83 122.5t-23 160.5q7 102 55 180.5t124.5 131.5t169 78.5t186.5 23.5q134 -3 231.5 -60t149.5 -157.5t47 -232.5l-287 1q3 58 -11.5 106t-51 77.5t-101.5 30.5q-56 1 -104 -20.5t-81 -62
t-42 -97.5q-6 -43 11.5 -75.5t48.5 -57t67.5 -42.5t69.5 -31q79 -33 148 -74.5t120.5 -96t77 -126.5t19.5 -166q-8 -106 -54 -183.5t-119.5 -129t-164 -76.5t-188.5 -24q-106 3 -194.5 37t-151.5 97t-96 150.5t-29 194.5l289 -1q-3 -53 6 -98t33 -77.5t64 -50t98 -17.5
q56 0 102.5 20t77.5 59t39 96zM381 7l206 1l-19 -63q59 -15 85 -59.5t25 -102.5q-2 -73 -34 -120t-84.5 -74t-114 -39t-120.5 -13l10 165q28 3 51 12.5t39 28.5t21 49q5 33 -12.5 47t-44.5 18.5t-50 6.5z" />
    <glyph glyph-name="scedilla" unicode="&#x15f;" horiz-adv-x="961" 
d="M574 301q7 43 -22 70t-70.5 43.5t-72.5 27.5q-56 21 -110 48t-96.5 64.5t-66.5 89.5t-20 121q4 83 41.5 146t98 106.5t134 65t150.5 19.5q105 -1 190.5 -41t136 -116.5t50.5 -186.5l-277 1q2 38 -8.5 70t-35.5 50.5t-69 17.5q-35 1 -66.5 -14t-53.5 -41.5t-28 -62.5
q-6 -31 9 -53t40.5 -36.5t53.5 -25t50 -17.5q82 -29 154.5 -68.5t116 -102.5t38.5 -163q-3 -86 -44 -149.5t-105.5 -104.5t-142 -60.5t-154.5 -18.5q-106 2 -194 46t-140 123.5t-52 190.5l262 -1q-1 -47 13.5 -81.5t46 -53.5t80.5 -19q38 -1 72.5 11.5t59 38.5t31.5 66z
M279 -3l206 1l-19 -63q59 -15 85 -59.5t25 -102.5q-2 -73 -34 -120t-84.5 -74t-114 -39t-120.5 -13l10 165q28 3 51 12.5t39 28.5t21 49q5 33 -12.5 47t-44.5 18.5t-50 6.5z" />
    <glyph glyph-name="Scaron" unicode="&#x160;" horiz-adv-x="1148" 
d="M750 389q8 49 -5.5 84t-41 60.5t-64.5 44.5t-77 36q-74 32 -142.5 72t-122.5 93t-83 122.5t-23 160.5q7 102 55 180.5t124.5 131.5t169 78.5t186.5 23.5q134 -3 231.5 -60t149.5 -157.5t47 -232.5l-287 1q3 58 -11.5 106t-51 77.5t-101.5 30.5q-56 1 -104 -20.5t-81 -62
t-42 -97.5q-6 -43 11.5 -75.5t48.5 -57t67.5 -42.5t69.5 -31q79 -33 148 -74.5t120.5 -96t77 -126.5t19.5 -166q-8 -106 -54 -183.5t-119.5 -129t-164 -76.5t-188.5 -24q-106 3 -194.5 37t-151.5 97t-96 150.5t-29 194.5l289 -1q-3 -53 6 -98t33 -77.5t64 -50t98 -17.5
q56 0 102.5 20t77.5 59t39 96zM669 1847l102 -143l154 142l242 5l1 -18l-313 -277h-174l-241 278v17z" />
    <glyph glyph-name="scaron" unicode="&#x161;" horiz-adv-x="961" 
d="M574 301q7 43 -22 70t-70.5 43.5t-72.5 27.5q-56 21 -110 48t-96.5 64.5t-66.5 89.5t-20 121q4 83 41.5 146t98 106.5t134 65t150.5 19.5q105 -1 190.5 -41t136 -116.5t50.5 -186.5l-277 1q2 38 -8.5 70t-35.5 50.5t-69 17.5q-35 1 -66.5 -14t-53.5 -41.5t-28 -62.5
q-6 -31 9 -53t40.5 -36.5t53.5 -25t50 -17.5q82 -29 154.5 -68.5t116 -102.5t38.5 -163q-3 -86 -44 -149.5t-105.5 -104.5t-142 -60.5t-154.5 -18.5q-106 2 -194 46t-140 123.5t-52 190.5l262 -1q-1 -47 13.5 -81.5t46 -53.5t80.5 -19q38 -1 72.5 11.5t59 38.5t31.5 66z
M494 1537l102 -143l154 142l242 5l1 -18l-313 -277h-174l-241 278v17z" />
    <glyph glyph-name="uni0162" unicode="&#x162;" horiz-adv-x="1156" 
d="M867 1456l-253 -1456h-288l253 1456h288zM1260 1456l-42 -239h-1067l42 239h1067zM363 14l206 1l-19 -63q59 -15 85 -59.5t25 -102.5q-2 -73 -34 -120t-84.5 -74t-114 -39t-120.5 -13l10 165q28 3 51 12.5t39 28.5t21 49q5 33 -12.5 47t-44.5 18.5t-50 6.5z" />
    <glyph glyph-name="uni0163" unicode="&#x163;" horiz-adv-x="641" 
d="M676 1082l-37 -208h-575l37 208h575zM284 1349h277l-174 -1023q-4 -31 -1.5 -55.5t17 -39t49.5 -15.5q19 0 38 2t38 5l-21 -218q-38 -12 -76 -18t-78 -5q-95 1 -151.5 43.5t-79.5 114t-14 159.5zM187 7l206 1l-19 -63q59 -15 85 -59.5t25 -102.5q-2 -73 -34 -120
t-84.5 -74t-114 -39t-120.5 -13l10 165q28 3 51 12.5t39 28.5t21 49q5 33 -12.5 47t-44.5 18.5t-50 6.5z" />
    <glyph glyph-name="Tcaron" unicode="&#x164;" horiz-adv-x="1156" 
d="M867 1456l-253 -1456h-288l253 1456h288zM1260 1456l-42 -239h-1067l42 239h1067zM650 1847l102 -143l154 142l242 5l1 -18l-313 -277h-174l-241 278v17z" />
    <glyph glyph-name="tcaron" unicode="&#x165;" horiz-adv-x="681" 
d="M676 1082l-37 -208h-575l37 208h575zM284 1349h277l-174 -1023q-4 -31 -1.5 -55.5t17 -39t49.5 -15.5q19 0 38 2t38 5l-21 -218q-38 -12 -76 -18t-78 -5q-95 1 -151.5 43.5t-79.5 114t-14 159.5zM966 1667l-6 -71q-11 -100 -59.5 -191t-119.5 -161l-134 80q39 61 68 123
t42 134l16 86h193z" />
    <glyph glyph-name="Tbar" unicode="&#x166;" horiz-adv-x="1155" 
d="M867 1456l-253 -1456h-288l253 1456h288zM1260 1456l-42 -239h-1067l42 239h1067zM935 933l-32 -181h-634l31 181h635z" />
    <glyph glyph-name="tbar" unicode="&#x167;" horiz-adv-x="641" 
d="M676 1082l-37 -208h-575l37 208h575zM284 1349h277l-174 -1023q-4 -31 -1.5 -55.5t17 -39t49.5 -15.5q19 0 38 2t38 5l-21 -218q-38 -12 -76 -18t-78 -5q-95 1 -151.5 43.5t-79.5 114t-14 159.5zM634 716l-33 -181h-635l32 181h636z" />
    <glyph glyph-name="Utilde" unicode="&#x168;" horiz-adv-x="1222" 
d="M975 1456h289l-167 -980q-22 -154 -97.5 -267t-196.5 -172.5t-279 -57.5q-148 3 -251.5 65t-152 172.5t-30.5 258.5l167 981h288l-165 -982q-8 -68 2 -125t48 -93t115 -38q82 -3 137 29.5t85.5 92t41.5 135.5zM991 1842l159 -10q-4 -63 -29.5 -125t-73.5 -103.5
t-121 -40.5q-34 1 -64 15t-57.5 32.5t-56.5 32t-61 11.5q-42 -1 -61 -31.5t-29 -65.5l-162 10q5 61 31 123.5t74 104.5t121 41q33 -1 62 -15.5t57.5 -32.5t57.5 -31.5t63 -11.5q41 1 60.5 31.5t29.5 65.5z" />
    <glyph glyph-name="utilde" unicode="&#x169;" horiz-adv-x="1045" 
d="M611 274l140 808h279l-188 -1082h-260zM673 485l75 2q-10 -88 -36 -179t-74 -166t-122.5 -120.5t-179.5 -42.5q-87 2 -143 36.5t-87 92t-40 128.5t-2 146l117 700h277l-117 -703q-3 -28 -1.5 -57.5t10.5 -54t29 -40.5t56 -17q81 -4 130 37t74 105.5t34 132.5zM852 1531
l159 -10q-4 -63 -29.5 -125t-73.5 -103.5t-121 -40.5q-34 1 -64 15t-57.5 32.5t-56.5 32t-61 11.5q-42 -1 -61 -31.5t-29 -65.5l-162 10q5 61 31 123.5t74 104.5t121 41q33 -1 62 -15.5t57.5 -32.5t57.5 -31.5t63 -11.5q41 1 60.5 31.5t29.5 65.5z" />
    <glyph glyph-name="Umacron" unicode="&#x16a;" horiz-adv-x="1222" 
d="M975 1456h289l-167 -980q-22 -154 -97.5 -267t-196.5 -172.5t-279 -57.5q-148 3 -251.5 65t-152 172.5t-30.5 258.5l167 981h288l-165 -982q-8 -68 2 -125t48 -93t115 -38q82 -3 137 29.5t85.5 92t41.5 135.5zM1119 1762l-26 -165h-626l27 165h625z" />
    <glyph glyph-name="umacron" unicode="&#x16b;" horiz-adv-x="1045" 
d="M611 274l140 808h279l-188 -1082h-260zM673 485l75 2q-10 -88 -36 -179t-74 -166t-122.5 -120.5t-179.5 -42.5q-87 2 -143 36.5t-87 92t-40 128.5t-2 146l117 700h277l-117 -703q-3 -28 -1.5 -57.5t10.5 -54t29 -40.5t56 -17q81 -4 130 37t74 105.5t34 132.5zM980 1452
l-26 -165h-626l27 165h625z" />
    <glyph glyph-name="Ubreve" unicode="&#x16c;" horiz-adv-x="1222" 
d="M975 1456h289l-167 -980q-22 -154 -97.5 -267t-196.5 -172.5t-279 -57.5q-148 3 -251.5 65t-152 172.5t-30.5 258.5l167 981h288l-165 -982q-8 -68 2 -125t48 -93t115 -38q82 -3 137 29.5t85.5 92t41.5 135.5zM949 1835l199 2q-6 -97 -55.5 -164.5t-128 -101
t-172.5 -31.5q-135 3 -224 80.5t-90 216.5l199 -1q-2 -60 25.5 -97t91.5 -37q65 -1 104.5 35.5t50.5 97.5z" />
    <glyph glyph-name="ubreve" unicode="&#x16d;" horiz-adv-x="1045" 
d="M611 274l140 808h279l-188 -1082h-260zM673 485l75 2q-10 -88 -36 -179t-74 -166t-122.5 -120.5t-179.5 -42.5q-87 2 -143 36.5t-87 92t-40 128.5t-2 146l117 700h277l-117 -703q-3 -28 -1.5 -57.5t10.5 -54t29 -40.5t56 -17q81 -4 130 37t74 105.5t34 132.5zM808 1525
l199 2q-6 -97 -55.5 -164.5t-128 -101t-172.5 -31.5q-135 3 -224 80.5t-90 216.5l199 -1q-2 -60 25.5 -97t91.5 -37q65 -1 104.5 35.5t50.5 97.5z" />
    <glyph glyph-name="Uring" unicode="&#x16e;" horiz-adv-x="1222" 
d="M975 1456h289l-167 -980q-22 -154 -97.5 -267t-196.5 -172.5t-279 -57.5q-148 3 -251.5 65t-152 172.5t-30.5 258.5l167 981h288l-165 -982q-8 -68 2 -125t48 -93t115 -38q82 -3 137 29.5t85.5 92t41.5 135.5zM589 1723q0 61 31 109.5t82 76t111 27.5q83 0 145 -56.5
t62 -142.5q0 -61 -31.5 -108.5t-82.5 -74t-110 -26.5q-84 0 -145.5 54.5t-61.5 140.5zM700 1724q-5 -41 17.5 -71t64.5 -30q48 0 84 33.5t42 79.5q6 41 -16.5 72.5t-65.5 31.5q-48 0 -84 -35t-42 -81z" />
    <glyph glyph-name="uring" unicode="&#x16f;" horiz-adv-x="1045" 
d="M611 274l140 808h279l-188 -1082h-260zM673 485l75 2q-10 -88 -36 -179t-74 -166t-122.5 -120.5t-179.5 -42.5q-87 2 -143 36.5t-87 92t-40 128.5t-2 146l117 700h277l-117 -703q-3 -28 -1.5 -57.5t10.5 -54t29 -40.5t56 -17q81 -4 130 37t74 105.5t34 132.5zM449 1413
q0 61 31 109.5t82 76t111 27.5q83 0 145 -56.5t62 -142.5q0 -61 -31.5 -108.5t-82.5 -74t-110 -26.5q-84 0 -145.5 54.5t-61.5 140.5zM560 1414q-5 -41 17.5 -71t64.5 -30q48 0 84 33.5t42 79.5q6 41 -16.5 72.5t-65.5 31.5q-48 0 -84 -35t-42 -81z" />
    <glyph glyph-name="Uhungarumlaut" unicode="&#x170;" horiz-adv-x="1222" 
d="M975 1456h289l-167 -980q-22 -154 -97.5 -267t-196.5 -172.5t-279 -57.5q-148 3 -251.5 65t-152 172.5t-30.5 258.5l167 981h288l-165 -982q-8 -68 2 -125t48 -93t115 -38q82 -3 137 29.5t85.5 92t41.5 135.5zM803 1544l250 301h262l-288 -301h-224zM480 1544l216 301
h259l-257 -301h-218z" />
    <glyph glyph-name="uhungarumlaut" unicode="&#x171;" horiz-adv-x="1045" 
d="M611 274l140 808h279l-188 -1082h-260zM673 485l75 2q-10 -88 -36 -179t-74 -166t-122.5 -120.5t-179.5 -42.5q-87 2 -143 36.5t-87 92t-40 128.5t-2 146l117 700h277l-117 -703q-3 -28 -1.5 -57.5t10.5 -54t29 -40.5t56 -17q81 -4 130 37t74 105.5t34 132.5zM664 1234
l250 301h262l-288 -301h-224zM341 1234l216 301h259l-257 -301h-218z" />
    <glyph glyph-name="Uogonek" unicode="&#x172;" horiz-adv-x="1222" 
d="M975 1456h289l-167 -980q-22 -154 -97.5 -267t-196.5 -172.5t-279 -57.5q-148 3 -251.5 65t-152 172.5t-30.5 258.5l167 981h288l-165 -982q-8 -68 2 -125t48 -93t115 -38q82 -3 137 29.5t85.5 92t41.5 135.5zM682 127l147 -61q-32 -24 -67.5 -49.5t-61.5 -58.5t-31 -76
q-3 -23 4.5 -40t32.5 -18q19 0 37 6.5t34 13.5l17 -158q-32 -21 -68.5 -31t-74.5 -10q-89 0 -141.5 56t-51.5 144q1 70 33 122.5t82.5 91.5t108.5 68z" />
    <glyph glyph-name="uogonek" unicode="&#x173;" horiz-adv-x="1045" 
d="M611 274l140 808h279l-188 -1082h-260zM673 485l75 2q-10 -88 -36 -179t-74 -166t-122.5 -120.5t-179.5 -42.5q-87 2 -143 36.5t-87 92t-40 128.5t-2 146l117 700h277l-117 -703q-3 -28 -1.5 -57.5t10.5 -54t29 -40.5t56 -17q81 -4 130 37t74 105.5t34 132.5zM664 60
l147 -60q-32 -24 -67.5 -50t-62 -58.5t-31.5 -76.5q-2 -22 5.5 -39t32.5 -18q18 -1 36.5 5.5t34.5 13.5l18 -157q-32 -22 -69 -31.5t-75 -9.5q-89 0 -141.5 56t-51.5 143q1 70 32.5 123t82 92t109.5 67z" />
    <glyph glyph-name="Wcircumflex" unicode="&#x174;" horiz-adv-x="1614" 
d="M377 238l441 1218h153l13 -211l-463 -1245h-168zM457 1456l15 -1246l-55 -210h-186l-56 1456h282zM1030 241l394 1215h290l-509 -1456h-185zM1061 1456l63 -1251l-43 -205h-166l-76 1272l66 184h156zM1079 1847l242 -277v-18l-212 4l-110 143l-161 -142l-222 -4v20
l307 273z" />
    <glyph glyph-name="wcircumflex" unicode="&#x175;" horiz-adv-x="1357" 
d="M324 296l334 786h181l-109 -333l-326 -749h-152zM379 1082l2 -813l-41 -269h-167l-56 1082h262zM871 312l268 770h274l-430 -1082h-176zM858 1082l64 -808l-28 -274h-143l-68 774l7 308h168zM906 1537l242 -277v-18l-212 4l-110 143l-161 -142l-222 -4v20l307 273z" />
    <glyph glyph-name="Ycircumflex" unicode="&#x176;" horiz-adv-x="1155" 
d="M466 1456l139 -657l369 657h327l-593 -941l-88 -515h-294l95 544l-259 912h304zM861 1847l242 -277v-18l-212 4l-110 143l-161 -142l-222 -4v20l307 273z" />
    <glyph glyph-name="ycircumflex" unicode="&#x177;" horiz-adv-x="943" 
d="M308 137l409 945h305l-596 -1245q-26 -58 -58.5 -107.5t-75 -88t-96 -60t-120.5 -21.5q-33 0 -65 6.5t-63 14.5l22 215q9 0 18.5 -1.5t17.5 -0.5q48 -1 83 12t61.5 39.5t46.5 67.5zM387 1082l61 -794l-15 -298l-185 -20l-150 1112h289zM704 1537l242 -277v-18l-212 4
l-110 143l-161 -142l-222 -4v20l307 273z" />
    <glyph glyph-name="Ydieresis" unicode="&#x178;" horiz-adv-x="1155" 
d="M466 1456l139 -657l369 657h327l-593 -941l-88 -515h-294l95 544l-259 912h304zM391 1673q0 55 39.5 92t93.5 38q53 1 94.5 -33.5t41.5 -89.5q1 -55 -39 -92t-94 -38q-53 -1 -94 33.5t-42 89.5zM866 1672q-1 56 39 93t94 38q53 1 94 -34t41 -90q2 -55 -38.5 -91.5
t-93.5 -37.5t-94 33.5t-42 88.5z" />
    <glyph glyph-name="Zacute" unicode="&#x179;" horiz-adv-x="1129" 
d="M1007 238l-41 -238h-922l41 238h922zM1174 1274l-995 -1274h-210l32 187l1001 1269h204zM1108 1456l-41 -239h-890l42 239h889zM595 1538l239 308h323l-316 -308h-246z" />
    <glyph glyph-name="zacute" unicode="&#x17a;" horiz-adv-x="954" 
d="M818 229l-40 -229h-733l40 229h733zM924 901l-759 -901h-195l32 186l756 896h197zM858 1082l-40 -229h-687l40 229h687zM446 1228l239 308h323l-316 -308h-246z" />
    <glyph glyph-name="Zdotaccent" unicode="&#x17b;" horiz-adv-x="1129" 
d="M1007 238l-41 -238h-922l41 238h922zM1174 1274l-995 -1274h-210l32 187l1001 1269h204zM1108 1456l-41 -239h-890l42 239h889zM619 1696q-1 62 40.5 101.5t102.5 40.5q59 1 101 -35.5t44 -96.5q0 -63 -41.5 -101t-101.5 -39q-58 -1 -101 34.5t-44 95.5z" />
    <glyph glyph-name="zdotaccent" unicode="&#x17c;" horiz-adv-x="954" 
d="M818 229l-40 -229h-733l40 229h733zM924 901l-759 -901h-195l32 186l756 896h197zM858 1082l-40 -229h-687l40 229h687zM470 1386q-1 62 40.5 101.5t102.5 40.5q59 1 101 -35.5t44 -96.5q0 -63 -41.5 -101t-101.5 -39q-58 -1 -101 34.5t-44 95.5z" />
    <glyph glyph-name="Zcaron" unicode="&#x17d;" horiz-adv-x="1129" 
d="M1007 238l-41 -238h-922l41 238h922zM1174 1274l-995 -1274h-210l32 187l1001 1269h204zM1108 1456l-41 -239h-890l42 239h889zM652 1847l102 -143l154 142l242 5l1 -18l-313 -277h-174l-241 278v17z" />
    <glyph glyph-name="zcaron" unicode="&#x17e;" horiz-adv-x="954" 
d="M818 229l-40 -229h-733l40 229h733zM924 901l-759 -901h-195l32 186l756 896h197zM858 1082l-40 -229h-687l40 229h687zM502 1537l102 -143l154 142l242 5l1 -18l-313 -277h-174l-241 278v17z" />
    <glyph glyph-name="longs" unicode="&#x17f;" horiz-adv-x="501" 
d="M282 0h-278l201 1177q14 115 66.5 202t140.5 135t208 46q39 -1 77.5 -7.5t76.5 -14.5l-43 -220q-21 6 -43 10t-43 4q-47 -1 -80 -21.5t-53 -55t-28 -78.5z" />
    <glyph glyph-name="uni018F" unicode="&#x18f;" horiz-adv-x="1288" 
d="M545 -21q-145 3 -242 61.5t-151 156t-70 218.5t2 248l26 161h914l-41 -239h-619l-7 -34q-11 -61 -5 -117t30.5 -100t70.5 -70.5t115 -28.5q82 -2 143.5 36.5t103.5 101.5t67.5 137t36.5 142l21 149q11 78 5 151t-35.5 132t-87 94.5t-147.5 38.5q-91 1 -179.5 -16
t-173.5 -48l-22 245q51 35 123.5 52t148 21.5t135.5 4.5q146 -2 252.5 -56t172 -147.5t90 -215t6.5 -257.5l-22 -148q-19 -125 -72 -246t-137.5 -218.5t-198 -154t-253.5 -54.5z" />
    <glyph glyph-name="florin" unicode="&#x192;" horiz-adv-x="686" 
d="M702 1082l-32 -208h-180l-142 -925q-13 -109 -58 -197.5t-125 -140.5t-197 -51q-36 1 -71 6t-70 14l35 224q20 -6 41 -11t42 -5q45 1 70 25.5t37 61.5t17 74l142 925h-142l33 208h141l11 95q14 116 66 202t139 134t207 46q38 0 76.5 -6.5t76.5 -14.5l-42 -221
q-22 6 -44 9t-44 3q-46 0 -77.5 -20t-50.5 -54.5t-26 -77.5l-14 -95h181z" />
    <glyph glyph-name="Ohorn" unicode="&#x1a0;" horiz-adv-x="1302" 
d="M1300 1567l178 2q-10 -126 -51.5 -225.5t-125.5 -158t-220 -61.5l15 157q77 2 117.5 47t59 110.5t27.5 128.5zM1221 764l-10 -68q-18 -131 -67.5 -259.5t-132 -233t-198.5 -165.5t-266 -58q-115 3 -198.5 46t-139 115t-85 163.5t-36.5 191.5t5 198l10 67q18 132 68.5 260
t133.5 232t198.5 165.5t264.5 57.5q116 -2 199 -45t138 -115.5t84.5 -163.5t36.5 -191.5t-5 -196.5zM920 694l9 71q5 45 9 105.5t-0.5 122.5t-24 115.5t-59 87.5t-106.5 37q-91 5 -154 -40.5t-104 -119t-63.5 -156.5t-32.5 -155l-9 -69q-6 -46 -9.5 -106.5t1.5 -123
t24.5 -116t59 -88.5t106.5 -37q91 -5 154 41t104 119.5t63.5 156.5t31.5 155z" />
    <glyph glyph-name="ohorn" unicode="&#x1a1;" horiz-adv-x="1086" 
d="M1022 1184l159 2q-10 -119 -51.5 -204.5t-121 -132.5t-202.5 -51l10 124q75 3 116.5 41.5t61 97.5t28.5 123zM53 523l3 21q13 108 53.5 209.5t108 181t161 125t212.5 42.5q114 -2 193 -49.5t125.5 -126t63 -175t5.5 -197.5l-2 -22q-14 -108 -54.5 -208.5t-108.5 -179
t-161 -123t-212 -42.5q-113 3 -191.5 50t-125 124.5t-63.5 173.5t-7 196zM334 545l-2 -22q-4 -40 -5.5 -93t8.5 -103t39.5 -84t86.5 -36q63 -2 106 29t69.5 82t41 108t20.5 106l2 21q4 40 5.5 94t-8.5 105t-39.5 85.5t-86.5 36.5q-63 2 -106 -29.5t-70 -83.5t-41 -109.5
t-20 -106.5z" />
    <glyph glyph-name="Uhorn" unicode="&#x1af;" horiz-adv-x="1329" 
d="M1443 1537l176 2q-11 -146 -60 -250t-144.5 -160t-248.5 -59l15 157q98 2 151 43.5t77 111t34 155.5zM975 1456h289l-164 -960q-23 -154 -98 -271.5t-196 -183t-282 -62.5q-150 3 -252.5 70.5t-149.5 183t-29 262.5l164 961h288l-162 -962q-8 -65 0.5 -128t46 -105
t115.5 -45q85 -3 139.5 36t85.5 104t42 139z" />
    <glyph glyph-name="uhorn" unicode="&#x1b0;" horiz-adv-x="1140" 
d="M1145 1178l158 1q-9 -130 -56 -213t-133.5 -123.5t-217.5 -43.5l13 136q84 2 131.5 30.5t71 82t33.5 130.5zM611 274l140 808h279l-188 -1082h-260zM673 485l74 2q-10 -89 -35.5 -179.5t-73.5 -166t-122.5 -120.5t-180.5 -42q-86 2 -142 36.5t-86.5 92t-40 128.5
t-2.5 146l117 700h277l-117 -703q-3 -28 -1.5 -57.5t10.5 -54.5t29.5 -40.5t55.5 -17.5q81 -3 130 37.5t74.5 105.5t33.5 133z" />
    <glyph glyph-name="uni01F0" unicode="&#x1f0;" horiz-adv-x="545" 
d="M224 1082h278l-191 -1118q-14 -113 -62.5 -205t-132.5 -146t-207 -53q-36 0 -71 5.5t-70 13.5l37 225q22 -7 44 -11.5t45 -4.5q46 1 74 28t43.5 67.5t21.5 79.5zM279 1510l102 -143l154 142l242 5l1 -18l-313 -277h-174l-241 278v17z" />
    <glyph glyph-name="Aringacute" unicode="&#x1fa;" horiz-adv-x="1260" 
d="M766 1187l-546 -1187h-316l736 1456h201zM843 0l-140 1215l14 241h190l233 -1456h-297zM931 542l-42 -238h-695l43 238h694zM759 1791l206 205l270 -1l-283 -205zM614 1557q0 79 55 136t135 57q75 1 126.5 -52t51.5 -127q1 -79 -53 -135t-134 -56q-75 0 -128 51t-53 126z
M719 1558q-4 -30 11.5 -56t49.5 -26q37 -1 63.5 29t31.5 64q5 30 -8 57.5t-48 28.5q-39 0 -66 -30.5t-34 -66.5z" />
    <glyph glyph-name="aringacute" unicode="&#x1fb;" horiz-adv-x="1000" 
d="M560 246l78 494q4 37 -1.5 71t-26.5 56t-65 23q-42 1 -71.5 -16t-48 -46.5t-25.5 -67.5l-277 -2q5 86 45.5 151t104.5 108.5t141.5 65t156.5 20.5q110 -2 192 -47t123 -126.5t30 -195.5l-76 -473q-9 -59 -14.5 -122.5t15.5 -120.5l-2 -18l-272 -1q-17 60 -16.5 123
t9.5 124zM666 660l-27 -166l-116 1q-41 -1 -78.5 -12.5t-68 -34.5t-50 -56t-25.5 -77q-4 -31 3.5 -58t28 -43.5t54.5 -17.5q44 -1 85 16.5t71 50t39 75.5l54 -118q-20 -51 -51 -95.5t-72 -77.5t-90.5 -51.5t-108.5 -17.5q-89 1 -157.5 43.5t-106 114t-33.5 159.5
q5 102 49 172t115 112.5t157.5 62t176.5 19.5zM572 1481l206 205l270 -1l-283 -205zM427 1247q0 79 55 136t135 57q75 1 126.5 -52t51.5 -127q1 -79 -53 -135t-134 -56q-75 0 -128 51t-53 126zM532 1248q-4 -30 11.5 -56t49.5 -26q37 -1 63.5 29t31.5 64q5 30 -8 57.5
t-48 28.5q-39 0 -66 -30.5t-34 -66.5z" />
    <glyph glyph-name="AEacute" unicode="&#x1fc;" horiz-adv-x="1744" 
d="M1020 1285l-784 -1285h-337l945 1456h178zM995 579l-43 -243h-679l42 243h680zM1618 232l-41 -232h-655l40 232h656zM1240 1456l-198 -1456h-276l198 1456h276zM1600 864l-41 -231h-564l40 231h565zM1775 1456l-41 -232h-655l41 232h655zM865 1550l239 308h323l-316 -308
h-246z" />
    <glyph glyph-name="aeacute" unicode="&#x1fd;" horiz-adv-x="1563" 
d="M579 181l85 529q4 36 -1.5 73.5t-27 63t-66.5 27.5q-40 1 -73.5 -14.5t-56.5 -44.5t-31 -68l-275 17q6 88 47.5 152.5t107 106.5t144 62t158.5 18q118 -3 199 -54t119 -139.5t25 -204.5l-80 -489zM701 649l-30 -185l-164 1q-47 -2 -92.5 -20t-77.5 -53t-40 -86
q-5 -38 7.5 -64.5t39 -40.5t63.5 -14q34 -1 72 11.5t72.5 34.5t59.5 51t34 63l110 -155q-37 -75 -104.5 -122.5t-148.5 -69.5t-160 -21q-100 2 -175 42t-114.5 114t-35.5 176q6 98 51 163.5t116 104t155.5 55t168.5 16.5zM1032 -19q-110 1 -189 43t-127.5 113.5t-67.5 163
t-10 192.5l8 70q13 105 52 203.5t103.5 175t155.5 120.5t208 40q102 -3 172.5 -45t112 -111.5t55.5 -155.5t3 -177l-24 -160h-743l34 192l461 -1l6 30q6 41 3 86.5t-26 78.5t-76 35q-61 3 -103 -26.5t-68 -78.5t-40 -104t-20 -102l-8 -69q-5 -50 -1.5 -99.5t22 -90t55 -66
t95.5 -27.5q74 -2 140 21t130 55l56 -188q-47 -43 -109.5 -69.5t-129.5 -38t-130 -10.5zM749 1229l239 308h323l-316 -308h-246z" />
    <glyph glyph-name="Oslashacute" unicode="&#x1fe;" horiz-adv-x="1281" 
d="M1329 1518l-1126 -1613h-192l1126 1613h192zM1235 764l-8 -68q-19 -132 -69 -260t-132.5 -232.5t-198.5 -165.5t-265 -58q-116 3 -199.5 45.5t-139 114.5t-84.5 163.5t-36 191t4 197.5l10 69q18 131 68.5 259.5t133 233t198.5 165.5t265 57q116 -2 199.5 -45t138 -115.5
t84.5 -164t36.5 -191.5t-5.5 -196zM934 694l9 71q6 45 9.5 105.5t-1 122.5t-24 115.5t-59 88t-106.5 37.5q-91 4 -154 -41t-103.5 -118.5t-63.5 -156.5t-32 -154l-9 -71q-6 -46 -9.5 -106.5t1 -122.5t24 -116t59.5 -89t106 -37q91 -4 154 41.5t104 119.5t63.5 157t31.5 154z
M684 1612l239 308h323l-316 -308h-246z" />
    <glyph glyph-name="oslashacute" unicode="&#x1ff;" horiz-adv-x="1053" 
d="M1015 1216l-827 -1358h-165l828 1358h164zM55 523l3 21q13 108 53.5 209.5t107.5 181t161 125.5t213 43q114 -3 192.5 -50.5t125 -126.5t63 -175.5t5.5 -196.5l-2 -22q-14 -108 -54.5 -208.5t-108 -179t-161 -123.5t-212.5 -42q-112 3 -191 50t-125.5 124.5t-63 173
t-6.5 196.5zM335 546l-2 -23q-3 -40 -5 -93t8.5 -103t40 -84t86.5 -36q63 -2 105.5 29t69 82t41 108t20.5 106l2 21q5 40 6.5 93.5t-9 104.5t-40 86t-86.5 37q-63 2 -106 -29.5t-69.5 -83.5t-40.5 -109.5t-21 -105.5zM460 1224l239 308h323l-316 -308h-246z" />
    <glyph glyph-name="uni0218" unicode="&#x218;" horiz-adv-x="1148" 
d="M750 389q8 49 -5.5 84t-41 60.5t-64.5 44.5t-77 36q-74 32 -142.5 72t-122.5 93t-83 122.5t-23 160.5q7 102 55 180.5t124.5 131.5t169 78.5t186.5 23.5q134 -3 231.5 -60t149.5 -157.5t47 -232.5l-287 1q3 58 -11.5 106t-51 77.5t-101.5 30.5q-56 1 -104 -20.5t-81 -62
t-42 -97.5q-6 -43 11.5 -75.5t48.5 -57t67.5 -42.5t69.5 -31q79 -33 148 -74.5t120.5 -96t77 -126.5t19.5 -166q-8 -106 -54 -183.5t-119.5 -129t-164 -76.5t-188.5 -24q-106 3 -194.5 37t-151.5 97t-96 150.5t-29 194.5l289 -1q-3 -53 6 -98t33 -77.5t64 -50t98 -17.5
q56 0 102.5 20t77.5 59t39 96zM567 -94l-6 -71q-11 -100 -59.5 -191t-119.5 -161l-134 80q39 61 68 123t42 134l16 86h193z" />
    <glyph glyph-name="uni0219" unicode="&#x219;" horiz-adv-x="961" 
d="M574 301q7 43 -22 70t-70.5 43.5t-72.5 27.5q-56 21 -110 48t-96.5 64.5t-66.5 89.5t-20 121q4 83 41.5 146t98 106.5t134 65t150.5 19.5q105 -1 190.5 -41t136 -116.5t50.5 -186.5l-277 1q2 38 -8.5 70t-35.5 50.5t-69 17.5q-35 1 -66.5 -14t-53.5 -41.5t-28 -62.5
q-6 -31 9 -53t40.5 -36.5t53.5 -25t50 -17.5q82 -29 154.5 -68.5t116 -102.5t38.5 -163q-3 -86 -44 -149.5t-105.5 -104.5t-142 -60.5t-154.5 -18.5q-106 2 -194 46t-140 123.5t-52 190.5l262 -1q-1 -47 13.5 -81.5t46 -53.5t80.5 -19q38 -1 72.5 11.5t59 38.5t31.5 66z
M464 -104l-6 -71q-11 -100 -59.5 -191t-119.5 -161l-134 80q39 61 68 123t42 134l16 86h193z" />
    <glyph glyph-name="uni021A" unicode="&#x21a;" horiz-adv-x="1156" 
d="M867 1456l-253 -1456h-288l253 1456h288zM1260 1456l-42 -239h-1067l42 239h1067zM548 -87l-6 -71q-11 -100 -59.5 -191t-119.5 -161l-134 80q39 61 68 123t42 134l16 86h193z" />
    <glyph glyph-name="uni021B" unicode="&#x21b;" horiz-adv-x="641" 
d="M676 1082l-37 -208h-575l37 208h575zM284 1349h277l-174 -1023q-4 -31 -1.5 -55.5t17 -39t49.5 -15.5q19 0 38 2t38 5l-21 -218q-38 -12 -76 -18t-78 -5q-95 1 -151.5 43.5t-79.5 114t-14 159.5zM372 -94l-6 -71q-11 -100 -59.5 -191t-119.5 -161l-134 80q39 61 68 123
t42 134l16 86h193z" />
    <glyph glyph-name="uni0237" unicode="&#x237;" horiz-adv-x="546" 
d="M224 1082h278l-191 -1118q-14 -113 -62.5 -205t-132.5 -146t-207 -53q-36 0 -71 5.5t-70 13.5l37 225q22 -7 44 -11.5t45 -4.5q46 1 74 28t43.5 67.5t21.5 79.5z" />
    <glyph glyph-name="uni0259" unicode="&#x259;" horiz-adv-x="990" 
d="M537 1102q110 -2 187.5 -47t125 -120t65.5 -167.5t9 -190.5l-5 -41q-11 -103 -49 -203t-102.5 -181t-154.5 -127.5t-206 -43.5q-103 2 -175 43.5t-114 110t-56.5 155t-3.5 179.5l25 161h737l-34 -194l-456 1l-5 -29q-8 -44 -3.5 -89.5t29 -77t78.5 -33.5q59 -2 98 31.5
t63.5 86.5t37 109.5t16.5 100.5l5 40q5 44 2 94.5t-18 95.5t-48.5 74t-91.5 31q-75 4 -142.5 -18.5t-132.5 -56.5l-59 185q74 67 177 95t201 26z" />
    <glyph glyph-name="uni02BC" unicode="&#x2bc;" horiz-adv-x="450" 
d="M520 1536l-24 -152q-11 -73 -41 -140t-74.5 -126t-98.5 -107l-133 82q43 69 77.5 139t49.5 150l27 154h217z" />
    <glyph glyph-name="circumflex" unicode="&#x2c6;" horiz-adv-x="941" 
d="M694 1537l242 -277v-18l-212 4l-110 143l-161 -142l-222 -4v20l307 273z" />
    <glyph glyph-name="caron" unicode="&#x2c7;" horiz-adv-x="894" 
d="M468 1537l102 -143l154 142l242 5l1 -18l-313 -277h-174l-241 278v17z" />
    <glyph glyph-name="uni02C9" unicode="&#x2c9;" horiz-adv-x="961" 
d="M921 1454l-26 -165h-626l27 165h625z" />
    <glyph glyph-name="breve" unicode="&#x2d8;" horiz-adv-x="884" 
d="M715 1525l199 2q-6 -97 -55.5 -164.5t-128 -101t-172.5 -31.5q-135 3 -224 80.5t-90 216.5l199 -1q-2 -60 25.5 -97t91.5 -37q65 -1 104.5 35.5t50.5 97.5z" />
    <glyph glyph-name="dotaccent" unicode="&#x2d9;" horiz-adv-x="526" 
d="M249 1370q-1 62 40.5 101.5t102.5 40.5q59 1 101 -35.5t44 -96.5q0 -63 -41.5 -101t-101.5 -39q-58 -1 -101 34.5t-44 95.5z" />
    <glyph glyph-name="ring" unicode="&#x2da;" horiz-adv-x="660" 
d="M243 1321q0 61 31 109.5t82 76t111 27.5q83 0 145 -56.5t62 -142.5q0 -61 -31.5 -108.5t-82.5 -74t-110 -26.5q-84 0 -145.5 54.5t-61.5 140.5zM354 1322q-5 -41 17.5 -71t64.5 -30q48 0 84 33.5t42 79.5q6 41 -16.5 72.5t-65.5 31.5q-48 0 -84 -35t-42 -81z" />
    <glyph glyph-name="ogonek" unicode="&#x2db;" horiz-adv-x="581" 
d="M137 60l146 -60q-31 -24 -66.5 -50t-62 -58.5t-30.5 -76.5q-3 -22 4.5 -39t32.5 -18q19 -1 37 5.5t35 13.5l16 -157q-31 -22 -68 -31.5t-75 -9.5q-89 0 -141.5 56t-51.5 143q1 70 32.5 123t82.5 92t109 67z" />
    <glyph glyph-name="tilde" unicode="&#x2dc;" horiz-adv-x="909" 
d="M777 1534l159 -10q-4 -63 -29.5 -125t-73.5 -103.5t-121 -40.5q-34 1 -64 15t-57.5 32.5t-56.5 32t-61 11.5q-42 -1 -61 -31.5t-29 -65.5l-162 10q5 61 31 123.5t74 104.5t121 41q33 -1 62 -15.5t57.5 -32.5t57.5 -31.5t63 -11.5q41 1 60.5 31.5t29.5 65.5z" />
    <glyph glyph-name="hungarumlaut" unicode="&#x2dd;" horiz-adv-x="777" 
d="M479 1234l250 301h262l-288 -301h-224zM156 1234l216 301h259l-257 -301h-218z" />
    <glyph glyph-name="uni02F3" unicode="&#x2f3;" horiz-adv-x="597" 
d="M-9 -237q0 73 51 125.5t124 53.5q69 1 117 -48t49 -118q0 -73 -49 -124t-122 -52q-70 0 -119.5 46t-50.5 117zM96 -235q-3 -25 9.5 -47.5t39.5 -22.5q31 0 54 25.5t28 54.5q3 23 -7.5 46.5t-38.5 24.5q-31 0 -55.5 -26.5t-29.5 -54.5z" />
    <glyph glyph-name="gravecomb" unicode="&#x300;" horiz-adv-x="0" 
d="M-346 1536l125 -308h-210l-200 307z" />
    <glyph glyph-name="acutecomb" unicode="&#x301;" horiz-adv-x="0" 
d="M-506 1228l229 308l319 -1l-306 -307h-242z" />
    <glyph glyph-name="tildecomb" unicode="&#x303;" horiz-adv-x="0" 
d="M-164 1534l159 -10q-4 -63 -29.5 -125t-73.5 -103.5t-121 -40.5q-34 1 -64 15t-57.5 32.5t-56.5 32t-61 11.5q-42 -1 -61 -31.5t-29 -65.5l-162 10q5 61 31 123.5t74 104.5t121 41q33 -1 62 -15.5t57.5 -32.5t57.5 -31.5t63 -11.5q41 1 60.5 31.5t29.5 65.5z" />
    <glyph glyph-name="hookabovecomb" unicode="&#x309;" horiz-adv-x="0" 
d="M-309 1265l-216 1l3 135q24 2 54.5 7.5t54 19.5t28.5 45q4 23 -6 35.5t-27.5 18t-37.5 6.5t-36 2l17 134q44 -1 99 -8t106.5 -26t84.5 -56t31 -97q-1 -66 -43.5 -102t-102.5 -49z" />
    <glyph glyph-name="uni030F" unicode="&#x30f;" horiz-adv-x="0" 
d="M-318 1252h-245l-213 266h288zM-6 1252h-239l-173 266h284z" />
    <glyph glyph-name="dotbelowcomb" unicode="&#x323;" horiz-adv-x="0" 
d="M-883 -240q-1 66 47 104t109 39q60 1 108.5 -34.5t49.5 -98.5q2 -67 -46.5 -104.5t-109.5 -38.5q-60 -1 -108.5 34t-49.5 99z" />
    <glyph glyph-name="tonos" unicode="&#x384;" horiz-adv-x="673" 
d="M324 1258l131 344h267l-220 -344h-178z" />
    <glyph glyph-name="dieresistonos" unicode="&#x385;" horiz-adv-x="1037" 
d="M567 1420l95 329h256l-204 -329h-147zM229 1363q-1 54 36.5 91.5t91.5 38.5q52 1 91.5 -34t40.5 -88q0 -55 -37.5 -92.5t-90.5 -38.5t-92 34t-40 89zM790 1361q-1 55 37 93t92 39q52 1 91.5 -34t40.5 -89q1 -55 -37 -92t-91 -38q-53 -2 -92.5 33t-40.5 88z" />
    <glyph glyph-name="Alphatonos" unicode="&#x386;" horiz-adv-x="1260" 
d="M766 1187l-546 -1187h-316l736 1456h201zM843 0l-140 1215l14 241h190l233 -1456h-297zM931 542l-42 -238h-695l43 238h694zM165 1257l131 344h267l-220 -344h-178z" />
    <glyph glyph-name="anoteleia" unicode="&#x387;" horiz-adv-x="592" 
d="M150 693q-1 67 43 112.5t111 46.5q65 2 109 -40.5t45 -107.5q1 -67 -43.5 -112.5t-110.5 -46.5t-110 41t-44 107z" />
    <glyph glyph-name="Epsilontonos" unicode="&#x388;" horiz-adv-x="1146" 
d="M1038 238l-42 -238h-684l41 238h685zM657 1456l-252 -1456h-289l252 1456h289zM1057 864l-41 -231h-594l40 231h595zM1247 1456l-42 -239h-682l42 239h682zM-115 1260l131 344h267l-220 -344h-178z" />
    <glyph glyph-name="Etatonos" unicode="&#x389;" horiz-adv-x="1411" 
d="M1130 864l-42 -237h-660l42 237h660zM657 1456l-252 -1456h-289l252 1456h289zM1439 1456l-253 -1456h-287l253 1456h287zM-112 1256l131 344h267l-220 -344h-178z" />
    <glyph glyph-name="Iotatonos" unicode="&#x38a;" horiz-adv-x="658" 
d="M672 1456l-253 -1456h-288l253 1456h288zM-112 1260l131 344h267l-220 -344h-178z" />
    <glyph glyph-name="Omicrontonos" unicode="&#x38c;" horiz-adv-x="1305" 
d="M1250 804l-22 -156q-20 -131 -70 -252.5t-130.5 -216t-194 -148.5t-259.5 -51q-139 3 -234 60.5t-149 152.5t-71.5 212.5t-2.5 240.5l22 155q20 132 69.5 254t131 218t195.5 151.5t260 51.5q140 -3 234.5 -61.5t148.5 -155t70.5 -215t1.5 -240.5zM937 646l23 159
q7 59 9.5 131.5t-12.5 139.5t-57 111.5t-125 47.5q-88 4 -149.5 -35t-101 -105t-62 -143t-32.5 -148l-22 -159q-8 -60 -9.5 -131.5t14 -137.5t58 -109.5t123.5 -46.5q87 -4 148 35t101 103t62.5 140t31.5 148zM-18 1257l131 344h267l-220 -344h-178z" />
    <glyph glyph-name="Upsilontonos" unicode="&#x38e;" horiz-adv-x="1255" 
d="M566 1456l139 -657l369 657h327l-593 -941l-88 -515h-294l95 544l-259 912h304zM-99 1257l131 344h267l-220 -344h-178z" />
    <glyph glyph-name="Omegatonos" unicode="&#x38f;" horiz-adv-x="1272" 
d="M868 774l11 90q6 43 8.5 104t-6.5 121.5t-40 102t-94 44.5q-70 4 -117 -33.5t-77 -97t-46 -124.5t-23 -118l-12 -89q-6 -49 -16.5 -125t-12 -157.5t18.5 -148.5t74 -97l-14 -146q-110 24 -186 94t-121 167.5t-60.5 205t-3.5 207.5l11 87q17 118 65 229t125 199t182 139
t235 47q125 -2 213 -56t141 -143t72.5 -197t6.5 -218l-12 -87q-16 -115 -63.5 -228t-123.5 -208t-176.5 -159t-222.5 -81l16 146q67 36 111 97t71 134.5t42 151t24 147.5zM579 0l43 241h456l-42 -241h-457zM31 0l42 241h464l-42 -241h-464zM2 1257l131 344h267l-220 -344
h-178z" />
    <glyph glyph-name="iotadieresistonos" unicode="&#x390;" horiz-adv-x="643" 
d="M213 1082h278l-127 -748q-4 -30 -2 -54t17 -38.5t49 -16.5q20 -1 39 1.5t38 4.5l-23 -217q-37 -13 -75.5 -19t-78.5 -5q-94 1 -151 44t-79.5 114.5t-13.5 158.5zM345 1398l95 329h256l-204 -329h-147zM7 1341q-1 54 36.5 91.5t91.5 38.5q52 1 91.5 -34t40.5 -88
q0 -55 -37.5 -92.5t-90.5 -38.5t-92 34t-40 89zM568 1339q-1 55 37 93t92 39q52 1 91.5 -34t40.5 -89q1 -55 -37 -92t-91 -38q-53 -2 -92.5 33t-40.5 88z" />
    <glyph glyph-name="Alpha" unicode="&#x391;" horiz-adv-x="1260" 
d="M766 1187l-546 -1187h-316l736 1456h201zM843 0l-140 1215l14 241h190l233 -1456h-297zM931 542l-42 -238h-695l43 238h694z" />
    <glyph glyph-name="Beta" unicode="&#x392;" horiz-adv-x="1191" 
d="M654 637h-339l35 209l262 -2q63 1 115.5 21.5t87 62.5t43.5 108q9 59 -5.5 98t-51 60t-94.5 22l-191 1l-211 -1217h-289l252 1456l449 -1q93 -2 174.5 -24.5t142.5 -69.5t93.5 -120t25.5 -176q-8 -113 -64 -189t-145.5 -116t-196.5 -46zM536 0h-418l153 237l276 -1
q63 2 113 26t82 68.5t40 108.5q8 51 0 94.5t-38 71.5t-87 31l-278 1l38 209l314 -1l50 -81q96 -5 162.5 -46.5t98.5 -113.5t25 -168q-10 -150 -83 -246.5t-190.5 -143.5t-257.5 -46z" />
    <glyph glyph-name="Gamma" unicode="&#x393;" horiz-adv-x="1040" 
d="M1131 1456l-42 -239h-571l-212 -1217h-288l252 1456h861z" />
    <glyph glyph-name="uni0394" unicode="&#x394;" horiz-adv-x="1363" 
d="M899 1319l-670 -1319h-313l767 1456h155zM946 0l-213 1354l88 102h161l257 -1456h-293zM1016 238l-42 -238h-821l42 238h821z" />
    <glyph glyph-name="uni0394" unicode="&#x2206;" horiz-adv-x="1363" 
d="M899 1319l-670 -1319h-313l767 1456h155zM946 0l-213 1354l88 102h161l257 -1456h-293zM1016 238l-42 -238h-821l42 238h821z" />
    <glyph glyph-name="Epsilon" unicode="&#x395;" 
d="M938 238l-42 -238h-684l41 238h685zM557 1456l-252 -1456h-289l252 1456h289zM957 864l-41 -231h-594l40 231h595zM1147 1456l-42 -239h-682l42 239h682z" />
    <glyph glyph-name="Zeta" unicode="&#x396;" horiz-adv-x="1129" 
d="M1007 238l-41 -238h-922l41 238h922zM1174 1274l-995 -1274h-210l32 187l1001 1269h204zM1108 1456l-41 -239h-890l42 239h889z" />
    <glyph glyph-name="Eta" unicode="&#x397;" horiz-adv-x="1311" 
d="M1030 864l-42 -237h-660l42 237h660zM557 1456l-252 -1456h-289l252 1456h289zM1339 1456l-253 -1456h-287l253 1456h287z" />
    <glyph glyph-name="Theta" unicode="&#x398;" horiz-adv-x="1281" 
d="M850 838l-40 -229h-326l40 229h326zM1225 764l-10 -68q-18 -131 -67.5 -260t-132.5 -233t-198.5 -165t-265.5 -58q-115 3 -199 45.5t-138.5 114.5t-84.5 163.5t-37 191.5t5 197l9 69q18 131 68.5 259.5t133.5 233t198.5 165.5t264.5 57q116 -2 199.5 -45t138 -115.5
t84 -163.5t37 -191.5t-4.5 -196.5zM923 694l10 71q5 45 9 105.5t-1 122.5t-24 115.5t-59 87.5t-106 38q-92 4 -154.5 -41.5t-103.5 -119t-63.5 -156t-32.5 -153.5l-10 -71q-5 -46 -8.5 -106.5t1.5 -122.5t24.5 -116t59 -89t106.5 -37q91 -5 154 41t103.5 120t63 157
t31.5 154z" />
    <glyph glyph-name="Iota" unicode="&#x399;" horiz-adv-x="558" 
d="M572 1456l-253 -1456h-288l253 1456h288z" />
    <glyph glyph-name="Kappa" unicode="&#x39a;" horiz-adv-x="1181" 
d="M557 1456l-252 -1456h-289l252 1456h289zM1340 1456l-639 -727l-367 -361l-3 310l250 305l388 473h371zM755 0l-250 682l234 179l343 -861h-327z" />
    <glyph glyph-name="Lambda" unicode="&#x39b;" horiz-adv-x="1203" 
d="M732 1155l-502 -1155h-320l685 1456h214zM772 0l-104 1188l24 268h203l180 -1456h-303z" />
    <glyph glyph-name="Mu" unicode="&#x39c;" horiz-adv-x="1622" 
d="M404 1456h235l132 -1058l499 1058h253l-713 -1456h-198zM268 1456h244l-139 -1063l-69 -393h-288zM1405 1456h245l-252 -1456h-290l74 418z" />
    <glyph glyph-name="Nu" unicode="&#x39d;" horiz-adv-x="1309" 
d="M1338 1456l-253 -1456h-281l-329 978l-170 -978h-289l252 1456h282l330 -979l170 979h288z" />
    <glyph glyph-name="Xi" unicode="&#x39e;" horiz-adv-x="1058" 
d="M-12 0l42 238h888l-43 -238h-887zM200 621l40 230h679l-39 -230h-680zM221 1217l42 239h825l-42 -239h-825z" />
    <glyph glyph-name="Omicron" unicode="&#x39f;" horiz-adv-x="1285" 
d="M1230 804l-22 -156q-20 -131 -70 -252.5t-130.5 -216t-194 -148.5t-259.5 -51q-139 3 -234 60.5t-149 152.5t-71.5 212.5t-2.5 240.5l22 155q20 132 69.5 254t131 218t195.5 151.5t260 51.5q140 -3 234.5 -61.5t148.5 -155t70.5 -215t1.5 -240.5zM917 646l23 159
q7 59 9.5 131.5t-12.5 139.5t-57 111.5t-125 47.5q-88 4 -149.5 -35t-101 -105t-62 -143t-32.5 -148l-22 -159q-8 -60 -9.5 -131.5t14 -137.5t58 -109.5t123.5 -46.5q87 -4 148 35t101 103t62.5 140t31.5 148z" />
    <glyph glyph-name="Pi" unicode="&#x3a0;" horiz-adv-x="1313" 
d="M1340 1456l-252 -1456h-289l211 1217h-493l-211 -1217h-289l252 1456h1071z" />
    <glyph glyph-name="Rho" unicode="&#x3a1;" horiz-adv-x="1205" 
d="M637 515l-341 1l42 239l311 -2q70 1 124.5 29.5t88 79t42.5 121.5q9 55 -2.5 107.5t-46 87t-97.5 38.5l-242 1l-211 -1217h-289l252 1456l501 -1q136 -3 236.5 -63.5t151 -165t38.5 -241.5q-13 -153 -90.5 -257.5t-200 -159t-267.5 -53.5z" />
    <glyph glyph-name="Sigma" unicode="&#x3a3;" horiz-adv-x="1058" 
d="M939 238l-42 -238h-818l41 238h819zM1131 1456l-42 -239h-774l42 239h774zM788 745l-1 -17l-582 -728h-234l28 162l486 587l-286 571l25 136h217z" />
    <glyph glyph-name="Tau" unicode="&#x3a4;" horiz-adv-x="1156" 
d="M867 1456l-253 -1456h-288l253 1456h288zM1260 1456l-42 -239h-1067l42 239h1067z" />
    <glyph glyph-name="Upsilon" unicode="&#x3a5;" horiz-adv-x="1155" 
d="M466 1456l139 -657l369 657h327l-593 -941l-88 -515h-294l95 544l-259 912h304z" />
    <glyph glyph-name="Phi" unicode="&#x3a6;" horiz-adv-x="1437" 
d="M779 165l-227 2q-117 2 -206.5 44.5t-149 116.5t-85.5 171.5t-16 210.5q16 166 99.5 297t216.5 206.5t302 75.5l230 -2q118 -3 208 -48t148.5 -122t83.5 -177t14 -213q-17 -165 -100.5 -292t-218 -198.5t-299.5 -71.5zM566 423l231 -3q91 0 158.5 40.5t107.5 110.5
t51 157q7 53 2 105.5t-25 96t-59.5 70.5t-100.5 30l-232 3q-95 0 -162.5 -44t-107.5 -117t-51 -163q-7 -53 -1 -103t27.5 -90.5t61 -65.5t100.5 -27zM1019 1456l-252 -1456h-289l253 1456h288z" />
    <glyph glyph-name="Chi" unicode="&#x3a7;" horiz-adv-x="1186" 
d="M494 1456l149 -503l307 503h342l-492 -735l261 -721h-321l-153 512l-315 -512h-346l505 747l-256 709h319z" />
    <glyph glyph-name="Psi" unicode="&#x3a8;" horiz-adv-x="1354" 
d="M1162 1456h290l-79 -464q-26 -178 -111 -315t-223 -214.5t-324 -77.5l-127 2q-130 3 -225 51t-154.5 130.5t-82 191t-7.5 231.5l78 465h288l-77 -466q-8 -62 -5 -125t23.5 -116t65.5 -86.5t120 -37.5l126 -3q112 -1 182.5 50t109.5 135.5t54 183.5zM974 1456l-253 -1456
h-288l253 1456h288z" />
    <glyph glyph-name="uni03A9" unicode="&#x3a9;" horiz-adv-x="1252" 
d="M848 774l11 90q6 43 8.5 104t-6.5 121.5t-40 102t-94 44.5q-70 4 -117 -33.5t-77 -97t-46 -124.5t-23 -118l-12 -89q-6 -49 -16.5 -125t-12 -157.5t18.5 -148.5t74 -97l-14 -146q-110 24 -186 94t-121 167.5t-60.5 205t-3.5 207.5l11 87q17 118 65 229t125 199t182 139
t235 47q125 -2 213 -56t141 -143t72.5 -197t6.5 -218l-12 -87q-16 -115 -63.5 -228t-123.5 -208t-176.5 -159t-222.5 -81l16 146q67 36 111 97t71 134.5t42 151t24 147.5zM559 0l43 241h456l-42 -241h-457zM11 0l42 241h464l-42 -241h-464z" />
    <glyph glyph-name="uni03A9" unicode="&#x2126;" horiz-adv-x="1252" 
d="M848 774l11 90q6 43 8.5 104t-6.5 121.5t-40 102t-94 44.5q-70 4 -117 -33.5t-77 -97t-46 -124.5t-23 -118l-12 -89q-6 -49 -16.5 -125t-12 -157.5t18.5 -148.5t74 -97l-14 -146q-110 24 -186 94t-121 167.5t-60.5 205t-3.5 207.5l11 87q17 118 65 229t125 199t182 139
t235 47q125 -2 213 -56t141 -143t72.5 -197t6.5 -218l-12 -87q-16 -115 -63.5 -228t-123.5 -208t-176.5 -159t-222.5 -81l16 146q67 36 111 97t71 134.5t42 151t24 147.5zM559 0l43 241h456l-42 -241h-457zM11 0l42 241h464l-42 -241h-464z" />
    <glyph glyph-name="Iotadieresis" unicode="&#x3aa;" horiz-adv-x="558" 
d="M572 1456l-253 -1456h-288l253 1456h288zM92 1676q0 55 39.5 92t93.5 38q53 1 94.5 -33.5t41.5 -89.5q1 -55 -39 -92t-94 -38q-53 -1 -94 33.5t-42 89.5zM567 1675q-1 56 39 93t94 38q53 1 94 -34t41 -90q2 -55 -38.5 -91.5t-93.5 -37.5t-94 33.5t-42 88.5z" />
    <glyph glyph-name="Upsilondieresis" unicode="&#x3ab;" horiz-adv-x="1155" 
d="M466 1456l139 -657l369 657h327l-593 -941l-88 -515h-294l95 544l-259 912h304zM391 1673q0 55 39.5 92t93.5 38q53 1 94.5 -33.5t41.5 -89.5q1 -55 -39 -92t-94 -38q-53 -1 -94 33.5t-42 89.5zM866 1672q-1 56 39 93t94 38q53 1 94 -34t41 -90q2 -55 -38.5 -91.5
t-93.5 -37.5t-94 33.5t-42 88.5z" />
    <glyph glyph-name="alphatonos" unicode="&#x3ac;" horiz-adv-x="1049" 
d="M58 506l2 21q12 92 41.5 194t83 190t134.5 141.5t195 50.5q77 -3 127 -42.5t79.5 -102t43 -135.5t16 -145t-0.5 -128l-4 -41q-13 -77 -42.5 -170t-78.5 -176t-120.5 -135t-168.5 -50q-104 3 -169 53.5t-98 129.5t-41 170t1 175zM339 527l-2 -21q-4 -38 -6 -87.5t7 -97.5
t36 -80t81 -34q56 -3 97 23.5t69 70t45 94t26 95.5l8 73q2 37 1 89t-13 102t-41 84t-81 36q-63 3 -104.5 -32.5t-66.5 -91.5t-37.5 -116t-18.5 -107zM777 1082h244l-125 -736q-2 -12 -5 -32.5t-2.5 -42t8 -37t26.5 -17.5q4 -1 8 0.5t8 2.5l2 -217q-27 -12 -53 -17.5
t-56 -4.5q-60 1 -103 28t-69.5 71t-38.5 97t-11 107l96 582zM571 1257l131 344h267l-220 -344h-178z" />
    <glyph glyph-name="epsilontonos" unicode="&#x3ad;" horiz-adv-x="1039" 
d="M458 589l243 -1l-23 -130l-154 1q-46 -1 -88.5 -14.5t-73 -44t-37.5 -81.5q-5 -30 4.5 -53.5t29 -39.5t45 -24.5t54.5 -9.5q42 0 80.5 13.5t66 42.5t36.5 72l280 1q-7 -90 -48.5 -155t-107 -107t-144.5 -61.5t-161 -18.5q-72 2 -146.5 20t-137.5 56t-100 97.5t-34 145.5
q3 83 41.5 139t99.5 89.5t133 48t142 14.5zM688 516l-209 2q-57 1 -116.5 17t-109.5 47.5t-80 80t-28 115.5q2 91 46 153.5t114 101t151.5 54.5t158.5 14q75 -2 142.5 -23.5t120.5 -63t83 -102.5t31 -141h-274q0 39 -17 64.5t-46.5 38t-67.5 12.5q-39 0 -76.5 -14.5
t-64.5 -43.5t-34 -71q-4 -28 4 -48t25 -33t39.5 -19.5t47.5 -7.5l183 -1zM543 1256l131 344h267l-220 -344h-178z" />
    <glyph glyph-name="etatonos" unicode="&#x3ae;" horiz-adv-x="1053" 
d="M419 836l-145 -836h-278l188 1082h258zM321 578l-54 -3q10 89 41 182.5t84 173t130.5 127.5t183.5 45q86 -2 140.5 -38.5t82.5 -95.5t35 -131t0 -146l-188 -1108h-278l188 1109q3 32 2 63t-10.5 57.5t-31.5 43t-61 17.5q-61 3 -106.5 -23.5t-77 -71t-51 -98t-29.5 -103.5
zM533 1257l131 344h267l-220 -344h-178z" />
    <glyph glyph-name="iotatonos" unicode="&#x3af;" horiz-adv-x="643" 
d="M213 1082h278l-127 -748q-4 -30 -2 -54t17 -38.5t49 -16.5q20 -1 39 1.5t38 4.5l-23 -217q-37 -13 -75.5 -19t-78.5 -5q-94 1 -151 44t-79.5 114.5t-13.5 158.5zM285 1235l131 344h267l-220 -344h-178z" />
    <glyph glyph-name="upsilondieresistonos" unicode="&#x3b0;" horiz-adv-x="1021" 
d="M190 1082h277l-109 -669q-2 -21 -4 -54t1.5 -67.5t18.5 -58.5t48 -26q60 -4 103.5 35t73 99.5t46 123t22.5 106.5q19 127 19 257.5t-26 255.5l254 -1q26 -82 35 -168t6 -173t-14 -171q-14 -112 -52 -218.5t-102.5 -192.5t-158.5 -135.5t-221 -46.5q-96 2 -162.5 37.5
t-106.5 96t-54.5 138.5t-4.5 167zM585 1414l95 329h256l-204 -329h-147zM247 1357q-1 54 36.5 91.5t91.5 38.5q52 1 91.5 -34t40.5 -88q0 -55 -37.5 -92.5t-90.5 -38.5t-92 34t-40 89zM808 1355q-1 55 37 93t92 39q52 1 91.5 -34t40.5 -89q1 -55 -37 -92t-91 -38
q-53 -2 -92.5 33t-40.5 88z" />
    <glyph glyph-name="alpha" unicode="&#x3b1;" horiz-adv-x="1050" 
d="M58 506l2 21q12 92 41.5 194t83 190t134.5 141.5t195 50.5q77 -3 127 -42.5t79.5 -102t43 -135.5t16 -145t-0.5 -128l-4 -41q-13 -77 -42.5 -170t-78.5 -176t-120.5 -135t-168.5 -50q-104 3 -169 53.5t-98 129.5t-41 170t1 175zM339 527l-2 -21q-4 -38 -6 -87.5t7 -97.5
t36 -80t81 -34q56 -3 97 23.5t69 70t45 94t26 95.5l8 73q2 37 1 89t-13 102t-41 84t-81 36q-63 3 -104.5 -32.5t-66.5 -91.5t-37.5 -116t-18.5 -107zM777 1082h244l-125 -736q-2 -12 -5 -32.5t-2.5 -42t8 -37t26.5 -17.5q4 -1 8 0.5t8 2.5l2 -217q-27 -12 -53 -17.5
t-56 -4.5q-60 1 -103 28t-69.5 71t-38.5 97t-11 107l96 582z" />
    <glyph glyph-name="beta" unicode="&#x3b2;" horiz-adv-x="1122" 
d="M549 804l105 -1q114 -3 198.5 -49.5t128.5 -130.5t36 -200q-9 -127 -65.5 -228.5t-154.5 -160t-230 -55.5q-88 2 -158 34.5t-118.5 88.5t-72.5 130.5t-20 159.5l103 13q-4 -65 25.5 -108.5t80.5 -65.5t112 -22q63 -1 111 29t78 79.5t38 108.5q6 51 -2 101t-38 84t-89 37
l-89 1zM703 1477q117 -2 204.5 -49t135 -133t39.5 -205q-8 -116 -71 -200.5t-160 -130t-207 -46.5l-111 1l19 143h51q61 1 101.5 31t62.5 78.5t28 104.5q4 41 -4.5 81.5t-35 68t-74.5 29.5q-58 2 -100 -30.5t-66.5 -83t-32.5 -101.5l-246 -1440h-278l246 1439
q18 127 86.5 228t175.5 159t237 56z" />
    <glyph glyph-name="gamma" unicode="&#x3b3;" horiz-adv-x="957" 
d="M529 89l-88 -506h-278l88 506h278zM403 279l325 803h297l-511 -1082h-194zM392 1082l57 -838l-22 -244h-180l-137 1082h282z" />
    <glyph glyph-name="delta" unicode="&#x3b4;" horiz-adv-x="1053" 
d="M293 1243q5 112 63 186t149 110t195 35q61 0 119 -14.5t116 -32.5l-22 -220q-46 21 -96.5 35.5t-102.5 13.5q-35 0 -69 -11t-59 -34t-33 -61q-6 -24 0.5 -44t21.5 -36.5t33.5 -29t38.5 -21.5q117 -61 197.5 -141.5t117 -187t21.5 -243.5l-1 -21q-14 -107 -55 -206
t-109.5 -177t-162 -122t-209.5 -41q-111 2 -190 46.5t-127 119.5t-66.5 168t-9.5 193l2 21q11 104 56 197.5t120.5 160t182.5 88.5l-2 13q-40 32 -67.5 71.5t-41 86.5t-10.5 98zM337 550l-1 -20q-4 -40 -5 -93.5t9.5 -105.5t40.5 -87.5t86 -37.5q62 -2 104.5 31t70 85.5
t43 110.5t21.5 106l2 20q5 43 2 91.5t-16.5 94t-41.5 80.5t-75 51q-61 0 -104 -32t-71 -81.5t-43.5 -105.5t-21.5 -107z" />
    <glyph glyph-name="epsilon" unicode="&#x3b5;" horiz-adv-x="1039" 
d="M458 589l243 -1l-23 -130l-154 1q-46 -1 -88.5 -14.5t-73 -44t-37.5 -81.5q-5 -30 4.5 -53.5t29 -39.5t45 -24.5t54.5 -9.5q42 0 80.5 13.5t66 42.5t36.5 72l280 1q-7 -90 -48.5 -155t-107 -107t-144.5 -61.5t-161 -18.5q-72 2 -146.5 20t-137.5 56t-100 97.5t-34 145.5
q3 83 41.5 139t99.5 89.5t133 48t142 14.5zM688 516l-209 2q-57 1 -116.5 17t-109.5 47.5t-80 80t-28 115.5q2 91 46 153.5t114 101t151.5 54.5t158.5 14q75 -2 142.5 -23.5t120.5 -63t83 -102.5t31 -141h-274q0 39 -17 64.5t-46.5 38t-67.5 12.5q-39 0 -76.5 -14.5
t-64.5 -43.5t-34 -71q-4 -28 4 -48t25 -33t39.5 -19.5t47.5 -7.5l183 -1z" />
    <glyph glyph-name="zeta" unicode="&#x3b6;" horiz-adv-x="938" 
d="M848 1456h180l-31 -174l-379 -419q-59 -65 -113.5 -133.5t-93.5 -145t-52 -167.5q-4 -32 -3 -60t9.5 -52t27 -43t48.5 -33l62 -23q62 -24 116.5 -52.5t87 -74.5t28.5 -123q-4 -72 -43.5 -137t-96 -118t-113.5 -91l-137 116q22 24 43.5 51t38 57t22.5 64q6 26 -1 42
t-22.5 27.5t-38.5 19.5l-59 21q-64 22 -114 56t-83 79.5t-47.5 103t-7.5 127.5q11 120 60.5 226.5t122 201t150.5 180.5zM226 1456h681l-40 -227h-681z" />
    <glyph glyph-name="eta" unicode="&#x3b7;" horiz-adv-x="1053" 
d="M419 836l-145 -836h-278l188 1082h258zM321 578l-54 -3q10 89 41 182.5t84 173t130.5 127.5t183.5 45q86 -2 140.5 -38.5t82.5 -95.5t35 -131t0 -146l-188 -1108h-278l188 1109q3 32 2 63t-10.5 57.5t-31.5 43t-61 17.5q-61 3 -106.5 -23.5t-77 -71t-51 -98t-29.5 -103.5
z" />
    <glyph glyph-name="theta" unicode="&#x3b8;" horiz-adv-x="1100" 
d="M682 1476q101 -2 169.5 -41.5t110 -104.5t60.5 -146t21.5 -167t-8.5 -167l-37 -240q-13 -88 -38.5 -179t-66.5 -173t-100.5 -145.5t-140.5 -99.5t-187 -33q-101 3 -169.5 42.5t-110.5 104.5t-61.5 146t-21 168t8.5 168l37 241q13 89 38.5 179t67 171.5t101 144.5
t141 98.5t186.5 32.5zM662 1249q-66 4 -107.5 -33.5t-66.5 -96t-38 -120.5t-20 -108l-7 -49h333l8 50q3 28 7.5 72t4.5 92t-10 91t-34.5 71t-69.5 31zM487 207q52 -3 88.5 21.5t61.5 67t41 92t25 98t14 84.5l7 52h-333l-7 -52q-5 -29 -9.5 -73t-4 -93t10 -93t35 -72.5
t71.5 -31.5z" />
    <glyph glyph-name="iota" unicode="&#x3b9;" horiz-adv-x="644" 
d="M213 1082h278l-127 -748q-4 -30 -2 -54t17 -38.5t49 -16.5q20 -1 39 1.5t38 4.5l-23 -217q-37 -13 -75.5 -19t-78.5 -5q-94 1 -151 44t-79.5 114.5t-13.5 158.5z" />
    <glyph glyph-name="kappa" unicode="&#x3ba;" horiz-adv-x="1109" 
d="M483 1082l-188 -1082h-277l187 1082h278zM1148 1082l-559 -680h-272l13 271h145l306 409h367zM615 0l-169 464l253 133l257 -597h-341z" />
    <glyph glyph-name="lambda" unicode="&#x3bb;" horiz-adv-x="1021" 
d="M519 685l-308 -685h-308l549 1110l194 -4zM414 1543q42 -1 78 -12.5t65 -33.5t50 -53.5t31 -72.5l199 -1050q4 -20 10 -43t18 -41t37 -21q8 -1 16 -0.5t15 -0.5l-21 -227q-24 -3 -47.5 -4t-46.5 -1q-69 2 -118.5 30.5t-81 78t-46.5 114.5l-119 770l-54 248
q-7 25 -17.5 44t-28 30.5t-44.5 13.5q-14 1 -28.5 0t-28.5 -1l15 214q36 10 73 14.5t74 3.5z" />
    <glyph glyph-name="uni03BC" unicode="&#x3bc;" horiz-adv-x="1158" 
d="M814 1082h278l-188 -1082h-258l26 265zM745 504l100 3q-8 -81 -29.5 -173t-63.5 -174t-111 -133t-172 -48q-62 2 -114.5 31t-87 78.5t-42.5 112.5l14 261h144q-3 -38 -4 -80.5t7.5 -81t33.5 -64t74 -27.5q65 -2 109.5 23.5t72.5 68.5t44.5 96t24.5 107zM215 1082h278
l-261 -1498h-277z" />
    <glyph glyph-name="nu" unicode="&#x3bd;" horiz-adv-x="948" 
d="M378 225l332 857h297l-491 -1082h-178zM381 1082l67 -884l-27 -198h-171l-153 1082h284z" />
    <glyph glyph-name="xi" unicode="&#x3be;" horiz-adv-x="996" 
d="M1017 1426l-67 -221q-31 10 -62.5 19t-64 14.5t-66.5 5.5q-50 -1 -97 -16.5t-80 -48.5t-42 -88q-6 -37 4 -63.5t31.5 -44t51 -25.5t63.5 -9l153 -1l-30 -164l-124 1q-72 1 -147 15.5t-138.5 48.5t-101.5 92t-33 145q4 97 43.5 170t106 123t149.5 75t173 24
q49 0 95.5 -6.5t91.5 -18t91 -27.5zM677 870l150 -1l-28 -158l-116 1q-85 0 -156 -28t-117 -86.5t-58 -148.5q-6 -55 9.5 -99.5t51.5 -76.5t87 -50l82 -24q64 -19 118.5 -48t87 -76.5t28.5 -122.5q-4 -72 -44 -137t-96 -118.5t-112 -91.5l-141 117q22 24 45 51.5t40.5 58
t22.5 64.5q4 24 -4.5 40t-24.5 27.5t-35 20.5l-49 18q-83 32 -150 68.5t-113 85.5t-67.5 118t-14.5 167q9 119 64 202t141.5 132.5t190 72t208.5 22.5z" />
    <glyph glyph-name="omicron" unicode="&#x3bf;" horiz-adv-x="1055" 
d="M54 514l5 46q12 109 52 207.5t107 175t160 119.5t212 40q113 -2 192.5 -47.5t127 -121.5t65 -171t7.5 -197l-5 -47q-13 -108 -53.5 -206.5t-107.5 -174t-159.5 -118t-210.5 -39.5q-113 2 -192.5 47t-127 120.5t-65 170t-7.5 196.5zM337 561l-5 -48q-3 -40 -3.5 -91.5
t10.5 -99.5t41 -80t86 -34q62 -3 104.5 26.5t69 77.5t40.5 103t20 104l4 47q4 40 4 92t-11.5 100t-41 81t-86.5 35q-61 3 -103 -27t-68.5 -79t-41 -104t-19.5 -103z" />
    <glyph glyph-name="pi" unicode="&#x3c0;" horiz-adv-x="1206" 
d="M1227 1082l-39 -217h-1086l38 217h1087zM574 1082l-188 -1082h-277l188 1082h277zM798 1082h278l-128 -747q-4 -31 -1.5 -55t17 -38.5t49.5 -16.5q19 0 38 2t39 4l-22 -217q-37 -13 -76 -19t-78 -5q-95 1 -151.5 43.5t-79 114.5t-15.5 159z" />
    <glyph glyph-name="rho" unicode="&#x3c1;" horiz-adv-x="1053" 
d="M-71 -416l170 994q16 103 56 198.5t105 170t154.5 117t204.5 39.5t189.5 -55t114 -135t51 -181.5t0.5 -195.5l-2 -22q-11 -91 -41.5 -186.5t-83.5 -175.5t-132.5 -128.5t-188.5 -44.5q-98 3 -157 55t-88.5 132.5t-40 169.5t-12.5 165q15 -7 30 -15t30 -15t31 -14
q-3 -56 6.5 -113t42.5 -96t103 -41q60 -2 100.5 27.5t66 77t38.5 101.5t18 102l2 21q4 36 7 92t-4.5 111.5t-34.5 94.5t-83 41t-93.5 -31.5t-61 -86t-36.5 -108t-19 -96.5l-164 -969h-278z" />
    <glyph glyph-name="sigma1" unicode="&#x3c2;" horiz-adv-x="956" 
d="M577 1103q124 -3 203.5 -61t116.5 -152.5t32 -210.5l-261 1q3 42 -4 86t-32 75t-77 33q-61 3 -101.5 -28.5t-66 -82.5t-39 -107t-19.5 -103l-2 -28q-8 -68 1 -126t43 -102.5t100 -71.5q64 -26 120 -53.5t91 -73.5t32 -126q-3 -71 -42 -136t-95.5 -119.5t-111.5 -91.5
l-141 117q22 24 45 51t40.5 58t22.5 65q3 22 -3 39t-19.5 29t-33.5 21q-120 52 -197 120.5t-109.5 165t-18.5 233.5l3 29q12 106 51 205.5t105.5 178t158 124t208.5 42.5z" />
    <glyph glyph-name="sigma" unicode="&#x3c3;" horiz-adv-x="1069" 
d="M55 523l2 21q13 110 54 207.5t108.5 172t160.5 117t210 43.5q30 -25 49.5 -54t42 -56t59.5 -47q73 -38 122 -105t72 -148.5t16 -159.5l-2 -23q-10 -102 -49.5 -196t-105 -166t-155 -112.5t-200.5 -38.5q-114 2 -192 49.5t-124 125.5t-62 174t-6 196zM335 545l-3 -22
q-3 -40 -4.5 -93t8.5 -103.5t39 -84.5t86 -36q61 -2 100.5 31t64 84.5t37 108t17.5 102.5l2 21q4 37 5.5 87t-7 98.5t-35.5 81t-80 34.5q-60 2 -101.5 -27t-68 -77t-41 -102.5t-19.5 -102.5zM1124 1082l-41 -229h-516l40 229h517z" />
    <glyph glyph-name="tau" unicode="&#x3c4;" horiz-adv-x="973" 
d="M1012 1082l-40 -227h-883l40 227h883zM422 1082h277l-128 -757q-3 -22 -3 -47t10 -44t39 -20q22 -1 44 4.5t43 10.5l7 -218q-40 -17 -80.5 -23.5t-84.5 -5.5q-100 2 -158 51t-79.5 127.5t-12.5 169.5z" />
    <glyph glyph-name="upsilon" unicode="&#x3c5;" horiz-adv-x="1020" 
d="M190 1082h277l-109 -669q-2 -21 -4 -54t1.5 -67.5t18.5 -58.5t48 -26q60 -4 103.5 35t73 99.5t46 123t22.5 106.5q19 127 19 257.5t-26 255.5l254 -1q26 -82 35 -168t6 -173t-14 -171q-14 -112 -52 -218.5t-102.5 -192.5t-158.5 -135.5t-221 -46.5q-96 2 -162.5 37.5
t-106.5 96t-54.5 138.5t-4.5 167z" />
    <glyph glyph-name="phi" unicode="&#x3c6;" horiz-adv-x="1395" 
d="M365 -478l216 1284q10 83 52.5 149.5t110 105.5t153.5 37q111 -1 195.5 -45t140 -119t79 -169.5t12.5 -198.5q-16 -144 -77 -254.5t-158 -185.5t-220 -112.5t-263 -35.5t-250 44.5t-184 122t-105.5 191.5t-14.5 252q11 99 45.5 191.5t89.5 173t133 144.5l179 -156
q-42 -50 -76 -107t-57.5 -119t-33.5 -128q-14 -82 -3.5 -151t46.5 -119t97.5 -79t148.5 -31q115 -2 206 40.5t148.5 123t71.5 195.5q4 41 4 90.5t-12 95.5t-40.5 78t-80.5 38q-25 -10 -36 -18t-17 -36l-223 -1292h-277z" />
    <glyph glyph-name="chi" unicode="&#x3c7;" horiz-adv-x="1001" 
d="M1079 1082l-911 -1498h-286l904 1498h293zM243 1096q63 -1 107.5 -23t75.5 -59.5t51.5 -86t34.5 -102.5l201 -896q4 -22 12 -47.5t22.5 -46t40.5 -27.5q14 -5 30 -5h30l-46 -226q-30 -5 -61 -7t-60 2q-57 8 -95.5 41.5t-63 82t-39.5 102t-26 100.5l-182 852q-8 32 -24 57
t-41.5 40.5t-59.5 15.5q-16 1 -32 -0.5t-31 -3.5l16 218q34 8 69 14t71 5z" />
    <glyph glyph-name="psi" unicode="&#x3c8;" horiz-adv-x="1393" 
d="M148 1082h278l-82 -497q-10 -77 -1 -144.5t40 -119.5t87.5 -82t142.5 -32q93 -2 168 25.5t131.5 80t92.5 125.5t49 163q19 119 14.5 242.5t-31.5 240.5l246 -1q30 -76 43 -157t13.5 -163t-9.5 -163q-19 -146 -78.5 -262t-154.5 -197t-219.5 -123t-271.5 -40
q-141 2 -249 44.5t-179 122t-100 192t-12 253.5zM632 1082h278l-271 -1559h-277z" />
    <glyph glyph-name="omega" unicode="&#x3c9;" horiz-adv-x="1519" 
d="M1126 1085l252 -3q35 -80 51.5 -165t17 -172.5t-9.5 -173.5q-12 -102 -41.5 -207.5t-83.5 -194t-139 -141.5t-208 -50q-103 4 -162.5 58t-86 137t-30.5 174t6 169l53 326h206l-55 -351q-4 -26 -7 -72t1.5 -94t24.5 -82t64 -36q54 -2 88.5 40t53.5 103.5t29 122.5t14 97
q16 129 9.5 260t-47.5 255zM284 1081h271q-61 -126 -120.5 -253.5t-80.5 -267.5q-4 -22 -8.5 -63t-6.5 -89.5t4 -93.5t24.5 -75t54.5 -32q51 -4 83.5 26t52 77.5t29.5 96.5t15 84l56 351h205l-54 -326q-13 -86 -40 -180.5t-75 -176.5t-122.5 -132.5t-181.5 -48.5
q-94 3 -157 39.5t-100 97t-53 135.5t-16.5 155t8.5 155q12 95 40.5 185.5t72 174.5t99.5 161z" />
    <glyph glyph-name="iotadieresis" unicode="&#x3ca;" horiz-adv-x="643" 
d="M213 1082h278l-127 -748q-4 -30 -2 -54t17 -38.5t49 -16.5q20 -1 39 1.5t38 4.5l-23 -217q-37 -13 -75.5 -19t-78.5 -5q-94 1 -151 44t-79.5 114.5t-13.5 158.5zM37 1341q0 55 39.5 92t93.5 38q53 1 94.5 -33.5t41.5 -89.5q1 -55 -39 -92t-94 -38q-53 -1 -94 33.5
t-42 89.5zM512 1340q-1 56 39 93t94 38q53 1 94 -34t41 -90q2 -55 -38.5 -91.5t-93.5 -37.5t-94 33.5t-42 88.5z" />
    <glyph glyph-name="upsilondieresis" unicode="&#x3cb;" horiz-adv-x="1021" 
d="M190 1082h277l-109 -669q-2 -21 -4 -54t1.5 -67.5t18.5 -58.5t48 -26q60 -4 103.5 35t73 99.5t46 123t22.5 106.5q19 127 19 257.5t-26 255.5l254 -1q26 -82 35 -168t6 -173t-14 -171q-14 -112 -52 -218.5t-102.5 -192.5t-158.5 -135.5t-221 -46.5q-96 2 -162.5 37.5
t-106.5 96t-54.5 138.5t-4.5 167zM276 1357q0 55 39.5 92t93.5 38q53 1 94.5 -33.5t41.5 -89.5q1 -55 -39 -92t-94 -38q-53 -1 -94 33.5t-42 89.5zM751 1356q-1 56 39 93t94 38q53 1 94 -34t41 -90q2 -55 -38.5 -91.5t-93.5 -37.5t-94 33.5t-42 88.5z" />
    <glyph glyph-name="omicrontonos" unicode="&#x3cc;" horiz-adv-x="1055" 
d="M54 514l5 46q12 109 52 207.5t107 175t160 119.5t212 40q113 -2 192.5 -47.5t127 -121.5t65 -171t7.5 -197l-5 -47q-13 -108 -53.5 -206.5t-107.5 -174t-159.5 -118t-210.5 -39.5q-113 2 -192.5 47t-127 120.5t-65 170t-7.5 196.5zM337 561l-5 -48q-3 -40 -3.5 -91.5
t10.5 -99.5t41 -80t86 -34q62 -3 104.5 26.5t69 77.5t40.5 103t20 104l4 47q4 40 4 92t-11.5 100t-41 81t-86.5 35q-61 3 -103 -27t-68.5 -79t-41 -104t-19.5 -103zM520 1257l131 344h267l-220 -344h-178z" />
    <glyph glyph-name="upsilontonos" unicode="&#x3cd;" horiz-adv-x="1021" 
d="M190 1082h277l-109 -669q-2 -21 -4 -54t1.5 -67.5t18.5 -58.5t48 -26q60 -4 103.5 35t73 99.5t46 123t22.5 106.5q19 127 19 257.5t-26 255.5l254 -1q26 -82 35 -168t6 -173t-14 -171q-14 -112 -52 -218.5t-102.5 -192.5t-158.5 -135.5t-221 -46.5q-96 2 -162.5 37.5
t-106.5 96t-54.5 138.5t-4.5 167zM524 1251l131 344h267l-220 -344h-178z" />
    <glyph glyph-name="omegatonos" unicode="&#x3ce;" horiz-adv-x="1520" 
d="M1126 1085l252 -3q35 -80 51.5 -165t17 -172.5t-9.5 -173.5q-12 -102 -41.5 -207.5t-83.5 -194t-139 -141.5t-208 -50q-103 4 -162.5 58t-86 137t-30.5 174t6 169l53 326h206l-55 -351q-4 -26 -7 -72t1.5 -94t24.5 -82t64 -36q54 -2 88.5 40t53.5 103.5t29 122.5t14 97
q16 129 9.5 260t-47.5 255zM284 1081h271q-61 -126 -120.5 -253.5t-80.5 -267.5q-4 -22 -8.5 -63t-6.5 -89.5t4 -93.5t24.5 -75t54.5 -32q51 -4 83.5 26t52 77.5t29.5 96.5t15 84l56 351h205l-54 -326q-13 -86 -40 -180.5t-75 -176.5t-122.5 -132.5t-181.5 -48.5
q-94 3 -157 39.5t-100 97t-53 135.5t-16.5 155t8.5 155q12 95 40.5 185.5t72 174.5t99.5 161zM763 1249l131 344h267l-220 -344h-178z" />
    <glyph glyph-name="theta1" unicode="&#x3d1;" horiz-adv-x="1112" 
d="M1117 820l-11 -241q-59 -19 -119.5 -31t-122.5 -11q-147 1 -257 69.5t-168 185.5t-47 261l2 24q10 109 60.5 201.5t136.5 147t203 51.5q87 -2 145 -39t91 -97.5t44 -134t3 -148.5l-97 -601q-19 -134 -86 -244t-176 -173.5t-253 -59.5q-97 2 -172 42t-123.5 106.5
t-69 151.5t-9.5 177l40 249l264 1l-40 -251q-7 -53 4.5 -108t45.5 -92.5t99 -38.5q61 -2 99.5 37.5t58.5 96t27 105.5l99 632q2 16 4 37.5t0.5 42.5t-10.5 37t-29 21q-34 -4 -54.5 -24.5t-30 -50t-14.5 -60.5l-2 -24q-6 -77 17.5 -139t75.5 -99t133 -40q61 -1 120.5 9.5
t118.5 21.5z" />
    <glyph glyph-name="Upsilon1" unicode="&#x3d2;" horiz-adv-x="1111" 
d="M717 702l-122 -702h-289l121 702h290zM553 727l259 514q31 67 73 123t100 89.5t138 31.5q38 -1 73.5 -9t71.5 -19l-60 -225q-12 2 -24.5 4t-23.5 2q-26 -2 -43.5 -12t-31 -26.5t-24.5 -37.5l-391 -697h-190zM504 1247l97 -554l-20 -228h-179l-146 699q-5 18 -12 33
t-19 24t-33 11q-13 1 -26 -0.5t-25 -3.5l-12 230q31 10 62.5 16t63.5 6q73 -1 122 -32t80 -83.5t47 -117.5z" />
    <glyph glyph-name="omega1" unicode="&#x3d6;" horiz-adv-x="1540" 
d="M1609 1082l-36 -202h-1501l36 202h1501zM1141 1085l251 -3q36 -79 52 -164.5t16.5 -173.5t-9.5 -173q-10 -80 -30 -164.5t-53.5 -162t-85 -138.5t-124.5 -96t-170 -32q-104 3 -166 56.5t-91 135t-34 174t5 172.5l28 179h205l-31 -204q-3 -30 -5.5 -76.5t3.5 -93.5
t29 -79.5t71 -33.5q42 -1 71 26.5t48 72t30.5 95t17.5 95.5t10 73q16 129 9 260t-47 255zM288 1081h272q-61 -126 -121 -253.5t-81 -267.5q-3 -20 -8.5 -60.5t-8 -89t2.5 -94t22 -76t51 -33.5q52 -5 87 24t57 76t33.5 97t16.5 87l31 204h203l-28 -179q-12 -89 -41 -184
t-79 -176.5t-127 -131t-185 -46.5q-94 3 -155.5 40t-96.5 98t-50.5 136.5t-15.5 155t9 152.5q12 95 40.5 185.5t71.5 174.5t100 161z" />
    <glyph glyph-name="uni0400" unicode="&#x400;" 
d="M938 238l-42 -238h-684l41 238h685zM557 1456l-252 -1456h-289l252 1456h289zM957 864l-41 -231h-594l40 231h595zM1147 1456l-42 -239h-682l42 239h682zM731 1849l144 -308h-214l-221 307z" />
    <glyph glyph-name="uni0401" unicode="&#x401;" 
d="M938 238l-42 -238h-684l41 238h685zM557 1456l-252 -1456h-289l252 1456h289zM957 864l-41 -231h-594l40 231h595zM1147 1456l-42 -239h-682l42 239h682zM391 1676q0 55 39.5 92t93.5 38q53 1 94.5 -33.5t41.5 -89.5q1 -55 -39 -92t-94 -38q-53 -1 -94 33.5t-42 89.5z
M866 1675q-1 56 39 93t94 38q53 1 94 -34t41 -90q2 -55 -38.5 -91.5t-93.5 -37.5t-94 33.5t-42 88.5z" />
    <glyph glyph-name="uni0402" unicode="&#x402;" horiz-adv-x="1387" 
d="M522 596l20 237q53 18 109 32t112.5 21.5t113.5 6.5q135 -1 235.5 -54t152 -152t39.5 -239q-11 -118 -60 -205t-127 -145t-178 -87t-210 -32l21 227q56 2 101 17t78.5 43t54.5 70t28 98q7 61 -7.5 109.5t-53 78t-103.5 31.5q-56 2 -111 -5.5t-108.5 -21t-106.5 -30.5z
M786 1456l-253 -1456h-288l253 1456h288zM1198 1456l-42 -239h-1017l42 239h1017z" />
    <glyph glyph-name="uni0403" unicode="&#x403;" horiz-adv-x="1040" 
d="M1131 1456l-42 -239h-571l-212 -1217h-288l252 1456h861zM581 1541l239 308h323l-316 -308h-246z" />
    <glyph glyph-name="uni0404" unicode="&#x404;" horiz-adv-x="1225" 
d="M799 849l-42 -238h-524l42 238h524zM840 483l282 3q-18 -153 -98.5 -268.5t-206 -178.5t-279.5 -60q-144 3 -237 66t-142.5 165.5t-63 224.5t1.5 243l14 96q19 130 67.5 256t129 228t193.5 161.5t261 56.5q154 -3 254.5 -71.5t151.5 -183.5t55 -260l-287 1q1 72 -13 134
t-56 100.5t-124 41.5q-91 4 -152.5 -40t-100 -115.5t-59.5 -153t-31 -152.5l-13 -100q-6 -46 -11 -105.5t-2.5 -120.5t20 -113.5t56.5 -86t107 -36.5q85 -3 142.5 32t91.5 97t49 139z" />
    <glyph glyph-name="uni0405" unicode="&#x405;" horiz-adv-x="1148" 
d="M750 389q8 49 -5.5 84t-41 60.5t-64.5 44.5t-77 36q-74 32 -142.5 72t-122.5 93t-83 122.5t-23 160.5q7 102 55 180.5t124.5 131.5t169 78.5t186.5 23.5q134 -3 231.5 -60t149.5 -157.5t47 -232.5l-287 1q3 58 -11.5 106t-51 77.5t-101.5 30.5q-56 1 -104 -20.5t-81 -62
t-42 -97.5q-6 -43 11.5 -75.5t48.5 -57t67.5 -42.5t69.5 -31q79 -33 148 -74.5t120.5 -96t77 -126.5t19.5 -166q-8 -106 -54 -183.5t-119.5 -129t-164 -76.5t-188.5 -24q-106 3 -194.5 37t-151.5 97t-96 150.5t-29 194.5l289 -1q-3 -53 6 -98t33 -77.5t64 -50t98 -17.5
q56 0 102.5 20t77.5 59t39 96z" />
    <glyph glyph-name="uni0406" unicode="&#x406;" horiz-adv-x="558" 
d="M572 1456l-253 -1456h-288l253 1456h288z" />
    <glyph glyph-name="uni0407" unicode="&#x407;" horiz-adv-x="558" 
d="M572 1456l-253 -1456h-288l253 1456h288zM92 1676q0 55 39.5 92t93.5 38q53 1 94.5 -33.5t41.5 -89.5q1 -55 -39 -92t-94 -38q-53 -1 -94 33.5t-42 89.5zM567 1675q-1 56 39 93t94 38q53 1 94 -34t41 -90q2 -55 -38.5 -91.5t-93.5 -37.5t-94 33.5t-42 88.5z" />
    <glyph glyph-name="uni0408" unicode="&#x408;" horiz-adv-x="1042" 
d="M615 447l171 1009h289l-172 -1008q-18 -133 -84.5 -240.5t-174 -169t-246.5 -59.5q-136 3 -224.5 61.5t-129.5 159t-34 230.5l290 -1q-3 -47 3 -95.5t32 -81.5t86 -35q62 -2 102 34t62 90t30 106z" />
    <glyph glyph-name="uni0409" unicode="&#x409;" horiz-adv-x="1954" 
d="M453 1456h288l-159 -733q-19 -98 -44 -200.5t-62.5 -196t-96.5 -167t-145 -117t-208 -42.5h-81l31 238l31 2q76 6 127.5 49.5t83.5 109t51.5 141t31.5 148.5t22 130zM1137 1456l-42 -239h-649l42 239h649zM1159 958l282 -1q136 -3 238 -63t155 -164.5t42 -242.5
q-10 -113 -58.5 -203.5t-126 -154t-176 -97t-207.5 -32.5h-506l253 1456h289l-211 -1218l186 -2q73 1 130 35t92.5 91t46.5 128q7 56 -7 107.5t-51 85t-99 36.5l-313 1z" />
    <glyph glyph-name="uni040A" unicode="&#x40a;" horiz-adv-x="1950" 
d="M1028 841l-42 -238h-660l42 238h660zM558 1456l-252 -1456h-288l252 1456h288zM1154 948l282 -1q134 -4 236 -62t155.5 -161t42.5 -239q-9 -114 -57.5 -204t-126 -153.5t-175.5 -96t-208 -31.5h-504l252 1456h288l-211 -1217l187 -2q72 2 129 34.5t93.5 88.5t45.5 126
q8 57 -7 106.5t-52 81.5t-98 35l-314 1z" />
    <glyph glyph-name="uni040B" unicode="&#x40b;" horiz-adv-x="1423" 
d="M1211 1h-288l75 449q8 72 -3 125.5t-51.5 83.5t-118.5 32q-39 1 -79 -1.5t-79.5 -8.5t-78 -15t-75.5 -20l24 240q35 12 72.5 21t76.5 13.5t78 6.5t77 1q147 -1 253 -58t157 -163.5t35 -258.5zM772 1456l-252 -1456h-289l253 1456h288zM1179 1456l-42 -239h-993l42 239
h993z" />
    <glyph glyph-name="uni040C" unicode="&#x40c;" horiz-adv-x="1181" 
d="M557 1456l-252 -1456h-289l252 1456h289zM1340 1456l-639 -727l-367 -361l-3 310l250 305l388 473h371zM755 0l-250 682l234 179l343 -861h-327zM563 1537l239 308h323l-316 -308h-246z" />
    <glyph glyph-name="uni040D" unicode="&#x40d;" horiz-adv-x="1297" 
d="M380 498l652 958h296l-253 -1456h-289l167 958l-652 -958h-296l253 1456h289zM798 1849l144 -308h-214l-221 307z" />
    <glyph glyph-name="uni040E" unicode="&#x40e;" horiz-adv-x="1174" 
d="M513 541l464 915h321l-636 -1174q-33 -63 -72 -118.5t-87 -97.5t-109 -66t-138 -24q-26 0 -52 1t-53 3l22 240q16 -2 33 -4t33 -2q50 0 84 17.5t57.5 49.5t42.5 74zM487 1456l157 -724l27 -327l-206 -4l-275 1055h297zM951 1839l199 2q-6 -97 -55.5 -164.5t-128 -101
t-172.5 -31.5q-135 3 -224 80.5t-90 216.5l199 -1q-2 -60 25.5 -97t91.5 -37q65 -1 104.5 35.5t50.5 97.5z" />
    <glyph glyph-name="uni040F" unicode="&#x40f;" horiz-adv-x="1299" 
d="M2 0l253 1456h289l-212 -1218h493l212 1218h289l-253 -1456h-1071zM736 233l-103 -593h-290l103 593h290z" />
    <glyph glyph-name="uni0410" unicode="&#x410;" horiz-adv-x="1260" 
d="M766 1187l-546 -1187h-316l736 1456h201zM843 0l-140 1215l14 241h190l233 -1456h-297zM931 542l-42 -238h-695l43 238h694z" />
    <glyph glyph-name="uni0411" unicode="&#x411;" horiz-adv-x="1175" 
d="M1127 1456l-42 -239h-571l-211 -1217h-289l252 1456h861zM366 929l284 -1q133 -4 235.5 -58.5t157 -154t43.5 -238.5q-9 -113 -57.5 -202t-125.5 -150.5t-175.5 -93.5t-206.5 -31h-506l252 1456h290l-212 -1218l187 -2q72 1 128.5 32.5t92.5 86t45 124.5q8 58 -7 104.5
t-53 74.5t-99 31l-315 1z" />
    <glyph glyph-name="uni0412" unicode="&#x412;" horiz-adv-x="1191" 
d="M654 637h-339l35 209l262 -2q63 1 115.5 21.5t87 62.5t43.5 108q9 59 -5.5 98t-51 60t-94.5 22l-191 1l-211 -1217h-289l252 1456l449 -1q93 -2 174.5 -24.5t142.5 -69.5t93.5 -120t25.5 -176q-8 -113 -64 -189t-145.5 -116t-196.5 -46zM536 0h-418l153 237l276 -1
q63 2 113 26t82 68.5t40 108.5q8 51 0 94.5t-38 71.5t-87 31l-278 1l38 209l314 -1l50 -81q96 -5 162.5 -46.5t98.5 -113.5t25 -168q-10 -150 -83 -246.5t-190.5 -143.5t-257.5 -46z" />
    <glyph glyph-name="uni0413" unicode="&#x413;" horiz-adv-x="1040" 
d="M1131 1456l-42 -239h-571l-212 -1217h-288l252 1456h861z" />
    <glyph glyph-name="uni0414" unicode="&#x414;" horiz-adv-x="1392" 
d="M1094 238l-42 -238h-926l42 238h926zM252 238l-104 -596h-271l87 596h288zM1302 238l-129 -596h-265l103 596h291zM1152 1456l-42 -239h-627l42 239h627zM1358 1456l-253 -1456h-288l253 1456h288zM489 1456h291l-140 -594q-20 -89 -44 -172.5t-54.5 -162t-69.5 -151.5
t-88 -139.5t-109.5 -126t-134.5 -110.5h-177l35 237l58 -2q73 53 122 126t81 156.5t53 171.5t38 172z" />
    <glyph glyph-name="uni0415" unicode="&#x415;" 
d="M938 238l-42 -238h-684l41 238h685zM557 1456l-252 -1456h-289l252 1456h289zM957 864l-41 -231h-594l40 231h595zM1147 1456l-42 -239h-682l42 239h682z" />
    <glyph glyph-name="uni0416" unicode="&#x416;" horiz-adv-x="1868" 
d="M543 597l-346 859h344l174 -588h239l-85 -271h-326zM680 634l-395 -634h-373l556 817zM1240 1456l-252 -1456h-288l252 1456h288zM1998 1456l-634 -859h-336l8 271h221l369 588h372zM1403 0l-171 655l253 168l266 -823h-348z" />
    <glyph glyph-name="uni0417" unicode="&#x417;" horiz-adv-x="1151" 
d="M649 696l-221 1l29 162l146 -2q64 1 111.5 26.5t77 72t37.5 109.5q6 52 -12.5 91t-56.5 61t-90 23q-55 1 -98.5 -21.5t-72.5 -62.5t-39 -93l-287 -1q7 100 53 177.5t118 131t161 80.5t184 25q93 -2 174.5 -27.5t142.5 -76.5t92 -126.5t24 -177.5q-6 -90 -48.5 -159.5
t-110.5 -116.5t-149.5 -71.5t-164.5 -24.5zM444 786l188 -1q86 -2 160 -25t129 -68.5t83.5 -114t22.5 -161.5q-8 -110 -57.5 -192.5t-128 -137.5t-175.5 -81.5t-198 -24.5q-96 2 -177 31.5t-140.5 84t-91.5 132.5t-29 177h287q-1 -53 19 -94.5t58 -66t93 -26.5
q62 -1 116.5 23.5t92.5 70t46 108.5q7 44 1 81t-24 64.5t-49.5 43t-77.5 18.5l-175 1z" />
    <glyph glyph-name="uni0418" unicode="&#x418;" horiz-adv-x="1297" 
d="M380 498l652 958h296l-253 -1456h-289l167 958l-652 -958h-296l253 1456h289z" />
    <glyph glyph-name="uni0419" unicode="&#x419;" horiz-adv-x="1297" 
d="M380 498l652 958h296l-253 -1456h-289l167 958l-652 -958h-296l253 1456h289zM988 1838l199 2q-6 -97 -55.5 -164.5t-128 -101t-172.5 -31.5q-135 3 -224 80.5t-90 216.5l199 -1q-2 -60 25.5 -97t91.5 -37q65 -1 104.5 35.5t50.5 97.5z" />
    <glyph glyph-name="uni041A" unicode="&#x41a;" horiz-adv-x="1202" 
d="M558 1456l-252 -1456h-289l252 1456h289zM1327 1456l-640 -857h-341l10 272h209l397 585h365zM773 0l-234 662l226 207l338 -869h-330z" />
    <glyph glyph-name="uni041B" unicode="&#x41b;" horiz-adv-x="1311" 
d="M1132 1456l-42 -239h-642l41 239h643zM1339 1456l-253 -1456h-288l252 1456h289zM453 1456h289l-158 -733q-20 -96 -45 -199t-63 -197.5t-96.5 -169t-145 -117t-208.5 -40.5h-80l31 238l32 2q76 7 127 50t83.5 108.5t52 141t31 148t21.5 130.5z" />
    <glyph glyph-name="uni041C" unicode="&#x41c;" horiz-adv-x="1622" 
d="M404 1456h235l132 -1058l499 1058h253l-713 -1456h-198zM268 1456h244l-139 -1063l-69 -393h-288zM1405 1456h245l-252 -1456h-290l74 418z" />
    <glyph glyph-name="uni041D" unicode="&#x41d;" horiz-adv-x="1311" 
d="M1030 864l-42 -237h-660l42 237h660zM557 1456l-252 -1456h-289l252 1456h289zM1339 1456l-253 -1456h-287l253 1456h287z" />
    <glyph glyph-name="uni041E" unicode="&#x41e;" horiz-adv-x="1285" 
d="M1230 804l-22 -156q-20 -131 -70 -252.5t-130.5 -216t-194 -148.5t-259.5 -51q-139 3 -234 60.5t-149 152.5t-71.5 212.5t-2.5 240.5l22 155q20 132 69.5 254t131 218t195.5 151.5t260 51.5q140 -3 234.5 -61.5t148.5 -155t70.5 -215t1.5 -240.5zM917 646l23 159
q7 59 9.5 131.5t-12.5 139.5t-57 111.5t-125 47.5q-88 4 -149.5 -35t-101 -105t-62 -143t-32.5 -148l-22 -159q-8 -60 -9.5 -131.5t14 -137.5t58 -109.5t123.5 -46.5q87 -4 148 35t101 103t62.5 140t31.5 148z" />
    <glyph glyph-name="uni041F" unicode="&#x41f;" horiz-adv-x="1313" 
d="M1340 1456l-252 -1456h-289l211 1217h-493l-211 -1217h-289l252 1456h1071z" />
    <glyph glyph-name="uni0420" unicode="&#x420;" horiz-adv-x="1205" 
d="M637 515l-341 1l42 239l311 -2q70 1 124.5 29.5t88 79t42.5 121.5q9 55 -2.5 107.5t-46 87t-97.5 38.5l-242 1l-211 -1217h-289l252 1456l501 -1q136 -3 236.5 -63.5t151 -165t38.5 -241.5q-13 -153 -90.5 -257.5t-200 -159t-267.5 -53.5z" />
    <glyph glyph-name="uni0421" unicode="&#x421;" horiz-adv-x="1217" 
d="M840 483l281 4q-17 -157 -96.5 -272t-205 -177t-283.5 -58q-139 3 -231.5 60t-144 151.5t-66.5 211t1 238.5l26 174q19 128 67 248t127 214.5t190.5 148.5t254.5 51q157 -3 258 -70t151 -182t53 -263l-288 1q2 75 -11 136.5t-54.5 98.5t-127.5 40q-87 3 -146.5 -35
t-96.5 -101.5t-57 -138.5t-30 -146l-25 -177q-7 -59 -11.5 -130.5t7 -136.5t51.5 -108.5t122 -46.5q89 -4 146.5 29.5t90.5 94.5t48 141z" />
    <glyph glyph-name="uni0422" unicode="&#x422;" horiz-adv-x="1156" 
d="M867 1456l-253 -1456h-288l253 1456h288zM1260 1456l-42 -239h-1067l42 239h1067z" />
    <glyph glyph-name="uni0423" unicode="&#x423;" horiz-adv-x="1174" 
d="M513 541l464 915h321l-636 -1174q-33 -63 -72 -118.5t-87 -97.5t-109 -66t-138 -24q-26 0 -52 1t-53 3l22 240q16 -2 33 -4t33 -2q50 0 84 17.5t57.5 49.5t42.5 74zM487 1456l157 -724l27 -327l-206 -4l-275 1055h297z" />
    <glyph glyph-name="uni0424" unicode="&#x424;" horiz-adv-x="1529" 
d="M725 1327l307 -2q122 -4 211.5 -54.5t146.5 -135t79.5 -189.5t11.5 -218q-13 -123 -63.5 -232.5t-133 -192t-191.5 -129.5t-237 -47l-307 2q-122 2 -212 50.5t-147.5 130t-81 185t-11.5 216.5q13 126 63 237t132.5 196.5t192 134t240.5 48.5zM712 1083q-105 0 -177 -53.5
t-113 -138.5t-52 -181q-7 -54 -2.5 -112t24.5 -107.5t61 -82t108 -35.5l309 -3q102 0 173 51.5t112.5 133t52.5 174.5q7 54 3.5 113.5t-22 112.5t-59.5 87.5t-108 37.5zM1066 1516l-273 -1576h-277l273 1576h277z" />
    <glyph glyph-name="uni0425" unicode="&#x425;" horiz-adv-x="1186" 
d="M494 1456l149 -503l307 503h342l-492 -735l261 -721h-321l-153 512l-315 -512h-346l505 747l-256 709h319z" />
    <glyph glyph-name="uni0426" unicode="&#x426;" horiz-adv-x="1416" 
d="M1299 237l-121 -588h-270l61 351h-105l41 237h394zM3 0l253 1456h288l-211 -1218h493l211 1218h289l-252 -1456h-1071z" />
    <glyph glyph-name="uni0427" unicode="&#x427;" horiz-adv-x="1297" 
d="M277 1456h289l-74 -450q-8 -71 3 -124.5t51.5 -83.5t118.5 -32q38 -1 78 1.5t79.5 8t78 14.5t75.5 20l-24 -240q-36 -13 -73.5 -21.5t-77 -13.5t-78 -7t-76.5 -1q-147 2 -253 59t-157.5 164t-33.5 259zM1037 1456h288l-253 -1456h-288z" />
    <glyph glyph-name="uni0428" unicode="&#x428;" horiz-adv-x="1779" 
d="M266 1456h290l-211 -1218h340l211 1218h289l-212 -1218h337l211 1218h288l-253 -1456h-1542z" />
    <glyph glyph-name="uni0429" unicode="&#x429;" horiz-adv-x="1903" 
d="M1774 228l-120 -578h-259l61 351h-109l39 227h388zM266 1456h290l-211 -1218h340l211 1218h289l-212 -1218h337l211 1218h288l-253 -1456h-1542z" />
    <glyph glyph-name="uni042A" unicode="&#x42a;" horiz-adv-x="1427" 
d="M144 1227l41 229h458l-41 -229h-458zM629 929l283 -1q133 -4 236 -58.5t157.5 -154t43.5 -237.5q-9 -114 -57 -203t-126 -151t-176 -93.5t-207 -30.5h-506l253 1456h289l-211 -1218l186 -2q72 1 128.5 32.5t92 86t45.5 124.5q9 58 -6.5 104.5t-53.5 74.5t-98 31l-315 1z
" />
    <glyph glyph-name="uni042B" unicode="&#x42b;" horiz-adv-x="1630" 
d="M370 929l284 -1q133 -4 235.5 -58.5t156.5 -154t44 -238.5q-10 -113 -58 -202t-125 -150.5t-175.5 -93.5t-207.5 -31h-505l252 1456h289l-211 -1218l187 -2q72 1 128.5 32.5t92 86t45.5 124.5q8 58 -7 104.5t-53.5 74.5t-98.5 31l-315 1zM1648 1456l-253 -1456h-288
l253 1456h288z" />
    <glyph glyph-name="uni042C" unicode="&#x42c;" horiz-adv-x="1167" 
d="M366 929l284 -1q133 -4 235.5 -58.5t157 -154t43.5 -238.5q-9 -113 -57.5 -202t-125.5 -150.5t-175.5 -93.5t-206.5 -31h-506l252 1456h290l-212 -1218l187 -2q72 1 128.5 32.5t92.5 86t45 124.5q8 58 -7 104.5t-53 74.5t-99 31l-315 1z" />
    <glyph glyph-name="uni042D" unicode="&#x42d;" horiz-adv-x="1207" 
d="M1039 847l-42 -239h-550l42 239h550zM34 485l288 -1q-1 -71 14.5 -131t58 -97t122.5 -40q93 -3 154 40.5t98.5 115t58 153t29.5 153.5l13 100q6 45 10.5 104t1 120.5t-21 114.5t-56.5 86.5t-105 35.5q-89 3 -147 -33t-91 -100t-48 -143l-286 -1q23 152 103.5 269.5
t205 183t281.5 62.5q143 -3 235.5 -67.5t143 -167.5t64.5 -225t-1 -242l-14 -97q-19 -129 -67 -255t-127 -227t-191.5 -160.5t-260.5 -56.5q-151 3 -254.5 69t-156.5 179t-54 258z" />
    <glyph glyph-name="uni042E" unicode="&#x42e;" horiz-adv-x="1760" 
d="M565 1456l-253 -1456h-287l252 1456h288zM690 812l-28 -229h-359l28 229h359zM1695 804l-23 -156q-18 -131 -68 -252.5t-131 -216t-194 -148.5t-259 -51q-140 3 -234.5 60.5t-148.5 152.5t-72 212.5t-3 240.5l23 155q19 132 69 254t131.5 218t195 151.5t259.5 51.5
q140 -3 235 -61.5t148.5 -155t70.5 -215t1 -240.5zM1383 646l23 159q7 59 9 131.5t-13 139.5t-57 111.5t-124 47.5q-88 4 -149.5 -35t-101.5 -105t-62 -143t-33 -148l-22 -159q-7 -60 -9 -131.5t13.5 -137.5t58 -109.5t124.5 -46.5q87 -4 148 35t100.5 103t62 140t32.5 148z
" />
    <glyph glyph-name="uni042F" unicode="&#x42f;" horiz-adv-x="1108" 
d="M795 527h-322l-91 43q-138 61 -203.5 169t-53.5 261q12 151 87 253t194.5 153t264.5 51l476 -1l-252 -1456h-290l212 1217l-158 2q-111 -1 -174 -68t-77 -174q-7 -59 2 -109t43 -81.5t101 -34.5l279 -1zM586 649l-400 -649h-325l400 649h325z" />
    <glyph glyph-name="uni0430" unicode="&#x430;" horiz-adv-x="1000" 
d="M560 246l78 494q4 37 -1.5 71t-26.5 56t-65 23q-42 1 -71.5 -16t-48 -46.5t-25.5 -67.5l-277 -2q5 86 45.5 151t104.5 108.5t141.5 65t156.5 20.5q110 -2 192 -47t123 -126.5t30 -195.5l-76 -473q-9 -59 -14.5 -122.5t15.5 -120.5l-2 -18l-272 -1q-17 60 -16.5 123
t9.5 124zM666 660l-27 -166l-116 1q-41 -1 -78.5 -12.5t-68 -34.5t-50 -56t-25.5 -77q-4 -31 3.5 -58t28 -43.5t54.5 -17.5q44 -1 85 16.5t71 50t39 75.5l54 -118q-20 -51 -51 -95.5t-72 -77.5t-90.5 -51.5t-108.5 -17.5q-89 1 -157.5 43.5t-106 114t-33.5 159.5
q5 102 49 172t115 112.5t157.5 62t176.5 19.5z" />
    <glyph glyph-name="uni0431" unicode="&#x431;" horiz-adv-x="1064" 
d="M836 1558l221 1q-4 -90 -34 -150.5t-80.5 -100t-118.5 -64t-149 -40.5q-107 -22 -175 -78.5t-107.5 -137t-59 -173.5t-27.5 -188l-6 -47l-217 -32l4 46q13 131 47.5 264t98 249t163 200.5t240.5 116.5q42 10 84 22.5t74 38t42 73.5zM642 1022q103 -3 173 -48t110.5 -117
t55 -160t7.5 -178l-3 -22q-11 -106 -51 -200.5t-107 -167t-158 -113t-205 -37.5q-115 2 -194 51t-125 129t-63 178t-11 199l2 21q5 24 24.5 45t41.5 41.5t35 40.5q55 84 121 162.5t150.5 128.5t196.5 47zM570 794q-76 2 -122.5 -42t-70 -109.5t-30.5 -127.5l-1 -22
q-4 -40 -3 -89t13 -93t42.5 -73.5t85.5 -30.5q58 -2 99 25t66.5 71t39.5 95.5t19 98.5l2 22q3 40 1.5 87t-14.5 89t-43 70t-84 29z" />
    <glyph glyph-name="uni0432" unicode="&#x432;" horiz-adv-x="1055" 
d="M575 450l-305 1l31 191l230 -1q38 2 71.5 12t57.5 33t31 64q5 28 -0.5 47t-19.5 31.5t-34.5 18.5t-45.5 7l-148 1l-147 -855h-278l187 1082l394 -1q70 -1 138.5 -16.5t123.5 -49t86.5 -89.5t28.5 -138q-4 -69 -36.5 -117t-84 -77.5t-112 -46t-118.5 -21.5zM505 0h-388
l136 227l262 -1q39 2 71.5 14t55 37.5t29.5 66.5q6 35 -2.5 57.5t-31 34.5t-55.5 14l-256 1l36 191l260 -1l50 -76q71 -9 133.5 -37t100 -80t35.5 -131q-4 -91 -42 -152t-100.5 -97.5t-139 -52.5t-154.5 -15z" />
    <glyph glyph-name="uni0433" unicode="&#x433;" horiz-adv-x="785" 
d="M854 1082l-41 -229h-388l-149 -853h-277l188 1082h667z" />
    <glyph glyph-name="uni0434" unicode="&#x434;" horiz-adv-x="1187" 
d="M362 1082h278l-69 -359q-18 -106 -54.5 -224t-96 -224.5t-148.5 -181t-214 -93.5h-59l24 225l27 2q55 55 95.5 110t69 115.5t47 126.5t32.5 143zM436 1082h655l-188 -1082h-277l148 847h-379zM-27 229h1114l-97 -555h-277l57 326h-553l-57 -326h-284z" />
    <glyph glyph-name="uni0435" unicode="&#x435;" horiz-adv-x="1012" 
d="M474 -20q-110 2 -193 42t-135.5 110.5t-75 162t-13.5 195.5l7 65q12 109 51 208t105 177t158.5 121.5t212.5 40.5q112 -2 187 -47t117 -120.5t55.5 -168.5t1.5 -192l-18 -124h-770l33 195l490 -1l5 26q7 49 -0.5 95t-36.5 76.5t-86 33.5q-64 2 -106 -28.5t-66.5 -79.5
t-37 -105.5t-18.5 -106.5l-7 -65q-6 -49 -1.5 -98t22.5 -89.5t54 -66t95 -26.5q75 -2 138.5 28.5t116.5 80.5l110 -162q-43 -62 -108 -101.5t-139.5 -58t-147.5 -17.5z" />
    <glyph glyph-name="uni0436" unicode="&#x436;" horiz-adv-x="1599" 
d="M417 405l-282 677h330l118 -406h195l-82 -271h-279zM554 446l-273 -446h-345l407 593zM1024 1082l-187 -1082h-278l188 1082h277zM1654 1082l-516 -677h-291l13 271h178l259 406h357zM1129 0l-123 464l248 134l203 -598h-328z" />
    <glyph glyph-name="uni0437" unicode="&#x437;" horiz-adv-x="960" 
d="M547 515l-215 1l24 130h126q39 2 70 17t51 42.5t26 66.5q5 32 -3 58.5t-28.5 42t-55.5 16.5q-38 1 -67.5 -13t-49.5 -41t-28 -62l-279 -1q8 110 69.5 184t155.5 111t198 35q71 -1 139 -19t122 -55t84.5 -95t26.5 -139q-3 -71 -36 -123.5t-86.5 -87t-117 -51.5t-126.5 -17
zM346 588l181 -1q65 -2 123.5 -18t103.5 -48t70 -83.5t22 -123.5q-4 -89 -45.5 -153t-108.5 -105t-146.5 -59.5t-157.5 -16.5q-104 2 -188.5 42t-134 115.5t-48.5 184.5l275 -1q-1 -39 13.5 -67.5t43 -44t69.5 -14.5q42 0 76 17.5t56 49t28 72.5q6 39 -3 66.5t-33 42.5
t-63 17l-155 1z" />
    <glyph glyph-name="uni0438" unicode="&#x438;" horiz-adv-x="1059" 
d="M351 427l406 655h284l-188 -1082h-278l115 657l-406 -657h-285l188 1082h278z" />
    <glyph glyph-name="uni0439" unicode="&#x439;" horiz-adv-x="1059" 
d="M351 427l406 655h284l-188 -1082h-278l115 657l-406 -657h-285l188 1082h278zM822 1519l199 2q-6 -97 -55.5 -164.5t-128 -101t-172.5 -31.5q-135 3 -224 80.5t-90 216.5l199 -1q-2 -60 25.5 -97t91.5 -37q65 -1 104.5 35.5t50.5 97.5z" />
    <glyph glyph-name="uni043A" unicode="&#x43a;" horiz-adv-x="1060" 
d="M484 1082l-188 -1082h-277l187 1082h278zM1119 1082l-534 -680h-268l13 271h160l264 409h365zM588 0l-144 464l253 133l247 -597h-356z" />
    <glyph glyph-name="uni043B" unicode="&#x43b;" horiz-adv-x="1060" 
d="M838 1082l-40 -229h-472l40 229h472zM1041 1082l-188 -1082h-277l188 1082h277zM297 1082h275l-122 -547q-15 -73 -34.5 -149t-49.5 -145.5t-75.5 -124.5t-110.5 -86t-155 -30h-99l31 230l31 2q50 5 85 34.5t57 73t36 94t22 99.5t15 88z" />
    <glyph glyph-name="uni043C" unicode="&#x43c;" horiz-adv-x="1413" 
d="M648 339l366 743h235l-556 -1082h-186l-180 1082h217zM483 1082l-187 -1082h-278l188 1082h277zM901 0l188 1082h278l-188 -1082h-278z" />
    <glyph glyph-name="uni043D" unicode="&#x43d;" horiz-adv-x="1058" 
d="M776 646l-40 -227h-479l40 227h479zM465 1082l-188 -1082h-278l188 1082h278zM1038 1082l-188 -1082h-278l188 1082h278z" />
    <glyph glyph-name="uni043E" unicode="&#x43e;" horiz-adv-x="1055" 
d="M54 514l5 46q12 109 52 207.5t107 175t160 119.5t212 40q113 -2 192.5 -47.5t127 -121.5t65 -171t7.5 -197l-5 -47q-13 -108 -53.5 -206.5t-107.5 -174t-159.5 -118t-210.5 -39.5q-113 2 -192.5 47t-127 120.5t-65 170t-7.5 196.5zM337 561l-5 -48q-3 -40 -3.5 -91.5
t10.5 -99.5t41 -80t86 -34q62 -3 104.5 26.5t69 77.5t40.5 103t20 104l4 47q4 40 4 92t-11.5 100t-41 81t-86.5 35q-61 3 -103 -27t-68.5 -79t-41 -104t-19.5 -103z" />
    <glyph glyph-name="uni043F" unicode="&#x43f;" horiz-adv-x="1059" 
d="M837 1082l-40 -229h-451l41 229h450zM465 1082l-188 -1082h-278l188 1082h278zM1041 1082l-188 -1082h-279l188 1082h279z" />
    <glyph glyph-name="uni0440" unicode="&#x440;" horiz-adv-x="1051" 
d="M426 859l-221 -1275h-277l260 1498h255zM978 568l-5 -45q-11 -93 -40.5 -189.5t-82 -178t-132 -130.5t-190.5 -45q-95 2 -155.5 53t-93 129t-44 165.5t-7.5 164.5l10 83q15 85 47 177.5t85 173t128.5 130.5t176.5 47q108 -3 173.5 -53t96.5 -129.5t36.5 -172.5t-3.5 -180
zM695 523l5 47q4 39 6 89.5t-6.5 99t-36.5 81t-83 34.5q-56 2 -96 -19.5t-67 -59t-43.5 -84t-24.5 -92.5l-23 -169q-4 -55 4.5 -110t41 -92.5t99.5 -39.5q61 -2 102.5 27.5t66.5 79t37.5 104.5t17.5 104z" />
    <glyph glyph-name="uni0441" unicode="&#x441;" horiz-adv-x="975" 
d="M447 208q51 -1 86 21t56 60t29 83l260 1q-9 -117 -70.5 -206.5t-158.5 -139.5t-214 -47q-116 2 -193.5 46.5t-122.5 119.5t-60.5 170t-5.5 197l6 54q13 108 51 205.5t102.5 173t155.5 117.5t210 39q124 -2 205 -59.5t120 -152t35 -211.5l-261 1q1 45 -7.5 89t-36 73.5
t-80.5 31.5q-63 2 -103 -26.5t-63 -76t-34 -101.5t-17 -103l-5 -55q-4 -39 -7.5 -90.5t4 -99.5t34.5 -80.5t85 -33.5z" />
    <glyph glyph-name="uni0442" unicode="&#x442;" horiz-adv-x="958" 
d="M699 1082l-188 -1082h-278l188 1082h278zM1003 1082l-39 -227h-884l40 227h883z" />
    <glyph glyph-name="uni0443" unicode="&#x443;" horiz-adv-x="943" 
d="M308 137l409 945h305l-596 -1245q-26 -58 -58.5 -107.5t-75 -88t-96 -60t-120.5 -21.5q-33 0 -65 6.5t-63 14.5l22 215q9 0 18.5 -1.5t17.5 -0.5q48 -1 83 12t61.5 39.5t46.5 67.5zM387 1082l61 -794l-15 -298l-185 -20l-150 1112h289z" />
    <glyph glyph-name="uni0444" unicode="&#x444;" horiz-adv-x="1357" 
d="M1278 539l-2 -21q-11 -88 -39 -183.5t-78 -177t-126 -131.5t-184 -47q-87 3 -145 48t-90 115t-44 150.5t-9 152.5l22 156q14 78 44.5 166.5t80 166t121 125t166.5 44.5q86 -2 141.5 -40t88 -100t46 -135.5t14 -149t-6.5 -139.5zM1000 519l2 21q2 26 5.5 66.5t2.5 86
t-10 86t-31.5 67t-64.5 28.5q-68 5 -112.5 -29t-70.5 -89t-37 -112l-37 -241q-2 -52 10 -95.5t45 -71t93 -28.5q57 -1 94.5 30.5t60 80.5t34 102.5t16.5 97.5zM53 506l2 21q9 71 28 150.5t52 156.5t81 138.5t115.5 97t156.5 32.5q91 -2 148 -52.5t86.5 -127.5t39 -161.5
t6.5 -157.5l-21 -149q-14 -77 -44.5 -161.5t-80.5 -156.5t-120 -116t-162 -42q-103 3 -164 55t-90.5 132.5t-35.5 170.5t3 170zM334 528l-2 -22q-4 -32 -7 -81.5t2.5 -98t28.5 -82t74 -36.5q64 -3 108 24.5t70.5 75t37.5 103.5l36 234q2 51 -6.5 103.5t-39.5 88.5t-95 37
q-59 2 -97.5 -35t-61 -93.5t-33.5 -115t-15 -102.5zM361 -416l339 1952h278l-339 -1952h-278z" />
    <glyph glyph-name="uni0445" unicode="&#x445;" horiz-adv-x="954" 
d="M404 1082l94 -323l201 323h307l-360 -542l190 -540h-284l-105 342l-212 -342h-309l375 566l-182 516h285z" />
    <glyph glyph-name="uni0446" unicode="&#x446;" horiz-adv-x="1142" 
d="M-1 0l188 1082h278l-148 -853h297l148 853h279l-188 -1082h-854zM1043 228l-114 -549h-259l56 321h-109l39 228h387z" />
    <glyph glyph-name="uni0447" unicode="&#x447;" horiz-adv-x="1037" 
d="M1018 1082l-187 -1082h-278l188 1082h277zM800 620l-22 -231q-40 -21 -85.5 -35t-93 -20t-91.5 -5q-128 1 -221.5 49t-139.5 140t-32 224l54 341h278l-56 -342q-7 -55 1.5 -95t39 -63t90.5 -24q49 -1 95 8t92 23.5t91 29.5z" />
    <glyph glyph-name="uni0448" unicode="&#x448;" horiz-adv-x="1539" 
d="M187 1082h278l-148 -853h243l148 853h279l-149 -853h245l148 853h277l-188 -1082h-1321z" />
    <glyph glyph-name="uni0449" unicode="&#x449;" horiz-adv-x="1686" 
d="M1559 228l-115 -549h-258l56 321h-110l40 228h387zM184 1082h278l-149 -853h244l149 853h278l-148 -853h244l148 853h277l-188 -1082h-1321z" />
    <glyph glyph-name="uni044A" unicode="&#x44a;" horiz-adv-x="1224" 
d="M637 1082l-40 -230h-515l41 230h514zM514 763l258 -1q111 -3 198.5 -47.5t135 -127t39.5 -199.5q-6 -96 -47 -169t-107 -122t-148.5 -73.5t-171.5 -23.5h-465l188 1082h278l-148 -854l157 -1q49 1 88.5 20.5t65.5 54.5t34 84q7 41 -2.5 73t-35.5 52t-68 23l-289 1z" />
    <glyph glyph-name="uni044B" unicode="&#x44b;" horiz-adv-x="1559" 
d="M325 763l258 -1q112 -3 199 -47.5t135 -127t40 -199.5q-7 -96 -47.5 -169t-106.5 -122t-148.5 -73.5t-171.5 -23.5h-465l188 1082h278l-149 -854l158 -1q49 1 88.5 20.5t65.5 54.5t34 85q6 40 -3 72t-35 52t-68 23l-290 1zM1500 1082l-188 -1082h-278l188 1082h278z" />
    <glyph glyph-name="uni044C" unicode="&#x44c;" horiz-adv-x="1044" 
d="M325 763l258 -1q112 -3 199 -47.5t135 -127t40 -199.5q-7 -96 -47.5 -169t-106.5 -122t-148.5 -73.5t-171.5 -23.5h-465l188 1082h278l-149 -854l158 -1q49 1 88.5 20.5t65.5 54.5t34 85q6 40 -3 72t-35 52t-68 23l-290 1z" />
    <glyph glyph-name="uni044D" unicode="&#x44d;" horiz-adv-x="967" 
d="M507 874q-49 1 -82 -22t-52.5 -61t-26.5 -81l-260 -1q9 115 69.5 205t157.5 140.5t213 48.5q112 -3 189 -50.5t122 -126t60 -174t6 -194.5l-4 -29q-12 -107 -51.5 -206t-105.5 -177.5t-157.5 -124t-209.5 -42.5q-122 3 -201.5 61t-117.5 153t-33 210l261 -1q-2 -41 5 -85
t32 -75.5t76 -33.5q61 -3 102 28.5t66 82.5t38 107t18 103l4 28q3 38 5.5 90.5t-5.5 104t-35.5 86.5t-82.5 36zM732 633l-32 -175h-333l31 175h334z" />
    <glyph glyph-name="uni044E" unicode="&#x44e;" horiz-adv-x="1503" 
d="M718 665l-41 -230h-536l40 230h537zM488 1082l-188 -1082h-278l187 1082h279zM506 523l2 21q14 108 54 209.5t107 181t161 125.5t213 43q114 -3 192.5 -50.5t125.5 -126.5t63 -175.5t6 -196.5l-3 -22q-13 -108 -54 -208.5t-108 -179t-161 -123.5t-212 -42
q-113 3 -191.5 50t-125 124.5t-63.5 173t-6 196.5zM786 546l-2 -23q-4 -40 -6 -93t8.5 -103t40 -84t86.5 -36q62 -2 105.5 29t70 82t40.5 108t21 106l2 21q4 40 5.5 93.5t-9 104.5t-39.5 86t-87 37q-63 2 -105.5 -29.5t-69.5 -83.5t-41 -109.5t-20 -105.5z" />
    <glyph glyph-name="uni044F" unicode="&#x44f;" horiz-adv-x="1045" 
d="M293 541h294l-364 -541h-294zM559 1083l447 -1l-188 -1082h-276l148 855l-141 1q-43 -2 -82 -21t-65.5 -52t-34.5 -78q-6 -37 5.5 -65t37 -44.5t61.5 -19.5l273 -1l-36 -199l-242 1q-74 2 -143 23.5t-123 63.5t-83 104.5t-24 145.5q5 92 46 161.5t107.5 115.5t147.5 69
t165 23z" />
    <glyph glyph-name="uni0450" unicode="&#x450;" horiz-adv-x="1012" 
d="M474 -20q-110 2 -193 42t-135.5 110.5t-75 162t-13.5 195.5l7 65q12 109 51 208t105 177t158.5 121.5t212.5 40.5q112 -2 187 -47t117 -120.5t55.5 -168.5t1.5 -192l-18 -124h-770l33 195l490 -1l5 26q7 49 -0.5 95t-36.5 76.5t-86 33.5q-64 2 -106 -28.5t-66.5 -79.5
t-37 -105.5t-18.5 -106.5l-7 -65q-6 -49 -1.5 -98t22.5 -89.5t54 -66t95 -26.5q75 -2 138.5 28.5t116.5 80.5l110 -162q-43 -62 -108 -101.5t-139.5 -58t-147.5 -17.5zM581 1537l144 -308h-214l-221 307z" />
    <glyph glyph-name="uni0451" unicode="&#x451;" horiz-adv-x="1012" 
d="M474 -20q-110 2 -193 42t-135.5 110.5t-75 162t-13.5 195.5l7 65q12 109 51 208t105 177t158.5 121.5t212.5 40.5q112 -2 187 -47t117 -120.5t55.5 -168.5t1.5 -192l-18 -124h-770l33 195l490 -1l5 26q7 49 -0.5 95t-36.5 76.5t-86 33.5q-64 2 -106 -28.5t-66.5 -79.5
t-37 -105.5t-18.5 -106.5l-7 -65q-6 -49 -1.5 -98t22.5 -89.5t54 -66t95 -26.5q75 -2 138.5 28.5t116.5 80.5l110 -162q-43 -62 -108 -101.5t-139.5 -58t-147.5 -17.5zM240 1364q0 55 39.5 92t93.5 38q53 1 94.5 -33.5t41.5 -89.5q1 -55 -39 -92t-94 -38q-53 -1 -94 33.5
t-42 89.5zM715 1363q-1 56 39 93t94 38q53 1 94 -34t41 -90q2 -55 -38.5 -91.5t-93.5 -37.5t-94 33.5t-42 88.5z" />
    <glyph glyph-name="uni0452" unicode="&#x452;" horiz-adv-x="1045" 
d="M645 470h279l-85 -506q-14 -114 -61.5 -206t-131.5 -146t-207 -53q-36 0 -70.5 5t-69.5 13l34 227q22 -7 45 -12t46 -5q46 1 74 28.5t42 68t20 79.5zM537 1536l-266 -1536h-278l267 1536h277zM333 579l-71 -3q10 87 38.5 180t80 173t127.5 128.5t180 45.5
q89 -3 145 -39.5t85.5 -97t37.5 -134t-1 -149.5l-114 -683h-278l115 686q5 46 0 88.5t-30 70t-80 29.5q-62 1 -103.5 -26t-68 -71.5t-41.5 -96.5t-22 -101zM729 1371l-32 -180h-635l32 180h635z" />
    <glyph glyph-name="uni0453" unicode="&#x453;" horiz-adv-x="785" 
d="M854 1082l-41 -229h-388l-149 -853h-277l188 1082h667zM357 1221l239 308h323l-316 -308h-246z" />
    <glyph glyph-name="uni0454" unicode="&#x454;" horiz-adv-x="967" 
d="M597 616l-31 -174h-348l31 174h348zM440 208q50 -2 85.5 21t57 61t30.5 82l259 1q-9 -115 -71 -205t-160 -140.5t-214 -48.5q-114 3 -191 50.5t-121 125.5t-59 173.5t-5 195.5l4 29q12 107 51.5 206.5t104.5 177.5t157 123t210 42q123 -2 204 -59.5t119 -152.5t34 -211
l-259 1q1 43 -8 87.5t-36 74.5t-80 32q-62 3 -102.5 -28.5t-64.5 -82t-36 -106.5t-17 -104l-3 -28q-4 -38 -7.5 -90.5t3 -104t33 -86.5t82.5 -36z" />
    <glyph glyph-name="uni0455" unicode="&#x455;" horiz-adv-x="961" 
d="M574 301q7 43 -22 70t-70.5 43.5t-72.5 27.5q-56 21 -110 48t-96.5 64.5t-66.5 89.5t-20 121q4 83 41.5 146t98 106.5t134 65t150.5 19.5q105 -1 190.5 -41t136 -116.5t50.5 -186.5l-277 1q2 38 -8.5 70t-35.5 50.5t-69 17.5q-35 1 -66.5 -14t-53.5 -41.5t-28 -62.5
q-6 -31 9 -53t40.5 -36.5t53.5 -25t50 -17.5q82 -29 154.5 -68.5t116 -102.5t38.5 -163q-3 -86 -44 -149.5t-105.5 -104.5t-142 -60.5t-154.5 -18.5q-106 2 -194 46t-140 123.5t-52 190.5l262 -1q-1 -47 13.5 -81.5t46 -53.5t80.5 -19q38 -1 72.5 11.5t59 38.5t31.5 66z" />
    <glyph glyph-name="uni0456" unicode="&#x456;" horiz-adv-x="512" 
d="M479 1082l-187 -1082h-278l188 1082h277zM235 1358q-1 67 43.5 110t110.5 44q63 1 107.5 -39t44.5 -105q2 -66 -42.5 -109t-110.5 -44q-63 -1 -107 38.5t-46 104.5z" />
    <glyph glyph-name="uni0457" unicode="&#x457;" horiz-adv-x="531" 
d="M487 1082l-188 -1082h-278l188 1082h278zM22 1348q0 55 39.5 92t93.5 38q53 1 94.5 -33.5t41.5 -89.5q1 -55 -39 -92t-94 -38q-53 -1 -94 33.5t-42 89.5zM497 1347q-1 56 39 93t94 38q53 1 94 -34t41 -90q2 -55 -38.5 -91.5t-93.5 -37.5t-94 33.5t-42 88.5z" />
    <glyph glyph-name="uni0458" unicode="&#x458;" horiz-adv-x="502" 
d="M202 1082h279l-195 -1144q-13 -109 -60.5 -195t-129 -135t-198.5 -48q-37 1 -72.5 6t-70.5 13l25 225q20 -4 40.5 -8t40.5 -4q45 0 74.5 19.5t46.5 52.5t25 73zM231 1358q-1 66 43 109.5t110 43.5q64 1 108.5 -38.5t44.5 -104.5q1 -67 -43 -109.5t-110 -43.5
q-63 -1 -107.5 38.5t-45.5 104.5z" />
    <glyph glyph-name="uni0459" unicode="&#x459;" horiz-adv-x="1589" 
d="M296 1082h274l-120 -546q-13 -74 -33 -150t-50 -145.5t-76 -124.5t-111.5 -86.5t-154.5 -29.5h-99l31 230l31 2q50 5 84.5 34t57 73t35.5 95t21.5 99.5t15.5 86.5zM829 1082l-40 -229h-465l40 229h465zM869 737l258 -1q107 -3 195 -44t138.5 -120t43.5 -194
q-6 -95 -47 -166.5t-107.5 -119t-148 -70.5t-170.5 -22h-465l188 1082h278l-148 -855l157 -1q47 2 87 20t66 51.5t34 82.5q7 40 -5 67.5t-39 43t-65 17.5l-289 1z" />
    <glyph glyph-name="uni045A" unicode="&#x45a;" horiz-adv-x="1594" 
d="M779 664l-40 -228h-479l40 228h479zM465 1082l-188 -1082h-278l188 1082h278zM875 737l258 -1q107 -3 195 -44t138.5 -119.5t42.5 -194.5q-7 -94 -48 -165.5t-106.5 -119.5t-147.5 -71t-170 -22h-465l188 1082h278l-148 -855l156 -1q47 2 87 20t66.5 51.5t33.5 82.5
q7 39 -5 67t-38.5 43.5t-65.5 17.5l-289 1z" />
    <glyph glyph-name="uni045B" unicode="&#x45b;" horiz-adv-x="1063" 
d="M537 1536l-266 -1536h-278l267 1536h277zM333 579l-71 -3q10 87 38.5 180t80 173t127.5 128.5t181 45.5q88 -2 144 -39t85.5 -97.5t37.5 -134t-1 -149.5l-114 -683h-278l115 686q5 46 0 88.5t-30 70t-80 28.5q-61 2 -102.5 -25t-68.5 -71.5t-42 -96.5t-22 -101zM744 1383
l-32 -180h-635l32 180h635z" />
    <glyph glyph-name="uni045C" unicode="&#x45c;" horiz-adv-x="1060" 
d="M484 1082l-188 -1082h-277l187 1082h278zM1119 1082l-534 -680h-268l13 271h160l264 409h365zM588 0l-144 464l253 133l247 -597h-356zM498 1222l239 308h323l-316 -308h-246z" />
    <glyph glyph-name="uni045D" unicode="&#x45d;" horiz-adv-x="1059" 
d="M351 427l406 655h284l-188 -1082h-278l115 657l-406 -657h-285l188 1082h278zM633 1530l144 -308h-214l-221 307z" />
    </font>
</defs>
</svg>
